<ttFont>
    <TTGlyph name="A" xMin="45" yMin="0" xMax="1006" yMax="644">
      <contour>
        <pt x="1004" y="585" on="1"/>
        <pt x="1006" y="583" on="0"/>
        <pt x="1006" y="576" on="0"/>
        <pt x="1001" y="570" on="1"/>
        <pt x="968" y="534" on="0"/>
        <pt x="916" y="441" on="0"/>
        <pt x="879" y="331" on="0"/>
        <pt x="859" y="209" on="0"/>
        <pt x="859" y="145" on="1"/>
        <pt x="859" y="97" on="0"/>
        <pt x="883" y="44" on="0"/>
        <pt x="912" y="44" on="1"/>
        <pt x="951" y="44" on="0"/>
        <pt x="988" y="100" on="1"/>
        <pt x="991" y="102" on="0"/>
        <pt x="997" y="98" on="0"/>
        <pt x="995" y="94" on="1"/>
        <pt x="985" y="77" on="0"/>
        <pt x="958" y="44" on="0"/>
        <pt x="928" y="17" on="0"/>
        <pt x="899" y="0" on="0"/>
        <pt x="887" y="0" on="1"/>
        <pt x="854" y="0" on="0"/>
        <pt x="819" y="67" on="0"/>
        <pt x="819" y="119" on="1"/>
        <pt x="819" y="199" on="0"/>
        <pt x="837" y="282" on="1"/>
        <pt x="790" y="282" on="0"/>
        <pt x="699" y="280" on="0"/>
        <pt x="655" y="278" on="1"/>
        <pt x="622" y="243" on="0"/>
        <pt x="561" y="181" on="0"/>
        <pt x="532" y="155" on="1"/>
        <pt x="452" y="82" on="0"/>
        <pt x="283" y="0" on="0"/>
        <pt x="182" y="0" on="1"/>
        <pt x="131" y="0" on="0"/>
        <pt x="68" y="49" on="0"/>
        <pt x="45" y="123" on="0"/>
        <pt x="64" y="212" on="0"/>
        <pt x="97" y="251" on="1"/>
        <pt x="100" y="253" on="0"/>
        <pt x="108" y="248" on="0"/>
        <pt x="107" y="241" on="1"/>
        <pt x="83" y="215" on="0"/>
        <pt x="74" y="147" on="0"/>
        <pt x="104" y="85" on="0"/>
        <pt x="176" y="43" on="0"/>
        <pt x="234" y="43" on="1"/>
        <pt x="310" y="43" on="0"/>
        <pt x="465" y="115" on="0"/>
        <pt x="534" y="180" on="1"/>
        <pt x="556" y="200" on="0"/>
        <pt x="603" y="249" on="0"/>
        <pt x="629" y="277" on="1"/>
        <pt x="560" y="272" on="0"/>
        <pt x="505" y="265" on="1"/>
        <pt x="500" y="266" on="0"/>
        <pt x="506" y="274" on="0"/>
        <pt x="519" y="283" on="0"/>
        <pt x="536" y="290" on="0"/>
        <pt x="544" y="291" on="1"/>
        <pt x="556" y="292" on="0"/>
        <pt x="611" y="293" on="0"/>
        <pt x="646" y="294" on="1"/>
        <pt x="703" y="354" on="0"/>
        <pt x="844" y="492" on="0"/>
        <pt x="937" y="565" on="1"/>
        <pt x="870" y="587" on="0"/>
        <pt x="727" y="616" on="0"/>
        <pt x="661" y="616" on="1"/>
        <pt x="586" y="616" on="0"/>
        <pt x="487" y="529" on="0"/>
        <pt x="475" y="440" on="1"/>
        <pt x="473" y="435" on="0"/>
        <pt x="466" y="437" on="0"/>
        <pt x="465" y="442" on="1"/>
        <pt x="477" y="540" on="0"/>
        <pt x="599" y="644" on="0"/>
        <pt x="696" y="644" on="1"/>
        <pt x="737" y="644" on="0"/>
        <pt x="821" y="633" on="0"/>
        <pt x="901" y="616" on="0"/>
        <pt x="974" y="595" on="0"/>
      </contour>
      <contour>
        <pt x="840" y="295" on="1"/>
        <pt x="857" y="368" on="0"/>
        <pt x="917" y="507" on="0"/>
        <pt x="959" y="564" on="1"/>
        <pt x="871" y="493" on="0"/>
        <pt x="731" y="356" on="0"/>
        <pt x="671" y="294" on="1"/>
        <pt x="719" y="295" on="0"/>
        <pt x="813" y="295" on="0"/>
      </contour>
    </TTGlyph>
    <TTGlyph name="AE" xMin="45" yMin="0" xMax="1323" yMax="644">
      <contour>
        <pt x="1197" y="644" on="1"/>
        <pt x="1221" y="644" on="0"/>
        <pt x="1266" y="635" on="0"/>
        <pt x="1302" y="620" on="0"/>
        <pt x="1323" y="601" on="0"/>
        <pt x="1323" y="591" on="1"/>
        <pt x="1323" y="583" on="0"/>
        <pt x="1316" y="562" on="0"/>
        <pt x="1307" y="540" on="0"/>
        <pt x="1297" y="521" on="0"/>
        <pt x="1294" y="517" on="1"/>
        <pt x="1291" y="515" on="0"/>
        <pt x="1285" y="518" on="0"/>
        <pt x="1286" y="522" on="1"/>
        <pt x="1292" y="533" on="0"/>
        <pt x="1298" y="560" on="0"/>
        <pt x="1290" y="573" on="1"/>
        <pt x="1279" y="591" on="0"/>
        <pt x="1217" y="627" on="0"/>
        <pt x="1177" y="627" on="1"/>
        <pt x="1118" y="627" on="0"/>
        <pt x="1057" y="569" on="0"/>
        <pt x="1057" y="523" on="1"/>
        <pt x="1057" y="491" on="0"/>
        <pt x="1103" y="436" on="0"/>
        <pt x="1151" y="422" on="1"/>
        <pt x="1154" y="420" on="0"/>
        <pt x="1149" y="411" on="0"/>
        <pt x="1139" y="401" on="0"/>
        <pt x="1126" y="393" on="0"/>
        <pt x="1122" y="392" on="1"/>
        <pt x="1010" y="397" on="0"/>
        <pt x="886" y="290" on="0"/>
        <pt x="886" y="182" on="1"/>
        <pt x="886" y="147" on="0"/>
        <pt x="907" y="87" on="0"/>
        <pt x="946" y="43" on="0"/>
        <pt x="1001" y="18" on="0"/>
        <pt x="1036" y="18" on="1"/>
        <pt x="1118" y="18" on="0"/>
        <pt x="1222" y="94" on="0"/>
        <pt x="1245" y="179" on="1"/>
        <pt x="1248" y="184" on="0"/>
        <pt x="1255" y="180" on="0"/>
        <pt x="1256" y="174" on="1"/>
        <pt x="1243" y="118" on="0"/>
        <pt x="1211" y="44" on="0"/>
        <pt x="1197" y="38" on="1"/>
        <pt x="1162" y="22" on="0"/>
        <pt x="1063" y="0" on="0"/>
        <pt x="1012" y="0" on="1"/>
        <pt x="971" y="0" on="0"/>
        <pt x="909" y="26" on="0"/>
        <pt x="867" y="71" on="0"/>
        <pt x="846" y="133" on="0"/>
        <pt x="846" y="169" on="1"/>
        <pt x="846" y="195" on="0"/>
        <pt x="851" y="253" on="0"/>
        <pt x="856" y="284" on="1"/>
        <pt x="855" y="283" on="0"/>
        <pt x="854" y="283" on="0"/>
        <pt x="853" y="282" on="1"/>
        <pt x="802" y="282" on="0"/>
        <pt x="702" y="279" on="0"/>
        <pt x="655" y="277" on="1"/>
        <pt x="622" y="242" on="0"/>
        <pt x="562" y="181" on="0"/>
        <pt x="533" y="154" on="1"/>
        <pt x="453" y="81" on="0"/>
        <pt x="283" y="0" on="0"/>
        <pt x="183" y="0" on="1"/>
        <pt x="132" y="0" on="0"/>
        <pt x="68" y="49" on="0"/>
        <pt x="45" y="123" on="0"/>
        <pt x="64" y="212" on="0"/>
        <pt x="97" y="251" on="1"/>
        <pt x="101" y="253" on="0"/>
        <pt x="108" y="248" on="0"/>
        <pt x="108" y="241" on="1"/>
        <pt x="84" y="215" on="0"/>
        <pt x="74" y="147" on="0"/>
        <pt x="105" y="85" on="0"/>
        <pt x="177" y="43" on="0"/>
        <pt x="235" y="43" on="1"/>
        <pt x="311" y="43" on="0"/>
        <pt x="465" y="115" on="0"/>
        <pt x="534" y="180" on="1"/>
        <pt x="556" y="200" on="0"/>
        <pt x="602" y="249" on="0"/>
        <pt x="628" y="275" on="1"/>
        <pt x="599" y="273" on="0"/>
        <pt x="544" y="269" on="0"/>
        <pt x="520" y="265" on="1"/>
        <pt x="515" y="266" on="0"/>
        <pt x="521" y="274" on="0"/>
        <pt x="533" y="283" on="0"/>
        <pt x="550" y="290" on="0"/>
        <pt x="558" y="291" on="1"/>
        <pt x="569" y="292" on="0"/>
        <pt x="616" y="293" on="0"/>
        <pt x="646" y="294" on="1"/>
        <pt x="703" y="354" on="0"/>
        <pt x="844" y="492" on="0"/>
        <pt x="937" y="565" on="1"/>
        <pt x="871" y="587" on="0"/>
        <pt x="727" y="616" on="0"/>
        <pt x="661" y="616" on="1"/>
        <pt x="586" y="616" on="0"/>
        <pt x="487" y="529" on="0"/>
        <pt x="476" y="440" on="1"/>
        <pt x="474" y="435" on="0"/>
        <pt x="467" y="437" on="0"/>
        <pt x="466" y="442" on="1"/>
        <pt x="477" y="540" on="0"/>
        <pt x="599" y="644" on="0"/>
        <pt x="697" y="644" on="1"/>
        <pt x="738" y="644" on="0"/>
        <pt x="820" y="633" on="0"/>
        <pt x="898" y="616" on="0"/>
        <pt x="969" y="596" on="0"/>
        <pt x="999" y="586" on="1"/>
        <pt x="1002" y="584" on="0"/>
        <pt x="1006" y="577" on="0"/>
        <pt x="1001" y="570" on="1"/>
        <pt x="959" y="512" on="0"/>
        <pt x="910" y="385" on="0"/>
        <pt x="896" y="311" on="1"/>
        <pt x="928" y="356" on="0"/>
        <pt x="1018" y="401" on="0"/>
        <pt x="1075" y="412" on="1"/>
        <pt x="1048" y="426" on="0"/>
        <pt x="1017" y="475" on="0"/>
        <pt x="1017" y="501" on="1"/>
        <pt x="1017" y="529" on="0"/>
        <pt x="1043" y="581" on="0"/>
        <pt x="1090" y="620" on="0"/>
        <pt x="1156" y="644" on="0"/>
      </contour>
      <contour>
        <pt x="858" y="295" on="1"/>
        <pt x="872" y="365" on="0"/>
        <pt x="923" y="507" on="0"/>
        <pt x="960" y="564" on="1"/>
        <pt x="871" y="493" on="0"/>
        <pt x="731" y="356" on="0"/>
        <pt x="672" y="294" on="1"/>
        <pt x="697" y="294" on="0"/>
        <pt x="751" y="295" on="0"/>
        <pt x="801" y="295" on="0"/>
        <pt x="844" y="295" on="0"/>
      </contour>
    </TTGlyph>
    <TTGlyph name="Aacute" xMin="45" yMin="0" xMax="1033" yMax="737">
      <contour>
        <pt x="988" y="734" on="1"/>
        <pt x="993" y="737" on="0"/>
        <pt x="1020" y="728" on="0"/>
        <pt x="1029" y="724" on="1"/>
        <pt x="1031" y="722" on="0"/>
        <pt x="1033" y="717" on="0"/>
        <pt x="1030" y="715" on="1"/>
        <pt x="1020" y="708" on="0"/>
        <pt x="989" y="692" on="0"/>
        <pt x="954" y="677" on="0"/>
        <pt x="917" y="663" on="0"/>
        <pt x="902" y="658" on="1"/>
        <pt x="898" y="658" on="0"/>
        <pt x="898" y="666" on="0"/>
        <pt x="901" y="669" on="1"/>
        <pt x="921" y="681" on="0"/>
        <pt x="969" y="714" on="0"/>
      </contour>
      <contour>
        <pt x="1004" y="585" on="1"/>
        <pt x="1006" y="583" on="0"/>
        <pt x="1006" y="576" on="0"/>
        <pt x="1001" y="570" on="1"/>
        <pt x="968" y="534" on="0"/>
        <pt x="916" y="441" on="0"/>
        <pt x="879" y="331" on="0"/>
        <pt x="859" y="209" on="0"/>
        <pt x="859" y="145" on="1"/>
        <pt x="859" y="97" on="0"/>
        <pt x="883" y="44" on="0"/>
        <pt x="912" y="44" on="1"/>
        <pt x="951" y="44" on="0"/>
        <pt x="988" y="100" on="1"/>
        <pt x="991" y="102" on="0"/>
        <pt x="997" y="98" on="0"/>
        <pt x="995" y="94" on="1"/>
        <pt x="985" y="77" on="0"/>
        <pt x="958" y="44" on="0"/>
        <pt x="928" y="17" on="0"/>
        <pt x="899" y="0" on="0"/>
        <pt x="887" y="0" on="1"/>
        <pt x="854" y="0" on="0"/>
        <pt x="819" y="67" on="0"/>
        <pt x="819" y="119" on="1"/>
        <pt x="819" y="199" on="0"/>
        <pt x="837" y="282" on="1"/>
        <pt x="790" y="282" on="0"/>
        <pt x="699" y="280" on="0"/>
        <pt x="655" y="278" on="1"/>
        <pt x="622" y="243" on="0"/>
        <pt x="561" y="181" on="0"/>
        <pt x="532" y="155" on="1"/>
        <pt x="452" y="82" on="0"/>
        <pt x="283" y="0" on="0"/>
        <pt x="182" y="0" on="1"/>
        <pt x="131" y="0" on="0"/>
        <pt x="68" y="49" on="0"/>
        <pt x="45" y="123" on="0"/>
        <pt x="64" y="212" on="0"/>
        <pt x="97" y="251" on="1"/>
        <pt x="100" y="253" on="0"/>
        <pt x="108" y="248" on="0"/>
        <pt x="107" y="241" on="1"/>
        <pt x="83" y="215" on="0"/>
        <pt x="74" y="147" on="0"/>
        <pt x="104" y="85" on="0"/>
        <pt x="176" y="43" on="0"/>
        <pt x="234" y="43" on="1"/>
        <pt x="310" y="43" on="0"/>
        <pt x="465" y="115" on="0"/>
        <pt x="534" y="180" on="1"/>
        <pt x="556" y="200" on="0"/>
        <pt x="603" y="249" on="0"/>
        <pt x="629" y="277" on="1"/>
        <pt x="560" y="272" on="0"/>
        <pt x="505" y="265" on="1"/>
        <pt x="500" y="266" on="0"/>
        <pt x="506" y="274" on="0"/>
        <pt x="519" y="283" on="0"/>
        <pt x="536" y="290" on="0"/>
        <pt x="544" y="291" on="1"/>
        <pt x="556" y="292" on="0"/>
        <pt x="611" y="293" on="0"/>
        <pt x="646" y="294" on="1"/>
        <pt x="703" y="354" on="0"/>
        <pt x="844" y="492" on="0"/>
        <pt x="937" y="565" on="1"/>
        <pt x="870" y="587" on="0"/>
        <pt x="727" y="616" on="0"/>
        <pt x="661" y="616" on="1"/>
        <pt x="586" y="616" on="0"/>
        <pt x="487" y="529" on="0"/>
        <pt x="475" y="440" on="1"/>
        <pt x="473" y="435" on="0"/>
        <pt x="466" y="437" on="0"/>
        <pt x="465" y="442" on="1"/>
        <pt x="477" y="540" on="0"/>
        <pt x="599" y="644" on="0"/>
        <pt x="696" y="644" on="1"/>
        <pt x="737" y="644" on="0"/>
        <pt x="821" y="633" on="0"/>
        <pt x="901" y="616" on="0"/>
        <pt x="974" y="595" on="0"/>
      </contour>
      <contour>
        <pt x="840" y="295" on="1"/>
        <pt x="857" y="368" on="0"/>
        <pt x="917" y="507" on="0"/>
        <pt x="959" y="564" on="1"/>
        <pt x="871" y="493" on="0"/>
        <pt x="731" y="356" on="0"/>
        <pt x="671" y="294" on="1"/>
        <pt x="719" y="295" on="0"/>
        <pt x="813" y="295" on="0"/>
      </contour>
    </TTGlyph>
    <TTGlyph name="Acircumflex" xMin="45" yMin="0" xMax="1064" yMax="751">
      <contour>
        <pt x="973" y="746" on="1"/>
        <pt x="978" y="751" on="0"/>
        <pt x="985" y="745" on="1"/>
        <pt x="998" y="728" on="0"/>
        <pt x="1039" y="693" on="0"/>
        <pt x="1059" y="684" on="1"/>
        <pt x="1064" y="679" on="0"/>
        <pt x="1045" y="669" on="0"/>
        <pt x="1033" y="671" on="1"/>
        <pt x="1014" y="679" on="0"/>
        <pt x="983" y="702" on="0"/>
        <pt x="967" y="715" on="1"/>
        <pt x="961" y="710" on="0"/>
        <pt x="941" y="698" on="0"/>
        <pt x="920" y="685" on="0"/>
        <pt x="899" y="673" on="0"/>
        <pt x="892" y="670" on="1"/>
        <pt x="882" y="670" on="0"/>
        <pt x="887" y="679" on="1"/>
        <pt x="904" y="689" on="0"/>
        <pt x="957" y="727" on="0"/>
      </contour>
      <contour>
        <pt x="1004" y="585" on="1"/>
        <pt x="1006" y="583" on="0"/>
        <pt x="1006" y="576" on="0"/>
        <pt x="1001" y="570" on="1"/>
        <pt x="968" y="534" on="0"/>
        <pt x="916" y="441" on="0"/>
        <pt x="879" y="331" on="0"/>
        <pt x="859" y="209" on="0"/>
        <pt x="859" y="145" on="1"/>
        <pt x="859" y="97" on="0"/>
        <pt x="883" y="44" on="0"/>
        <pt x="912" y="44" on="1"/>
        <pt x="951" y="44" on="0"/>
        <pt x="988" y="100" on="1"/>
        <pt x="991" y="102" on="0"/>
        <pt x="997" y="98" on="0"/>
        <pt x="995" y="94" on="1"/>
        <pt x="985" y="77" on="0"/>
        <pt x="958" y="44" on="0"/>
        <pt x="928" y="17" on="0"/>
        <pt x="899" y="0" on="0"/>
        <pt x="887" y="0" on="1"/>
        <pt x="854" y="0" on="0"/>
        <pt x="819" y="67" on="0"/>
        <pt x="819" y="119" on="1"/>
        <pt x="819" y="199" on="0"/>
        <pt x="837" y="282" on="1"/>
        <pt x="790" y="282" on="0"/>
        <pt x="699" y="280" on="0"/>
        <pt x="655" y="278" on="1"/>
        <pt x="622" y="243" on="0"/>
        <pt x="561" y="181" on="0"/>
        <pt x="532" y="155" on="1"/>
        <pt x="452" y="82" on="0"/>
        <pt x="283" y="0" on="0"/>
        <pt x="182" y="0" on="1"/>
        <pt x="131" y="0" on="0"/>
        <pt x="68" y="49" on="0"/>
        <pt x="45" y="123" on="0"/>
        <pt x="64" y="212" on="0"/>
        <pt x="97" y="251" on="1"/>
        <pt x="100" y="253" on="0"/>
        <pt x="108" y="248" on="0"/>
        <pt x="107" y="241" on="1"/>
        <pt x="83" y="215" on="0"/>
        <pt x="74" y="147" on="0"/>
        <pt x="104" y="85" on="0"/>
        <pt x="176" y="43" on="0"/>
        <pt x="234" y="43" on="1"/>
        <pt x="310" y="43" on="0"/>
        <pt x="465" y="115" on="0"/>
        <pt x="534" y="180" on="1"/>
        <pt x="556" y="200" on="0"/>
        <pt x="603" y="249" on="0"/>
        <pt x="629" y="277" on="1"/>
        <pt x="560" y="272" on="0"/>
        <pt x="505" y="265" on="1"/>
        <pt x="500" y="266" on="0"/>
        <pt x="506" y="274" on="0"/>
        <pt x="519" y="283" on="0"/>
        <pt x="536" y="290" on="0"/>
        <pt x="544" y="291" on="1"/>
        <pt x="556" y="292" on="0"/>
        <pt x="611" y="293" on="0"/>
        <pt x="646" y="294" on="1"/>
        <pt x="703" y="354" on="0"/>
        <pt x="844" y="492" on="0"/>
        <pt x="937" y="565" on="1"/>
        <pt x="870" y="587" on="0"/>
        <pt x="727" y="616" on="0"/>
        <pt x="661" y="616" on="1"/>
        <pt x="586" y="616" on="0"/>
        <pt x="487" y="529" on="0"/>
        <pt x="475" y="440" on="1"/>
        <pt x="473" y="435" on="0"/>
        <pt x="466" y="437" on="0"/>
        <pt x="465" y="442" on="1"/>
        <pt x="477" y="540" on="0"/>
        <pt x="599" y="644" on="0"/>
        <pt x="696" y="644" on="1"/>
        <pt x="737" y="644" on="0"/>
        <pt x="821" y="633" on="0"/>
        <pt x="901" y="616" on="0"/>
        <pt x="974" y="595" on="0"/>
      </contour>
      <contour>
        <pt x="840" y="295" on="1"/>
        <pt x="857" y="368" on="0"/>
        <pt x="917" y="507" on="0"/>
        <pt x="959" y="564" on="1"/>
        <pt x="871" y="493" on="0"/>
        <pt x="731" y="356" on="0"/>
        <pt x="671" y="294" on="1"/>
        <pt x="719" y="295" on="0"/>
        <pt x="813" y="295" on="0"/>
      </contour>
    </TTGlyph>
    <TTGlyph name="Adieresis" xMin="45" yMin="0" xMax="1046" yMax="721">
      <contour>
        <pt x="937" y="667" on="1"/>
        <pt x="926" y="667" on="0"/>
        <pt x="926" y="684" on="1"/>
        <pt x="926" y="694" on="0"/>
        <pt x="946" y="721" on="0"/>
        <pt x="962" y="721" on="1"/>
        <pt x="971" y="721" on="0"/>
        <pt x="971" y="708" on="1"/>
        <pt x="971" y="694" on="0"/>
        <pt x="951" y="667" on="0"/>
      </contour>
      <contour>
        <pt x="1014" y="667" on="1"/>
        <pt x="1002" y="667" on="0"/>
        <pt x="1002" y="684" on="1"/>
        <pt x="1002" y="694" on="0"/>
        <pt x="1022" y="721" on="0"/>
        <pt x="1037" y="721" on="1"/>
        <pt x="1046" y="721" on="0"/>
        <pt x="1046" y="708" on="1"/>
        <pt x="1046" y="694" on="0"/>
        <pt x="1026" y="667" on="0"/>
      </contour>
      <contour>
        <pt x="1004" y="585" on="1"/>
        <pt x="1006" y="583" on="0"/>
        <pt x="1006" y="576" on="0"/>
        <pt x="1001" y="570" on="1"/>
        <pt x="968" y="534" on="0"/>
        <pt x="916" y="441" on="0"/>
        <pt x="879" y="331" on="0"/>
        <pt x="859" y="209" on="0"/>
        <pt x="859" y="145" on="1"/>
        <pt x="859" y="97" on="0"/>
        <pt x="883" y="44" on="0"/>
        <pt x="912" y="44" on="1"/>
        <pt x="951" y="44" on="0"/>
        <pt x="988" y="100" on="1"/>
        <pt x="991" y="102" on="0"/>
        <pt x="997" y="98" on="0"/>
        <pt x="995" y="94" on="1"/>
        <pt x="985" y="77" on="0"/>
        <pt x="958" y="44" on="0"/>
        <pt x="928" y="17" on="0"/>
        <pt x="899" y="0" on="0"/>
        <pt x="887" y="0" on="1"/>
        <pt x="854" y="0" on="0"/>
        <pt x="819" y="67" on="0"/>
        <pt x="819" y="119" on="1"/>
        <pt x="819" y="199" on="0"/>
        <pt x="837" y="282" on="1"/>
        <pt x="790" y="282" on="0"/>
        <pt x="699" y="280" on="0"/>
        <pt x="655" y="278" on="1"/>
        <pt x="622" y="243" on="0"/>
        <pt x="561" y="181" on="0"/>
        <pt x="532" y="155" on="1"/>
        <pt x="452" y="82" on="0"/>
        <pt x="283" y="0" on="0"/>
        <pt x="182" y="0" on="1"/>
        <pt x="131" y="0" on="0"/>
        <pt x="68" y="49" on="0"/>
        <pt x="45" y="123" on="0"/>
        <pt x="64" y="212" on="0"/>
        <pt x="97" y="251" on="1"/>
        <pt x="100" y="253" on="0"/>
        <pt x="108" y="248" on="0"/>
        <pt x="107" y="241" on="1"/>
        <pt x="83" y="215" on="0"/>
        <pt x="74" y="147" on="0"/>
        <pt x="104" y="85" on="0"/>
        <pt x="176" y="43" on="0"/>
        <pt x="234" y="43" on="1"/>
        <pt x="310" y="43" on="0"/>
        <pt x="465" y="115" on="0"/>
        <pt x="534" y="180" on="1"/>
        <pt x="556" y="200" on="0"/>
        <pt x="603" y="249" on="0"/>
        <pt x="629" y="277" on="1"/>
        <pt x="560" y="272" on="0"/>
        <pt x="505" y="265" on="1"/>
        <pt x="500" y="266" on="0"/>
        <pt x="506" y="274" on="0"/>
        <pt x="519" y="283" on="0"/>
        <pt x="536" y="290" on="0"/>
        <pt x="544" y="291" on="1"/>
        <pt x="556" y="292" on="0"/>
        <pt x="611" y="293" on="0"/>
        <pt x="646" y="294" on="1"/>
        <pt x="703" y="354" on="0"/>
        <pt x="844" y="492" on="0"/>
        <pt x="937" y="565" on="1"/>
        <pt x="870" y="587" on="0"/>
        <pt x="727" y="616" on="0"/>
        <pt x="661" y="616" on="1"/>
        <pt x="586" y="616" on="0"/>
        <pt x="487" y="529" on="0"/>
        <pt x="475" y="440" on="1"/>
        <pt x="473" y="435" on="0"/>
        <pt x="466" y="437" on="0"/>
        <pt x="465" y="442" on="1"/>
        <pt x="477" y="540" on="0"/>
        <pt x="599" y="644" on="0"/>
        <pt x="696" y="644" on="1"/>
        <pt x="737" y="644" on="0"/>
        <pt x="821" y="633" on="0"/>
        <pt x="901" y="616" on="0"/>
        <pt x="974" y="595" on="0"/>
      </contour>
      <contour>
        <pt x="840" y="295" on="1"/>
        <pt x="857" y="368" on="0"/>
        <pt x="917" y="507" on="0"/>
        <pt x="959" y="564" on="1"/>
        <pt x="871" y="493" on="0"/>
        <pt x="731" y="356" on="0"/>
        <pt x="671" y="294" on="1"/>
        <pt x="719" y="295" on="0"/>
        <pt x="813" y="295" on="0"/>
      </contour>
    </TTGlyph>
    <TTGlyph name="Agrave" xMin="45" yMin="0" xMax="1006" yMax="733">
      <contour>
        <pt x="996" y="669" on="1"/>
        <pt x="998" y="667" on="0"/>
        <pt x="993" y="660" on="0"/>
        <pt x="988" y="660" on="1"/>
        <pt x="976" y="663" on="0"/>
        <pt x="942" y="675" on="0"/>
        <pt x="908" y="689" on="0"/>
        <pt x="876" y="703" on="0"/>
        <pt x="865" y="709" on="1"/>
        <pt x="863" y="710" on="0"/>
        <pt x="863" y="715" on="0"/>
        <pt x="865" y="717" on="1"/>
        <pt x="875" y="725" on="0"/>
        <pt x="903" y="733" on="0"/>
        <pt x="905" y="731" on="1"/>
        <pt x="922" y="717" on="0"/>
        <pt x="969" y="684" on="0"/>
      </contour>
      <contour>
        <pt x="1004" y="585" on="1"/>
        <pt x="1006" y="583" on="0"/>
        <pt x="1006" y="576" on="0"/>
        <pt x="1001" y="570" on="1"/>
        <pt x="968" y="534" on="0"/>
        <pt x="916" y="441" on="0"/>
        <pt x="879" y="331" on="0"/>
        <pt x="859" y="209" on="0"/>
        <pt x="859" y="145" on="1"/>
        <pt x="859" y="97" on="0"/>
        <pt x="883" y="44" on="0"/>
        <pt x="912" y="44" on="1"/>
        <pt x="951" y="44" on="0"/>
        <pt x="988" y="100" on="1"/>
        <pt x="991" y="102" on="0"/>
        <pt x="997" y="98" on="0"/>
        <pt x="995" y="94" on="1"/>
        <pt x="985" y="77" on="0"/>
        <pt x="958" y="44" on="0"/>
        <pt x="928" y="17" on="0"/>
        <pt x="899" y="0" on="0"/>
        <pt x="887" y="0" on="1"/>
        <pt x="854" y="0" on="0"/>
        <pt x="819" y="67" on="0"/>
        <pt x="819" y="119" on="1"/>
        <pt x="819" y="199" on="0"/>
        <pt x="837" y="282" on="1"/>
        <pt x="790" y="282" on="0"/>
        <pt x="699" y="280" on="0"/>
        <pt x="655" y="278" on="1"/>
        <pt x="622" y="243" on="0"/>
        <pt x="561" y="181" on="0"/>
        <pt x="532" y="155" on="1"/>
        <pt x="452" y="82" on="0"/>
        <pt x="283" y="0" on="0"/>
        <pt x="182" y="0" on="1"/>
        <pt x="131" y="0" on="0"/>
        <pt x="68" y="49" on="0"/>
        <pt x="45" y="123" on="0"/>
        <pt x="64" y="212" on="0"/>
        <pt x="97" y="251" on="1"/>
        <pt x="100" y="253" on="0"/>
        <pt x="108" y="248" on="0"/>
        <pt x="107" y="241" on="1"/>
        <pt x="83" y="215" on="0"/>
        <pt x="74" y="147" on="0"/>
        <pt x="104" y="85" on="0"/>
        <pt x="176" y="43" on="0"/>
        <pt x="234" y="43" on="1"/>
        <pt x="310" y="43" on="0"/>
        <pt x="465" y="115" on="0"/>
        <pt x="534" y="180" on="1"/>
        <pt x="556" y="200" on="0"/>
        <pt x="603" y="249" on="0"/>
        <pt x="629" y="277" on="1"/>
        <pt x="560" y="272" on="0"/>
        <pt x="505" y="265" on="1"/>
        <pt x="500" y="266" on="0"/>
        <pt x="506" y="274" on="0"/>
        <pt x="519" y="283" on="0"/>
        <pt x="536" y="290" on="0"/>
        <pt x="544" y="291" on="1"/>
        <pt x="556" y="292" on="0"/>
        <pt x="611" y="293" on="0"/>
        <pt x="646" y="294" on="1"/>
        <pt x="703" y="354" on="0"/>
        <pt x="844" y="492" on="0"/>
        <pt x="937" y="565" on="1"/>
        <pt x="870" y="587" on="0"/>
        <pt x="727" y="616" on="0"/>
        <pt x="661" y="616" on="1"/>
        <pt x="586" y="616" on="0"/>
        <pt x="487" y="529" on="0"/>
        <pt x="475" y="440" on="1"/>
        <pt x="473" y="435" on="0"/>
        <pt x="466" y="437" on="0"/>
        <pt x="465" y="442" on="1"/>
        <pt x="477" y="540" on="0"/>
        <pt x="599" y="644" on="0"/>
        <pt x="696" y="644" on="1"/>
        <pt x="737" y="644" on="0"/>
        <pt x="821" y="633" on="0"/>
        <pt x="901" y="616" on="0"/>
        <pt x="974" y="595" on="0"/>
      </contour>
      <contour>
        <pt x="840" y="295" on="1"/>
        <pt x="857" y="368" on="0"/>
        <pt x="917" y="507" on="0"/>
        <pt x="959" y="564" on="1"/>
        <pt x="871" y="493" on="0"/>
        <pt x="731" y="356" on="0"/>
        <pt x="671" y="294" on="1"/>
        <pt x="719" y="295" on="0"/>
        <pt x="813" y="295" on="0"/>
      </contour>
    </TTGlyph>
    <TTGlyph name="Aring" xMin="45" yMin="0" xMax="1034" yMax="765">
      <contour>
        <pt x="989" y="753" on="1"/>
        <pt x="973" y="753" on="0"/>
        <pt x="956" y="732" on="0"/>
        <pt x="956" y="714" on="1"/>
        <pt x="956" y="700" on="0"/>
        <pt x="970" y="682" on="0"/>
        <pt x="986" y="682" on="1"/>
        <pt x="1001" y="682" on="0"/>
        <pt x="1018" y="704" on="0"/>
        <pt x="1018" y="722" on="1"/>
        <pt x="1018" y="753" on="0"/>
      </contour>
      <contour>
        <pt x="973" y="670" on="1"/>
        <pt x="957" y="670" on="0"/>
        <pt x="940" y="691" on="0"/>
        <pt x="940" y="706" on="1"/>
        <pt x="940" y="729" on="0"/>
        <pt x="975" y="765" on="0"/>
        <pt x="1001" y="765" on="1"/>
        <pt x="1018" y="765" on="0"/>
        <pt x="1034" y="745" on="0"/>
        <pt x="1034" y="730" on="1"/>
        <pt x="1034" y="707" on="0"/>
        <pt x="1000" y="670" on="0"/>
      </contour>
      <contour>
        <pt x="1004" y="585" on="1"/>
        <pt x="1006" y="583" on="0"/>
        <pt x="1006" y="576" on="0"/>
        <pt x="1001" y="570" on="1"/>
        <pt x="968" y="534" on="0"/>
        <pt x="916" y="441" on="0"/>
        <pt x="879" y="331" on="0"/>
        <pt x="859" y="209" on="0"/>
        <pt x="859" y="145" on="1"/>
        <pt x="859" y="97" on="0"/>
        <pt x="883" y="44" on="0"/>
        <pt x="912" y="44" on="1"/>
        <pt x="951" y="44" on="0"/>
        <pt x="988" y="100" on="1"/>
        <pt x="991" y="102" on="0"/>
        <pt x="997" y="98" on="0"/>
        <pt x="995" y="94" on="1"/>
        <pt x="985" y="77" on="0"/>
        <pt x="958" y="44" on="0"/>
        <pt x="928" y="17" on="0"/>
        <pt x="899" y="0" on="0"/>
        <pt x="887" y="0" on="1"/>
        <pt x="854" y="0" on="0"/>
        <pt x="819" y="67" on="0"/>
        <pt x="819" y="119" on="1"/>
        <pt x="819" y="199" on="0"/>
        <pt x="837" y="282" on="1"/>
        <pt x="790" y="282" on="0"/>
        <pt x="699" y="280" on="0"/>
        <pt x="655" y="278" on="1"/>
        <pt x="622" y="243" on="0"/>
        <pt x="561" y="181" on="0"/>
        <pt x="532" y="155" on="1"/>
        <pt x="452" y="82" on="0"/>
        <pt x="283" y="0" on="0"/>
        <pt x="182" y="0" on="1"/>
        <pt x="131" y="0" on="0"/>
        <pt x="68" y="49" on="0"/>
        <pt x="45" y="123" on="0"/>
        <pt x="64" y="212" on="0"/>
        <pt x="97" y="251" on="1"/>
        <pt x="100" y="253" on="0"/>
        <pt x="108" y="248" on="0"/>
        <pt x="107" y="241" on="1"/>
        <pt x="83" y="215" on="0"/>
        <pt x="74" y="147" on="0"/>
        <pt x="104" y="85" on="0"/>
        <pt x="176" y="43" on="0"/>
        <pt x="234" y="43" on="1"/>
        <pt x="310" y="43" on="0"/>
        <pt x="465" y="115" on="0"/>
        <pt x="534" y="180" on="1"/>
        <pt x="556" y="200" on="0"/>
        <pt x="603" y="249" on="0"/>
        <pt x="629" y="277" on="1"/>
        <pt x="560" y="272" on="0"/>
        <pt x="505" y="265" on="1"/>
        <pt x="500" y="266" on="0"/>
        <pt x="506" y="274" on="0"/>
        <pt x="519" y="283" on="0"/>
        <pt x="536" y="290" on="0"/>
        <pt x="544" y="291" on="1"/>
        <pt x="556" y="292" on="0"/>
        <pt x="611" y="293" on="0"/>
        <pt x="646" y="294" on="1"/>
        <pt x="703" y="354" on="0"/>
        <pt x="844" y="492" on="0"/>
        <pt x="937" y="565" on="1"/>
        <pt x="870" y="587" on="0"/>
        <pt x="727" y="616" on="0"/>
        <pt x="661" y="616" on="1"/>
        <pt x="586" y="616" on="0"/>
        <pt x="487" y="529" on="0"/>
        <pt x="475" y="440" on="1"/>
        <pt x="473" y="435" on="0"/>
        <pt x="466" y="437" on="0"/>
        <pt x="465" y="442" on="1"/>
        <pt x="477" y="540" on="0"/>
        <pt x="599" y="644" on="0"/>
        <pt x="696" y="644" on="1"/>
        <pt x="737" y="644" on="0"/>
        <pt x="821" y="633" on="0"/>
        <pt x="901" y="616" on="0"/>
        <pt x="974" y="595" on="0"/>
      </contour>
      <contour>
        <pt x="840" y="295" on="1"/>
        <pt x="857" y="368" on="0"/>
        <pt x="917" y="507" on="0"/>
        <pt x="959" y="564" on="1"/>
        <pt x="871" y="493" on="0"/>
        <pt x="731" y="356" on="0"/>
        <pt x="671" y="294" on="1"/>
        <pt x="719" y="295" on="0"/>
        <pt x="813" y="295" on="0"/>
      </contour>
    </TTGlyph>
    <TTGlyph name="Atilde" xMin="45" yMin="0" xMax="1088" yMax="730">
      <contour>
        <pt x="870" y="673" on="1"/>
        <pt x="881" y="689" on="0"/>
        <pt x="918" y="719" on="0"/>
        <pt x="935" y="719" on="1"/>
        <pt x="947" y="719" on="0"/>
        <pt x="966" y="708" on="0"/>
        <pt x="987" y="695" on="0"/>
        <pt x="1012" y="684" on="0"/>
        <pt x="1028" y="684" on="1"/>
        <pt x="1046" y="684" on="0"/>
        <pt x="1069" y="707" on="0"/>
        <pt x="1079" y="728" on="1"/>
        <pt x="1081" y="730" on="0"/>
        <pt x="1088" y="727" on="0"/>
        <pt x="1087" y="724" on="1"/>
        <pt x="1075" y="697" on="0"/>
        <pt x="1041" y="665" on="0"/>
        <pt x="1011" y="665" on="1"/>
        <pt x="997" y="665" on="0"/>
        <pt x="974" y="675" on="0"/>
        <pt x="953" y="688" on="0"/>
        <pt x="933" y="698" on="0"/>
        <pt x="923" y="698" on="1"/>
        <pt x="910" y="698" on="0"/>
        <pt x="888" y="681" on="0"/>
        <pt x="877" y="667" on="1"/>
        <pt x="873" y="665" on="0"/>
        <pt x="868" y="670" on="0"/>
      </contour>
      <contour>
        <pt x="1004" y="585" on="1"/>
        <pt x="1006" y="583" on="0"/>
        <pt x="1006" y="576" on="0"/>
        <pt x="1001" y="570" on="1"/>
        <pt x="968" y="534" on="0"/>
        <pt x="916" y="441" on="0"/>
        <pt x="879" y="331" on="0"/>
        <pt x="859" y="209" on="0"/>
        <pt x="859" y="145" on="1"/>
        <pt x="859" y="97" on="0"/>
        <pt x="883" y="44" on="0"/>
        <pt x="912" y="44" on="1"/>
        <pt x="951" y="44" on="0"/>
        <pt x="988" y="100" on="1"/>
        <pt x="991" y="102" on="0"/>
        <pt x="997" y="98" on="0"/>
        <pt x="995" y="94" on="1"/>
        <pt x="985" y="77" on="0"/>
        <pt x="958" y="44" on="0"/>
        <pt x="928" y="17" on="0"/>
        <pt x="899" y="0" on="0"/>
        <pt x="887" y="0" on="1"/>
        <pt x="854" y="0" on="0"/>
        <pt x="819" y="67" on="0"/>
        <pt x="819" y="119" on="1"/>
        <pt x="819" y="199" on="0"/>
        <pt x="837" y="282" on="1"/>
        <pt x="790" y="282" on="0"/>
        <pt x="699" y="280" on="0"/>
        <pt x="655" y="278" on="1"/>
        <pt x="622" y="243" on="0"/>
        <pt x="561" y="181" on="0"/>
        <pt x="532" y="155" on="1"/>
        <pt x="452" y="82" on="0"/>
        <pt x="283" y="0" on="0"/>
        <pt x="182" y="0" on="1"/>
        <pt x="131" y="0" on="0"/>
        <pt x="68" y="49" on="0"/>
        <pt x="45" y="123" on="0"/>
        <pt x="64" y="212" on="0"/>
        <pt x="97" y="251" on="1"/>
        <pt x="100" y="253" on="0"/>
        <pt x="108" y="248" on="0"/>
        <pt x="107" y="241" on="1"/>
        <pt x="83" y="215" on="0"/>
        <pt x="74" y="147" on="0"/>
        <pt x="104" y="85" on="0"/>
        <pt x="176" y="43" on="0"/>
        <pt x="234" y="43" on="1"/>
        <pt x="310" y="43" on="0"/>
        <pt x="465" y="115" on="0"/>
        <pt x="534" y="180" on="1"/>
        <pt x="556" y="200" on="0"/>
        <pt x="603" y="249" on="0"/>
        <pt x="629" y="277" on="1"/>
        <pt x="560" y="272" on="0"/>
        <pt x="505" y="265" on="1"/>
        <pt x="500" y="266" on="0"/>
        <pt x="506" y="274" on="0"/>
        <pt x="519" y="283" on="0"/>
        <pt x="536" y="290" on="0"/>
        <pt x="544" y="291" on="1"/>
        <pt x="556" y="292" on="0"/>
        <pt x="611" y="293" on="0"/>
        <pt x="646" y="294" on="1"/>
        <pt x="703" y="354" on="0"/>
        <pt x="844" y="492" on="0"/>
        <pt x="937" y="565" on="1"/>
        <pt x="870" y="587" on="0"/>
        <pt x="727" y="616" on="0"/>
        <pt x="661" y="616" on="1"/>
        <pt x="586" y="616" on="0"/>
        <pt x="487" y="529" on="0"/>
        <pt x="475" y="440" on="1"/>
        <pt x="473" y="435" on="0"/>
        <pt x="466" y="437" on="0"/>
        <pt x="465" y="442" on="1"/>
        <pt x="477" y="540" on="0"/>
        <pt x="599" y="644" on="0"/>
        <pt x="696" y="644" on="1"/>
        <pt x="737" y="644" on="0"/>
        <pt x="821" y="633" on="0"/>
        <pt x="901" y="616" on="0"/>
        <pt x="974" y="595" on="0"/>
      </contour>
      <contour>
        <pt x="840" y="295" on="1"/>
        <pt x="857" y="368" on="0"/>
        <pt x="917" y="507" on="0"/>
        <pt x="959" y="564" on="1"/>
        <pt x="871" y="493" on="0"/>
        <pt x="731" y="356" on="0"/>
        <pt x="671" y="294" on="1"/>
        <pt x="719" y="295" on="0"/>
        <pt x="813" y="295" on="0"/>
      </contour>
    </TTGlyph>
    <TTGlyph name="B" xMin="28" yMin="0" xMax="654" yMax="680">
      <contour>
        <pt x="519" y="364" on="1"/>
        <pt x="576" y="338" on="0"/>
        <pt x="628" y="246" on="0"/>
        <pt x="628" y="197" on="1"/>
        <pt x="628" y="106" on="0"/>
        <pt x="499" y="0" on="0"/>
        <pt x="371" y="0" on="1"/>
        <pt x="268" y="0" on="0"/>
        <pt x="101" y="68" on="0"/>
        <pt x="31" y="127" on="1"/>
        <pt x="28" y="131" on="0"/>
        <pt x="38" y="140" on="0"/>
        <pt x="53" y="147" on="0"/>
        <pt x="71" y="150" on="0"/>
        <pt x="77" y="147" on="1"/>
        <pt x="96" y="127" on="0"/>
        <pt x="135" y="116" on="0"/>
        <pt x="162" y="121" on="1"/>
        <pt x="188" y="126" on="0"/>
        <pt x="229" y="156" on="0"/>
        <pt x="266" y="218" on="0"/>
        <pt x="303" y="318" on="0"/>
        <pt x="324" y="394" on="1"/>
        <pt x="345" y="468" on="0"/>
        <pt x="404" y="580" on="0"/>
        <pt x="446" y="618" on="1"/>
        <pt x="437" y="620" on="0"/>
        <pt x="419" y="620" on="0"/>
        <pt x="408" y="620" on="1"/>
        <pt x="375" y="620" on="0"/>
        <pt x="310" y="601" on="0"/>
        <pt x="252" y="565" on="0"/>
        <pt x="206" y="513" on="0"/>
        <pt x="191" y="480" on="1"/>
        <pt x="189" y="478" on="0"/>
        <pt x="184" y="481" on="0"/>
        <pt x="185" y="485" on="1"/>
        <pt x="197" y="516" on="0"/>
        <pt x="246" y="574" on="0"/>
        <pt x="314" y="618" on="0"/>
        <pt x="399" y="644" on="0"/>
        <pt x="448" y="644" on="1"/>
        <pt x="456" y="644" on="0"/>
        <pt x="471" y="644" on="0"/>
        <pt x="479" y="643" on="1"/>
        <pt x="515" y="668" on="0"/>
        <pt x="565" y="680" on="1"/>
        <pt x="570" y="680" on="0"/>
        <pt x="570" y="674" on="0"/>
        <pt x="565" y="672" on="1"/>
        <pt x="548" y="667" on="0"/>
        <pt x="514" y="652" on="0"/>
        <pt x="499" y="641" on="1"/>
        <pt x="539" y="635" on="0"/>
        <pt x="598" y="608" on="0"/>
        <pt x="636" y="569" on="0"/>
        <pt x="654" y="524" on="0"/>
        <pt x="654" y="500" on="1"/>
        <pt x="654" y="470" on="0"/>
        <pt x="631" y="420" on="0"/>
        <pt x="593" y="384" on="0"/>
        <pt x="544" y="364" on="0"/>
      </contour>
      <contour>
        <pt x="394" y="15" on="1"/>
        <pt x="439" y="15" on="0"/>
        <pt x="510" y="40" on="0"/>
        <pt x="559" y="83" on="0"/>
        <pt x="584" y="141" on="0"/>
        <pt x="584" y="175" on="1"/>
        <pt x="584" y="320" on="0"/>
        <pt x="433" y="360" on="1"/>
        <pt x="430" y="363" on="0"/>
        <pt x="438" y="373" on="0"/>
        <pt x="452" y="381" on="0"/>
        <pt x="470" y="385" on="0"/>
        <pt x="476" y="384" on="1"/>
        <pt x="485" y="380" on="0"/>
        <pt x="500" y="377" on="0"/>
        <pt x="512" y="377" on="1"/>
        <pt x="530" y="377" on="0"/>
        <pt x="565" y="392" on="0"/>
        <pt x="592" y="420" on="0"/>
        <pt x="609" y="457" on="0"/>
        <pt x="609" y="480" on="1"/>
        <pt x="609" y="528" on="0"/>
        <pt x="540" y="603" on="0"/>
        <pt x="468" y="616" on="1"/>
        <pt x="435" y="582" on="0"/>
        <pt x="383" y="482" on="0"/>
        <pt x="365" y="412" on="1"/>
        <pt x="339" y="317" on="0"/>
        <pt x="284" y="198" on="0"/>
        <pt x="226" y="130" on="0"/>
        <pt x="164" y="104" on="0"/>
        <pt x="132" y="103" on="1"/>
        <pt x="183" y="65" on="0"/>
        <pt x="319" y="15" on="0"/>
      </contour>
    </TTGlyph>
    <TTGlyph name="C" xMin="69" yMin="0" xMax="630" yMax="644">
      <contour>
        <pt x="466" y="644" on="1"/>
        <pt x="502" y="644" on="0"/>
        <pt x="562" y="637" on="0"/>
        <pt x="605" y="623" on="0"/>
        <pt x="630" y="604" on="0"/>
        <pt x="630" y="592" on="1"/>
        <pt x="630" y="584" on="0"/>
        <pt x="623" y="561" on="0"/>
        <pt x="613" y="537" on="0"/>
        <pt x="600" y="513" on="0"/>
        <pt x="594" y="505" on="1"/>
        <pt x="591" y="503" on="0"/>
        <pt x="584" y="508" on="0"/>
        <pt x="586" y="512" on="1"/>
        <pt x="607" y="549" on="0"/>
        <pt x="595" y="569" on="1"/>
        <pt x="581" y="592" on="0"/>
        <pt x="497" y="625" on="0"/>
        <pt x="442" y="625" on="1"/>
        <pt x="370" y="625" on="0"/>
        <pt x="252" y="574" on="0"/>
        <pt x="167" y="481" on="0"/>
        <pt x="120" y="353" on="0"/>
        <pt x="120" y="276" on="1"/>
        <pt x="120" y="220" on="0"/>
        <pt x="150" y="125" on="0"/>
        <pt x="208" y="56" on="0"/>
        <pt x="292" y="17" on="0"/>
        <pt x="346" y="17" on="1"/>
        <pt x="418" y="17" on="0"/>
        <pt x="514" y="106" on="0"/>
        <pt x="534" y="180" on="1"/>
        <pt x="536" y="185" on="0"/>
        <pt x="545" y="183" on="0"/>
        <pt x="545" y="178" on="1"/>
        <pt x="541" y="157" on="0"/>
        <pt x="525" y="106" on="0"/>
        <pt x="507" y="61" on="0"/>
        <pt x="490" y="28" on="0"/>
        <pt x="484" y="26" on="1"/>
        <pt x="452" y="14" on="0"/>
        <pt x="374" y="0" on="0"/>
        <pt x="330" y="0" on="1"/>
        <pt x="269" y="0" on="0"/>
        <pt x="172" y="37" on="0"/>
        <pt x="105" y="103" on="0"/>
        <pt x="69" y="193" on="0"/>
        <pt x="69" y="245" on="1"/>
        <pt x="69" y="325" on="0"/>
        <pt x="127" y="470" on="0"/>
        <pt x="232" y="579" on="0"/>
        <pt x="378" y="644" on="0"/>
      </contour>
    </TTGlyph>
    <TTGlyph name="Ccedilla" xMin="69" yMin="-120" xMax="629" yMax="644">
      <contour>
        <pt x="629" y="591" on="1"/>
        <pt x="629" y="583" on="0"/>
        <pt x="623" y="560" on="0"/>
        <pt x="612" y="536" on="0"/>
        <pt x="600" y="513" on="0"/>
        <pt x="594" y="505" on="1"/>
        <pt x="591" y="503" on="0"/>
        <pt x="584" y="507" on="0"/>
        <pt x="585" y="512" on="1"/>
        <pt x="606" y="549" on="0"/>
        <pt x="594" y="569" on="1"/>
        <pt x="580" y="591" on="0"/>
        <pt x="496" y="625" on="0"/>
        <pt x="442" y="625" on="1"/>
        <pt x="370" y="625" on="0"/>
        <pt x="252" y="574" on="0"/>
        <pt x="167" y="481" on="0"/>
        <pt x="120" y="353" on="0"/>
        <pt x="120" y="276" on="1"/>
        <pt x="120" y="220" on="0"/>
        <pt x="150" y="125" on="0"/>
        <pt x="207" y="56" on="0"/>
        <pt x="291" y="17" on="0"/>
        <pt x="345" y="17" on="1"/>
        <pt x="417" y="17" on="0"/>
        <pt x="513" y="106" on="0"/>
        <pt x="533" y="180" on="1"/>
        <pt x="536" y="185" on="0"/>
        <pt x="544" y="182" on="0"/>
        <pt x="544" y="177" on="1"/>
        <pt x="540" y="156" on="0"/>
        <pt x="525" y="106" on="0"/>
        <pt x="507" y="61" on="0"/>
        <pt x="489" y="28" on="0"/>
        <pt x="483" y="26" on="1"/>
        <pt x="423" y="2" on="0"/>
        <pt x="341" y="0" on="1"/>
        <pt x="333" y="-6" on="0"/>
        <pt x="327" y="-25" on="0"/>
        <pt x="330" y="-33" on="1"/>
        <pt x="339" y="-56" on="0"/>
        <pt x="311" y="-106" on="0"/>
        <pt x="276" y="-120" on="1"/>
        <pt x="273" y="-119" on="0"/>
        <pt x="272" y="-112" on="0"/>
        <pt x="274" y="-110" on="1"/>
        <pt x="300" y="-98" on="0"/>
        <pt x="315" y="-69" on="0"/>
        <pt x="309" y="-49" on="1"/>
        <pt x="305" y="-37" on="0"/>
        <pt x="315" y="-8" on="0"/>
        <pt x="328" y="0" on="1"/>
        <pt x="267" y="0" on="0"/>
        <pt x="171" y="38" on="0"/>
        <pt x="104" y="104" on="0"/>
        <pt x="69" y="193" on="0"/>
        <pt x="69" y="245" on="1"/>
        <pt x="69" y="324" on="0"/>
        <pt x="127" y="469" on="0"/>
        <pt x="232" y="579" on="0"/>
        <pt x="378" y="644" on="0"/>
        <pt x="466" y="644" on="1"/>
        <pt x="502" y="644" on="0"/>
        <pt x="561" y="637" on="0"/>
        <pt x="605" y="623" on="0"/>
        <pt x="629" y="603" on="0"/>
      </contour>
    </TTGlyph>
    <TTGlyph name="D" xMin="30" yMin="0" xMax="794" yMax="661">
      <contour>
        <pt x="583" y="591" on="1"/>
        <pt x="632" y="562" on="0"/>
        <pt x="710" y="481" on="0"/>
        <pt x="765" y="391" on="0"/>
        <pt x="794" y="298" on="0"/>
        <pt x="794" y="256" on="1"/>
        <pt x="794" y="200" on="0"/>
        <pt x="758" y="107" on="0"/>
        <pt x="688" y="38" on="0"/>
        <pt x="586" y="0" on="0"/>
        <pt x="521" y="0" on="1"/>
        <pt x="483" y="0" on="0"/>
        <pt x="417" y="10" on="0"/>
        <pt x="358" y="25" on="0"/>
        <pt x="304" y="43" on="0"/>
        <pt x="277" y="52" on="1"/>
        <pt x="238" y="25" on="0"/>
        <pt x="145" y="0" on="0"/>
        <pt x="88" y="0" on="1"/>
        <pt x="56" y="0" on="0"/>
        <pt x="30" y="15" on="0"/>
        <pt x="30" y="28" on="1"/>
        <pt x="30" y="41" on="0"/>
        <pt x="48" y="70" on="0"/>
        <pt x="80" y="94" on="0"/>
        <pt x="126" y="109" on="0"/>
        <pt x="155" y="109" on="1"/>
        <pt x="193" y="109" on="0"/>
        <pt x="259" y="95" on="0"/>
        <pt x="290" y="85" on="1"/>
        <pt x="327" y="124" on="0"/>
        <pt x="391" y="262" on="0"/>
        <pt x="427" y="373" on="1"/>
        <pt x="448" y="437" on="0"/>
        <pt x="498" y="537" on="0"/>
        <pt x="530" y="572" on="1"/>
        <pt x="491" y="592" on="0"/>
        <pt x="403" y="616" on="0"/>
        <pt x="355" y="616" on="1"/>
        <pt x="316" y="616" on="0"/>
        <pt x="251" y="591" on="0"/>
        <pt x="201" y="546" on="0"/>
        <pt x="169" y="484" on="0"/>
        <pt x="163" y="446" on="1"/>
        <pt x="157" y="440" on="0"/>
        <pt x="155" y="450" on="1"/>
        <pt x="159" y="492" on="0"/>
        <pt x="195" y="563" on="0"/>
        <pt x="256" y="615" on="0"/>
        <pt x="341" y="644" on="0"/>
        <pt x="394" y="644" on="1"/>
        <pt x="440" y="644" on="0"/>
        <pt x="524" y="622" on="0"/>
        <pt x="562" y="602" on="1"/>
        <pt x="616" y="646" on="0"/>
        <pt x="690" y="661" on="1"/>
        <pt x="693" y="661" on="0"/>
        <pt x="694" y="654" on="0"/>
        <pt x="691" y="652" on="1"/>
        <pt x="659" y="644" on="0"/>
        <pt x="606" y="613" on="0"/>
      </contour>
      <contour>
        <pt x="122" y="18" on="1"/>
        <pt x="164" y="18" on="0"/>
        <pt x="231" y="35" on="0"/>
        <pt x="260" y="57" on="1"/>
        <pt x="227" y="67" on="0"/>
        <pt x="157" y="81" on="0"/>
        <pt x="115" y="81" on="1"/>
        <pt x="88" y="81" on="0"/>
        <pt x="62" y="63" on="0"/>
        <pt x="60" y="50" on="1"/>
        <pt x="58" y="36" on="0"/>
        <pt x="84" y="18" on="0"/>
      </contour>
      <contour>
        <pt x="566" y="27" on="1"/>
        <pt x="661" y="27" on="0"/>
        <pt x="756" y="134" on="0"/>
        <pt x="756" y="224" on="1"/>
        <pt x="756" y="271" on="0"/>
        <pt x="728" y="366" on="0"/>
        <pt x="675" y="455" on="0"/>
        <pt x="601" y="531" on="0"/>
        <pt x="555" y="559" on="1"/>
        <pt x="529" y="527" on="0"/>
        <pt x="489" y="444" on="0"/>
        <pt x="472" y="393" on="1"/>
        <pt x="435" y="278" on="0"/>
        <pt x="358" y="125" on="0"/>
        <pt x="309" y="78" on="1"/>
        <pt x="334" y="69" on="0"/>
        <pt x="388" y="51" on="0"/>
        <pt x="449" y="36" on="0"/>
        <pt x="522" y="27" on="0"/>
      </contour>
    </TTGlyph>
    <TTGlyph name="E" xMin="60" yMin="0" xMax="546" yMax="644">
      <contour>
        <pt x="269" y="523" on="1"/>
        <pt x="269" y="488" on="0"/>
        <pt x="316" y="439" on="0"/>
        <pt x="373" y="422" on="1"/>
        <pt x="376" y="420" on="0"/>
        <pt x="371" y="411" on="0"/>
        <pt x="361" y="401" on="0"/>
        <pt x="348" y="393" on="0"/>
        <pt x="344" y="392" on="1"/>
        <pt x="232" y="397" on="0"/>
        <pt x="108" y="290" on="0"/>
        <pt x="108" y="182" on="1"/>
        <pt x="108" y="147" on="0"/>
        <pt x="129" y="87" on="0"/>
        <pt x="168" y="43" on="0"/>
        <pt x="223" y="18" on="0"/>
        <pt x="258" y="18" on="1"/>
        <pt x="340" y="18" on="0"/>
        <pt x="444" y="94" on="0"/>
        <pt x="467" y="179" on="1"/>
        <pt x="470" y="184" on="0"/>
        <pt x="477" y="180" on="0"/>
        <pt x="478" y="174" on="1"/>
        <pt x="466" y="118" on="0"/>
        <pt x="433" y="44" on="0"/>
        <pt x="419" y="38" on="1"/>
        <pt x="384" y="22" on="0"/>
        <pt x="285" y="0" on="0"/>
        <pt x="234" y="0" on="1"/>
        <pt x="192" y="0" on="0"/>
        <pt x="127" y="26" on="0"/>
        <pt x="83" y="70" on="0"/>
        <pt x="60" y="127" on="0"/>
        <pt x="60" y="158" on="1"/>
        <pt x="60" y="206" on="0"/>
        <pt x="95" y="291" on="0"/>
        <pt x="158" y="357" on="0"/>
        <pt x="245" y="403" on="0"/>
        <pt x="297" y="412" on="1"/>
        <pt x="265" y="429" on="0"/>
        <pt x="229" y="475" on="0"/>
        <pt x="229" y="502" on="1"/>
        <pt x="229" y="530" on="0"/>
        <pt x="258" y="581" on="0"/>
        <pt x="309" y="620" on="0"/>
        <pt x="378" y="644" on="0"/>
        <pt x="419" y="644" on="1"/>
        <pt x="443" y="644" on="0"/>
        <pt x="489" y="635" on="0"/>
        <pt x="525" y="620" on="0"/>
        <pt x="546" y="601" on="0"/>
        <pt x="546" y="591" on="1"/>
        <pt x="546" y="583" on="0"/>
        <pt x="539" y="562" on="0"/>
        <pt x="530" y="540" on="0"/>
        <pt x="519" y="521" on="0"/>
        <pt x="516" y="517" on="1"/>
        <pt x="514" y="515" on="0"/>
        <pt x="507" y="518" on="0"/>
        <pt x="508" y="522" on="1"/>
        <pt x="514" y="533" on="0"/>
        <pt x="520" y="560" on="0"/>
        <pt x="512" y="573" on="1"/>
        <pt x="501" y="591" on="0"/>
        <pt x="439" y="627" on="0"/>
        <pt x="399" y="627" on="1"/>
        <pt x="366" y="627" on="0"/>
        <pt x="318" y="609" on="0"/>
        <pt x="285" y="579" on="0"/>
        <pt x="269" y="542" on="0"/>
      </contour>
    </TTGlyph>
    <TTGlyph name="Eacute" xMin="29" yMin="0" xMax="515" yMax="737">
      <contour>
        <pt x="432" y="734" on="1"/>
        <pt x="437" y="737" on="0"/>
        <pt x="464" y="728" on="0"/>
        <pt x="473" y="724" on="1"/>
        <pt x="475" y="722" on="0"/>
        <pt x="477" y="717" on="0"/>
        <pt x="474" y="715" on="1"/>
        <pt x="464" y="708" on="0"/>
        <pt x="433" y="692" on="0"/>
        <pt x="398" y="677" on="0"/>
        <pt x="361" y="663" on="0"/>
        <pt x="346" y="658" on="1"/>
        <pt x="342" y="658" on="0"/>
        <pt x="342" y="666" on="0"/>
        <pt x="345" y="669" on="1"/>
        <pt x="365" y="681" on="0"/>
        <pt x="413" y="714" on="0"/>
      </contour>
      <contour>
        <pt x="238" y="523" on="1"/>
        <pt x="238" y="488" on="0"/>
        <pt x="285" y="439" on="0"/>
        <pt x="342" y="422" on="1"/>
        <pt x="345" y="420" on="0"/>
        <pt x="340" y="411" on="0"/>
        <pt x="330" y="401" on="0"/>
        <pt x="317" y="393" on="0"/>
        <pt x="313" y="392" on="1"/>
        <pt x="201" y="397" on="0"/>
        <pt x="77" y="290" on="0"/>
        <pt x="77" y="182" on="1"/>
        <pt x="77" y="147" on="0"/>
        <pt x="98" y="87" on="0"/>
        <pt x="137" y="43" on="0"/>
        <pt x="192" y="18" on="0"/>
        <pt x="227" y="18" on="1"/>
        <pt x="309" y="18" on="0"/>
        <pt x="413" y="94" on="0"/>
        <pt x="436" y="179" on="1"/>
        <pt x="439" y="184" on="0"/>
        <pt x="446" y="180" on="0"/>
        <pt x="447" y="174" on="1"/>
        <pt x="435" y="118" on="0"/>
        <pt x="402" y="44" on="0"/>
        <pt x="388" y="38" on="1"/>
        <pt x="353" y="22" on="0"/>
        <pt x="254" y="0" on="0"/>
        <pt x="203" y="0" on="1"/>
        <pt x="161" y="0" on="0"/>
        <pt x="96" y="26" on="0"/>
        <pt x="52" y="70" on="0"/>
        <pt x="29" y="127" on="0"/>
        <pt x="29" y="158" on="1"/>
        <pt x="29" y="206" on="0"/>
        <pt x="64" y="291" on="0"/>
        <pt x="127" y="357" on="0"/>
        <pt x="214" y="403" on="0"/>
        <pt x="266" y="412" on="1"/>
        <pt x="234" y="429" on="0"/>
        <pt x="198" y="475" on="0"/>
        <pt x="198" y="502" on="1"/>
        <pt x="198" y="530" on="0"/>
        <pt x="227" y="581" on="0"/>
        <pt x="278" y="620" on="0"/>
        <pt x="347" y="644" on="0"/>
        <pt x="388" y="644" on="1"/>
        <pt x="412" y="644" on="0"/>
        <pt x="458" y="635" on="0"/>
        <pt x="494" y="620" on="0"/>
        <pt x="515" y="601" on="0"/>
        <pt x="515" y="591" on="1"/>
        <pt x="515" y="583" on="0"/>
        <pt x="508" y="562" on="0"/>
        <pt x="499" y="540" on="0"/>
        <pt x="488" y="521" on="0"/>
        <pt x="485" y="517" on="1"/>
        <pt x="483" y="515" on="0"/>
        <pt x="476" y="518" on="0"/>
        <pt x="477" y="522" on="1"/>
        <pt x="483" y="533" on="0"/>
        <pt x="489" y="560" on="0"/>
        <pt x="481" y="573" on="1"/>
        <pt x="470" y="591" on="0"/>
        <pt x="408" y="627" on="0"/>
        <pt x="368" y="627" on="1"/>
        <pt x="335" y="627" on="0"/>
        <pt x="287" y="609" on="0"/>
        <pt x="254" y="579" on="0"/>
        <pt x="238" y="542" on="0"/>
      </contour>
    </TTGlyph>
    <TTGlyph name="Ecircumflex" xMin="29" yMin="0" xMax="515" yMax="751">
      <contour>
        <pt x="391" y="746" on="1"/>
        <pt x="396" y="751" on="0"/>
        <pt x="403" y="745" on="1"/>
        <pt x="416" y="728" on="0"/>
        <pt x="457" y="693" on="0"/>
        <pt x="477" y="684" on="1"/>
        <pt x="482" y="679" on="0"/>
        <pt x="463" y="669" on="0"/>
        <pt x="451" y="671" on="1"/>
        <pt x="432" y="679" on="0"/>
        <pt x="401" y="702" on="0"/>
        <pt x="385" y="715" on="1"/>
        <pt x="379" y="710" on="0"/>
        <pt x="359" y="698" on="0"/>
        <pt x="338" y="685" on="0"/>
        <pt x="317" y="673" on="0"/>
        <pt x="310" y="670" on="1"/>
        <pt x="300" y="670" on="0"/>
        <pt x="305" y="679" on="1"/>
        <pt x="322" y="689" on="0"/>
        <pt x="375" y="727" on="0"/>
      </contour>
      <contour>
        <pt x="238" y="523" on="1"/>
        <pt x="238" y="488" on="0"/>
        <pt x="285" y="439" on="0"/>
        <pt x="342" y="422" on="1"/>
        <pt x="345" y="420" on="0"/>
        <pt x="340" y="411" on="0"/>
        <pt x="330" y="401" on="0"/>
        <pt x="317" y="393" on="0"/>
        <pt x="313" y="392" on="1"/>
        <pt x="201" y="397" on="0"/>
        <pt x="77" y="290" on="0"/>
        <pt x="77" y="182" on="1"/>
        <pt x="77" y="147" on="0"/>
        <pt x="98" y="87" on="0"/>
        <pt x="137" y="43" on="0"/>
        <pt x="192" y="18" on="0"/>
        <pt x="227" y="18" on="1"/>
        <pt x="309" y="18" on="0"/>
        <pt x="413" y="94" on="0"/>
        <pt x="436" y="179" on="1"/>
        <pt x="439" y="184" on="0"/>
        <pt x="446" y="180" on="0"/>
        <pt x="447" y="174" on="1"/>
        <pt x="435" y="118" on="0"/>
        <pt x="402" y="44" on="0"/>
        <pt x="388" y="38" on="1"/>
        <pt x="353" y="22" on="0"/>
        <pt x="254" y="0" on="0"/>
        <pt x="203" y="0" on="1"/>
        <pt x="161" y="0" on="0"/>
        <pt x="96" y="26" on="0"/>
        <pt x="52" y="70" on="0"/>
        <pt x="29" y="127" on="0"/>
        <pt x="29" y="158" on="1"/>
        <pt x="29" y="206" on="0"/>
        <pt x="64" y="291" on="0"/>
        <pt x="127" y="357" on="0"/>
        <pt x="214" y="403" on="0"/>
        <pt x="266" y="412" on="1"/>
        <pt x="234" y="429" on="0"/>
        <pt x="198" y="475" on="0"/>
        <pt x="198" y="502" on="1"/>
        <pt x="198" y="530" on="0"/>
        <pt x="227" y="581" on="0"/>
        <pt x="278" y="620" on="0"/>
        <pt x="347" y="644" on="0"/>
        <pt x="388" y="644" on="1"/>
        <pt x="412" y="644" on="0"/>
        <pt x="458" y="635" on="0"/>
        <pt x="494" y="620" on="0"/>
        <pt x="515" y="601" on="0"/>
        <pt x="515" y="591" on="1"/>
        <pt x="515" y="583" on="0"/>
        <pt x="508" y="562" on="0"/>
        <pt x="499" y="540" on="0"/>
        <pt x="488" y="521" on="0"/>
        <pt x="485" y="517" on="1"/>
        <pt x="483" y="515" on="0"/>
        <pt x="476" y="518" on="0"/>
        <pt x="477" y="522" on="1"/>
        <pt x="483" y="533" on="0"/>
        <pt x="489" y="560" on="0"/>
        <pt x="481" y="573" on="1"/>
        <pt x="470" y="591" on="0"/>
        <pt x="408" y="627" on="0"/>
        <pt x="368" y="627" on="1"/>
        <pt x="335" y="627" on="0"/>
        <pt x="287" y="609" on="0"/>
        <pt x="254" y="579" on="0"/>
        <pt x="238" y="542" on="0"/>
      </contour>
    </TTGlyph>
    <TTGlyph name="Edieresis" xMin="29" yMin="0" xMax="515" yMax="721">
      <contour>
        <pt x="361" y="667" on="1"/>
        <pt x="350" y="667" on="0"/>
        <pt x="350" y="684" on="1"/>
        <pt x="350" y="694" on="0"/>
        <pt x="370" y="721" on="0"/>
        <pt x="386" y="721" on="1"/>
        <pt x="395" y="721" on="0"/>
        <pt x="395" y="708" on="1"/>
        <pt x="395" y="694" on="0"/>
        <pt x="375" y="667" on="0"/>
      </contour>
      <contour>
        <pt x="438" y="667" on="1"/>
        <pt x="426" y="667" on="0"/>
        <pt x="426" y="684" on="1"/>
        <pt x="426" y="694" on="0"/>
        <pt x="446" y="721" on="0"/>
        <pt x="461" y="721" on="1"/>
        <pt x="470" y="721" on="0"/>
        <pt x="470" y="708" on="1"/>
        <pt x="470" y="694" on="0"/>
        <pt x="450" y="667" on="0"/>
      </contour>
      <contour>
        <pt x="238" y="523" on="1"/>
        <pt x="238" y="488" on="0"/>
        <pt x="285" y="439" on="0"/>
        <pt x="342" y="422" on="1"/>
        <pt x="345" y="420" on="0"/>
        <pt x="340" y="411" on="0"/>
        <pt x="330" y="401" on="0"/>
        <pt x="317" y="393" on="0"/>
        <pt x="313" y="392" on="1"/>
        <pt x="201" y="397" on="0"/>
        <pt x="77" y="290" on="0"/>
        <pt x="77" y="182" on="1"/>
        <pt x="77" y="147" on="0"/>
        <pt x="98" y="87" on="0"/>
        <pt x="137" y="43" on="0"/>
        <pt x="192" y="18" on="0"/>
        <pt x="227" y="18" on="1"/>
        <pt x="309" y="18" on="0"/>
        <pt x="413" y="94" on="0"/>
        <pt x="436" y="179" on="1"/>
        <pt x="439" y="184" on="0"/>
        <pt x="446" y="180" on="0"/>
        <pt x="447" y="174" on="1"/>
        <pt x="435" y="118" on="0"/>
        <pt x="402" y="44" on="0"/>
        <pt x="388" y="38" on="1"/>
        <pt x="353" y="22" on="0"/>
        <pt x="254" y="0" on="0"/>
        <pt x="203" y="0" on="1"/>
        <pt x="161" y="0" on="0"/>
        <pt x="96" y="26" on="0"/>
        <pt x="52" y="70" on="0"/>
        <pt x="29" y="127" on="0"/>
        <pt x="29" y="158" on="1"/>
        <pt x="29" y="206" on="0"/>
        <pt x="64" y="291" on="0"/>
        <pt x="127" y="357" on="0"/>
        <pt x="214" y="403" on="0"/>
        <pt x="266" y="412" on="1"/>
        <pt x="234" y="429" on="0"/>
        <pt x="198" y="475" on="0"/>
        <pt x="198" y="502" on="1"/>
        <pt x="198" y="530" on="0"/>
        <pt x="227" y="581" on="0"/>
        <pt x="278" y="620" on="0"/>
        <pt x="347" y="644" on="0"/>
        <pt x="388" y="644" on="1"/>
        <pt x="412" y="644" on="0"/>
        <pt x="458" y="635" on="0"/>
        <pt x="494" y="620" on="0"/>
        <pt x="515" y="601" on="0"/>
        <pt x="515" y="591" on="1"/>
        <pt x="515" y="583" on="0"/>
        <pt x="508" y="562" on="0"/>
        <pt x="499" y="540" on="0"/>
        <pt x="488" y="521" on="0"/>
        <pt x="485" y="517" on="1"/>
        <pt x="483" y="515" on="0"/>
        <pt x="476" y="518" on="0"/>
        <pt x="477" y="522" on="1"/>
        <pt x="483" y="533" on="0"/>
        <pt x="489" y="560" on="0"/>
        <pt x="481" y="573" on="1"/>
        <pt x="470" y="591" on="0"/>
        <pt x="408" y="627" on="0"/>
        <pt x="368" y="627" on="1"/>
        <pt x="335" y="627" on="0"/>
        <pt x="287" y="609" on="0"/>
        <pt x="254" y="579" on="0"/>
        <pt x="238" y="542" on="0"/>
      </contour>
    </TTGlyph>
    <TTGlyph name="Egrave" xMin="29" yMin="0" xMax="515" yMax="733">
      <contour>
        <pt x="469" y="669" on="1"/>
        <pt x="471" y="667" on="0"/>
        <pt x="466" y="660" on="0"/>
        <pt x="461" y="660" on="1"/>
        <pt x="449" y="663" on="0"/>
        <pt x="415" y="675" on="0"/>
        <pt x="381" y="689" on="0"/>
        <pt x="349" y="703" on="0"/>
        <pt x="338" y="709" on="1"/>
        <pt x="336" y="710" on="0"/>
        <pt x="336" y="715" on="0"/>
        <pt x="338" y="717" on="1"/>
        <pt x="348" y="725" on="0"/>
        <pt x="376" y="733" on="0"/>
        <pt x="378" y="731" on="1"/>
        <pt x="395" y="717" on="0"/>
        <pt x="442" y="684" on="0"/>
      </contour>
      <contour>
        <pt x="238" y="523" on="1"/>
        <pt x="238" y="488" on="0"/>
        <pt x="285" y="439" on="0"/>
        <pt x="342" y="422" on="1"/>
        <pt x="345" y="420" on="0"/>
        <pt x="340" y="411" on="0"/>
        <pt x="330" y="401" on="0"/>
        <pt x="317" y="393" on="0"/>
        <pt x="313" y="392" on="1"/>
        <pt x="201" y="397" on="0"/>
        <pt x="77" y="290" on="0"/>
        <pt x="77" y="182" on="1"/>
        <pt x="77" y="147" on="0"/>
        <pt x="98" y="87" on="0"/>
        <pt x="137" y="43" on="0"/>
        <pt x="192" y="18" on="0"/>
        <pt x="227" y="18" on="1"/>
        <pt x="309" y="18" on="0"/>
        <pt x="413" y="94" on="0"/>
        <pt x="436" y="179" on="1"/>
        <pt x="439" y="184" on="0"/>
        <pt x="446" y="180" on="0"/>
        <pt x="447" y="174" on="1"/>
        <pt x="435" y="118" on="0"/>
        <pt x="402" y="44" on="0"/>
        <pt x="388" y="38" on="1"/>
        <pt x="353" y="22" on="0"/>
        <pt x="254" y="0" on="0"/>
        <pt x="203" y="0" on="1"/>
        <pt x="161" y="0" on="0"/>
        <pt x="96" y="26" on="0"/>
        <pt x="52" y="70" on="0"/>
        <pt x="29" y="127" on="0"/>
        <pt x="29" y="158" on="1"/>
        <pt x="29" y="206" on="0"/>
        <pt x="64" y="291" on="0"/>
        <pt x="127" y="357" on="0"/>
        <pt x="214" y="403" on="0"/>
        <pt x="266" y="412" on="1"/>
        <pt x="234" y="429" on="0"/>
        <pt x="198" y="475" on="0"/>
        <pt x="198" y="502" on="1"/>
        <pt x="198" y="530" on="0"/>
        <pt x="227" y="581" on="0"/>
        <pt x="278" y="620" on="0"/>
        <pt x="347" y="644" on="0"/>
        <pt x="388" y="644" on="1"/>
        <pt x="412" y="644" on="0"/>
        <pt x="458" y="635" on="0"/>
        <pt x="494" y="620" on="0"/>
        <pt x="515" y="601" on="0"/>
        <pt x="515" y="591" on="1"/>
        <pt x="515" y="583" on="0"/>
        <pt x="508" y="562" on="0"/>
        <pt x="499" y="540" on="0"/>
        <pt x="488" y="521" on="0"/>
        <pt x="485" y="517" on="1"/>
        <pt x="483" y="515" on="0"/>
        <pt x="476" y="518" on="0"/>
        <pt x="477" y="522" on="1"/>
        <pt x="483" y="533" on="0"/>
        <pt x="489" y="560" on="0"/>
        <pt x="481" y="573" on="1"/>
        <pt x="470" y="591" on="0"/>
        <pt x="408" y="627" on="0"/>
        <pt x="368" y="627" on="1"/>
        <pt x="335" y="627" on="0"/>
        <pt x="287" y="609" on="0"/>
        <pt x="254" y="579" on="0"/>
        <pt x="238" y="542" on="0"/>
      </contour>
    </TTGlyph>
    <TTGlyph name="Eth" xMin="30" yMin="0" xMax="795" yMax="661">
      <contour>
        <pt x="583" y="591" on="1"/>
        <pt x="632" y="562" on="0"/>
        <pt x="711" y="481" on="0"/>
        <pt x="766" y="391" on="0"/>
        <pt x="795" y="298" on="0"/>
        <pt x="795" y="256" on="1"/>
        <pt x="795" y="200" on="0"/>
        <pt x="758" y="107" on="0"/>
        <pt x="688" y="38" on="0"/>
        <pt x="586" y="0" on="0"/>
        <pt x="521" y="0" on="1"/>
        <pt x="483" y="0" on="0"/>
        <pt x="418" y="10" on="0"/>
        <pt x="359" y="25" on="0"/>
        <pt x="304" y="43" on="0"/>
        <pt x="277" y="52" on="1"/>
        <pt x="239" y="25" on="0"/>
        <pt x="146" y="0" on="0"/>
        <pt x="88" y="0" on="1"/>
        <pt x="56" y="0" on="0"/>
        <pt x="30" y="15" on="0"/>
        <pt x="30" y="29" on="1"/>
        <pt x="30" y="42" on="0"/>
        <pt x="48" y="70" on="0"/>
        <pt x="81" y="94" on="0"/>
        <pt x="127" y="109" on="0"/>
        <pt x="156" y="109" on="1"/>
        <pt x="194" y="109" on="0"/>
        <pt x="259" y="95" on="0"/>
        <pt x="291" y="85" on="1"/>
        <pt x="320" y="115" on="0"/>
        <pt x="371" y="212" on="0"/>
        <pt x="397" y="284" on="1"/>
        <pt x="362" y="282" on="0"/>
        <pt x="301" y="276" on="0"/>
        <pt x="277" y="272" on="1"/>
        <pt x="273" y="274" on="0"/>
        <pt x="284" y="284" on="0"/>
        <pt x="295" y="289" on="1"/>
        <pt x="309" y="291" on="0"/>
        <pt x="367" y="296" on="0"/>
        <pt x="402" y="298" on="1"/>
        <pt x="408" y="315" on="0"/>
        <pt x="421" y="353" on="0"/>
        <pt x="427" y="373" on="1"/>
        <pt x="448" y="438" on="0"/>
        <pt x="498" y="537" on="0"/>
        <pt x="531" y="572" on="1"/>
        <pt x="492" y="592" on="0"/>
        <pt x="404" y="616" on="0"/>
        <pt x="356" y="616" on="1"/>
        <pt x="277" y="616" on="0"/>
        <pt x="175" y="522" on="0"/>
        <pt x="164" y="446" on="1"/>
        <pt x="162" y="444" on="0"/>
        <pt x="156" y="446" on="0"/>
        <pt x="156" y="450" on="1"/>
        <pt x="160" y="492" on="0"/>
        <pt x="196" y="563" on="0"/>
        <pt x="257" y="615" on="0"/>
        <pt x="341" y="644" on="0"/>
        <pt x="394" y="644" on="1"/>
        <pt x="441" y="644" on="0"/>
        <pt x="525" y="622" on="0"/>
        <pt x="563" y="603" on="1"/>
        <pt x="589" y="624" on="0"/>
        <pt x="652" y="653" on="0"/>
        <pt x="691" y="661" on="1"/>
        <pt x="694" y="661" on="0"/>
        <pt x="694" y="654" on="0"/>
        <pt x="691" y="652" on="1"/>
        <pt x="631" y="636" on="0"/>
      </contour>
      <contour>
        <pt x="123" y="18" on="1"/>
        <pt x="165" y="18" on="0"/>
        <pt x="232" y="36" on="0"/>
        <pt x="261" y="58" on="1"/>
        <pt x="228" y="68" on="0"/>
        <pt x="158" y="81" on="0"/>
        <pt x="116" y="81" on="1"/>
        <pt x="88" y="81" on="0"/>
        <pt x="63" y="64" on="0"/>
        <pt x="61" y="50" on="1"/>
        <pt x="58" y="36" on="0"/>
        <pt x="85" y="18" on="0"/>
      </contour>
      <contour>
        <pt x="566" y="27" on="1"/>
        <pt x="661" y="27" on="0"/>
        <pt x="756" y="135" on="0"/>
        <pt x="756" y="224" on="1"/>
        <pt x="756" y="271" on="0"/>
        <pt x="728" y="366" on="0"/>
        <pt x="675" y="455" on="0"/>
        <pt x="601" y="532" on="0"/>
        <pt x="555" y="560" on="1"/>
        <pt x="504" y="496" on="0"/>
        <pt x="473" y="393" on="1"/>
        <pt x="465" y="367" on="0"/>
        <pt x="448" y="321" on="0"/>
        <pt x="439" y="299" on="1"/>
        <pt x="476" y="301" on="0"/>
        <pt x="543" y="301" on="0"/>
        <pt x="566" y="300" on="1"/>
        <pt x="568" y="299" on="0"/>
        <pt x="567" y="292" on="0"/>
        <pt x="561" y="291" on="1"/>
        <pt x="533" y="291" on="0"/>
        <pt x="468" y="289" on="0"/>
        <pt x="435" y="287" on="1"/>
        <pt x="407" y="216" on="0"/>
        <pt x="346" y="113" on="0"/>
        <pt x="309" y="78" on="1"/>
        <pt x="334" y="69" on="0"/>
        <pt x="388" y="51" on="0"/>
        <pt x="449" y="36" on="0"/>
        <pt x="522" y="27" on="0"/>
      </contour>
    </TTGlyph>
    <TTGlyph name="Euro" xMin="-1" yMin="0" xMax="311" yMax="313">
      <contour>
        <pt x="240" y="313" on="1"/>
        <pt x="272" y="313" on="0"/>
        <pt x="311" y="289" on="0"/>
        <pt x="311" y="276" on="1"/>
        <pt x="311" y="267" on="0"/>
        <pt x="300" y="231" on="0"/>
        <pt x="295" y="218" on="1"/>
        <pt x="293" y="216" on="0"/>
        <pt x="285" y="220" on="0"/>
        <pt x="286" y="225" on="1"/>
        <pt x="295" y="247" on="0"/>
        <pt x="284" y="266" on="1"/>
        <pt x="276" y="279" on="0"/>
        <pt x="242" y="294" on="0"/>
        <pt x="221" y="294" on="1"/>
        <pt x="175" y="294" on="0"/>
        <pt x="110" y="243" on="0"/>
        <pt x="96" y="194" on="1"/>
        <pt x="122" y="195" on="0"/>
        <pt x="178" y="195" on="0"/>
        <pt x="216" y="194" on="1"/>
        <pt x="221" y="192" on="0"/>
        <pt x="219" y="185" on="0"/>
        <pt x="210" y="183" on="1"/>
        <pt x="178" y="183" on="0"/>
        <pt x="121" y="181" on="0"/>
        <pt x="93" y="178" on="1"/>
        <pt x="91" y="171" on="0"/>
        <pt x="90" y="157" on="0"/>
        <pt x="89" y="149" on="1"/>
        <pt x="112" y="150" on="0"/>
        <pt x="164" y="149" on="0"/>
        <pt x="198" y="149" on="1"/>
        <pt x="203" y="147" on="0"/>
        <pt x="201" y="139" on="0"/>
        <pt x="193" y="138" on="1"/>
        <pt x="164" y="138" on="0"/>
        <pt x="113" y="135" on="0"/>
        <pt x="88" y="133" on="1"/>
        <pt x="88" y="129" on="1"/>
        <pt x="88" y="72" on="0"/>
        <pt x="129" y="14" on="0"/>
        <pt x="164" y="14" on="1"/>
        <pt x="189" y="14" on="0"/>
        <pt x="226" y="43" on="0"/>
        <pt x="238" y="76" on="1"/>
        <pt x="241" y="79" on="0"/>
        <pt x="249" y="78" on="0"/>
        <pt x="249" y="73" on="1"/>
        <pt x="241" y="49" on="0"/>
        <pt x="224" y="11" on="0"/>
        <pt x="215" y="8" on="1"/>
        <pt x="205" y="4" on="0"/>
        <pt x="171" y="0" on="0"/>
        <pt x="154" y="0" on="1"/>
        <pt x="105" y="0" on="0"/>
        <pt x="51" y="63" on="0"/>
        <pt x="51" y="114" on="1"/>
        <pt x="51" y="124" on="0"/>
        <pt x="52" y="129" on="1"/>
        <pt x="40" y="127" on="0"/>
        <pt x="17" y="124" on="0"/>
        <pt x="4" y="122" on="1"/>
        <pt x="-1" y="123" on="0"/>
        <pt x="5" y="131" on="0"/>
        <pt x="18" y="139" on="0"/>
        <pt x="36" y="146" on="0"/>
        <pt x="44" y="147" on="1"/>
        <pt x="54" y="147" on="1"/>
        <pt x="55" y="160" on="0"/>
        <pt x="60" y="174" on="1"/>
        <pt x="51" y="172" on="0"/>
        <pt x="32" y="170" on="0"/>
        <pt x="22" y="168" on="1"/>
        <pt x="17" y="169" on="0"/>
        <pt x="22" y="177" on="0"/>
        <pt x="36" y="185" on="0"/>
        <pt x="54" y="191" on="0"/>
        <pt x="62" y="192" on="1"/>
        <pt x="65" y="192" on="0"/>
        <pt x="67" y="193" on="1"/>
        <pt x="77" y="218" on="0"/>
        <pt x="111" y="262" on="0"/>
        <pt x="155" y="295" on="0"/>
        <pt x="209" y="313" on="0"/>
      </contour>
    </TTGlyph>
    <TTGlyph name="F" xMin="50" yMin="0" xMax="837" yMax="644">
      <contour>
        <pt x="833" y="609" on="1"/>
        <pt x="837" y="606" on="0"/>
        <pt x="832" y="595" on="0"/>
        <pt x="820" y="585" on="0"/>
        <pt x="804" y="577" on="0"/>
        <pt x="797" y="577" on="1"/>
        <pt x="773" y="579" on="0"/>
        <pt x="724" y="586" on="0"/>
        <pt x="700" y="590" on="1"/>
        <pt x="680" y="584" on="0"/>
        <pt x="649" y="561" on="0"/>
        <pt x="623" y="522" on="0"/>
        <pt x="599" y="462" on="0"/>
        <pt x="587" y="418" on="1"/>
        <pt x="580" y="395" on="0"/>
        <pt x="568" y="351" on="0"/>
        <pt x="560" y="330" on="1"/>
        <pt x="585" y="331" on="0"/>
        <pt x="636" y="331" on="0"/>
        <pt x="663" y="331" on="1"/>
        <pt x="668" y="329" on="0"/>
        <pt x="665" y="323" on="0"/>
        <pt x="657" y="321" on="1"/>
        <pt x="631" y="321" on="0"/>
        <pt x="580" y="320" on="0"/>
        <pt x="556" y="319" on="1"/>
        <pt x="497" y="154" on="0"/>
        <pt x="318" y="0" on="0"/>
        <pt x="194" y="0" on="1"/>
        <pt x="122" y="0" on="0"/>
        <pt x="50" y="73" on="0"/>
        <pt x="50" y="133" on="1"/>
        <pt x="50" y="162" on="0"/>
        <pt x="81" y="220" on="0"/>
        <pt x="110" y="240" on="1"/>
        <pt x="115" y="240" on="0"/>
        <pt x="118" y="232" on="0"/>
        <pt x="116" y="229" on="1"/>
        <pt x="98" y="215" on="0"/>
        <pt x="81" y="182" on="0"/>
        <pt x="81" y="154" on="1"/>
        <pt x="81" y="128" on="0"/>
        <pt x="99" y="84" on="0"/>
        <pt x="137" y="51" on="0"/>
        <pt x="197" y="33" on="0"/>
        <pt x="239" y="33" on="1"/>
        <pt x="289" y="33" on="0"/>
        <pt x="369" y="62" on="0"/>
        <pt x="436" y="129" on="0"/>
        <pt x="493" y="238" on="0"/>
        <pt x="519" y="317" on="1"/>
        <pt x="469" y="315" on="0"/>
        <pt x="374" y="307" on="0"/>
        <pt x="326" y="300" on="1"/>
        <pt x="323" y="301" on="0"/>
        <pt x="331" y="308" on="0"/>
        <pt x="346" y="315" on="0"/>
        <pt x="363" y="322" on="0"/>
        <pt x="368" y="323" on="1"/>
        <pt x="409" y="326" on="0"/>
        <pt x="485" y="329" on="0"/>
        <pt x="523" y="330" on="1"/>
        <pt x="528" y="346" on="0"/>
        <pt x="538" y="380" on="0"/>
        <pt x="543" y="398" on="1"/>
        <pt x="555" y="441" on="0"/>
        <pt x="580" y="506" on="0"/>
        <pt x="612" y="552" on="0"/>
        <pt x="651" y="583" on="0"/>
        <pt x="677" y="593" on="1"/>
        <pt x="623" y="601" on="0"/>
        <pt x="523" y="614" on="0"/>
        <pt x="478" y="614" on="1"/>
        <pt x="403" y="614" on="0"/>
        <pt x="301" y="550" on="0"/>
        <pt x="278" y="481" on="1"/>
        <pt x="275" y="479" on="0"/>
        <pt x="269" y="482" on="0"/>
        <pt x="269" y="487" on="1"/>
        <pt x="291" y="558" on="0"/>
        <pt x="420" y="644" on="0"/>
        <pt x="515" y="644" on="1"/>
        <pt x="552" y="644" on="0"/>
        <pt x="627" y="636" on="0"/>
        <pt x="705" y="625" on="0"/>
        <pt x="788" y="613" on="0"/>
      </contour>
    </TTGlyph>
    <TTGlyph name="G" xMin="-37" yMin="-186" xMax="696" yMax="643">
      <contour>
        <pt x="573" y="611" on="1"/>
        <pt x="504" y="611" on="0"/>
        <pt x="385" y="554" on="0"/>
        <pt x="298" y="455" on="0"/>
        <pt x="249" y="318" on="0"/>
        <pt x="249" y="239" on="1"/>
        <pt x="249" y="171" on="0"/>
        <pt x="298" y="101" on="0"/>
        <pt x="349" y="101" on="1"/>
        <pt x="407" y="101" on="0"/>
        <pt x="493" y="166" on="0"/>
        <pt x="510" y="226" on="1"/>
        <pt x="511" y="232" on="0"/>
        <pt x="527" y="240" on="0"/>
        <pt x="544" y="243" on="0"/>
        <pt x="558" y="241" on="0"/>
        <pt x="558" y="236" on="1"/>
        <pt x="525" y="120" on="0"/>
        <pt x="437" y="-41" on="0"/>
        <pt x="331" y="-141" on="0"/>
        <pt x="210" y="-186" on="0"/>
        <pt x="145" y="-186" on="1"/>
        <pt x="99" y="-186" on="0"/>
        <pt x="31" y="-162" on="0"/>
        <pt x="-14" y="-120" on="0"/>
        <pt x="-37" y="-65" on="0"/>
        <pt x="-37" y="-34" on="1"/>
        <pt x="-37" y="9" on="0"/>
        <pt x="2" y="78" on="0"/>
        <pt x="49" y="100" on="1"/>
        <pt x="54" y="102" on="0"/>
        <pt x="57" y="93" on="0"/>
        <pt x="54" y="89" on="1"/>
        <pt x="5" y="62" on="0"/>
        <pt x="5" y="-10" on="1"/>
        <pt x="5" y="-80" on="0"/>
        <pt x="89" y="-168" on="0"/>
        <pt x="167" y="-168" on="1"/>
        <pt x="275" y="-168" on="0"/>
        <pt x="436" y="-21" on="0"/>
        <pt x="486" y="143" on="1"/>
        <pt x="455" y="117" on="0"/>
        <pt x="377" y="82" on="0"/>
        <pt x="328" y="82" on="1"/>
        <pt x="264" y="82" on="0"/>
        <pt x="200" y="155" on="0"/>
        <pt x="200" y="216" on="1"/>
        <pt x="200" y="286" on="0"/>
        <pt x="262" y="437" on="0"/>
        <pt x="371" y="562" on="0"/>
        <pt x="517" y="643" on="0"/>
        <pt x="601" y="643" on="1"/>
        <pt x="645" y="643" on="0"/>
        <pt x="696" y="605" on="0"/>
        <pt x="696" y="578" on="1"/>
        <pt x="696" y="567" on="0"/>
        <pt x="686" y="537" on="0"/>
        <pt x="670" y="506" on="0"/>
        <pt x="652" y="477" on="0"/>
        <pt x="645" y="466" on="1"/>
        <pt x="641" y="464" on="0"/>
        <pt x="634" y="469" on="0"/>
        <pt x="635" y="473" on="1"/>
        <pt x="649" y="495" on="0"/>
        <pt x="662" y="529" on="0"/>
        <pt x="662" y="549" on="1"/>
        <pt x="662" y="576" on="0"/>
        <pt x="613" y="611" on="0"/>
      </contour>
    </TTGlyph>
    <TTGlyph name="H" xMin="50" yMin="0" xMax="1152" yMax="681">
      <contour>
        <pt x="1109" y="681" on="1"/>
        <pt x="1130" y="681" on="0"/>
        <pt x="1152" y="654" on="0"/>
        <pt x="1152" y="636" on="1"/>
        <pt x="1152" y="622" on="0"/>
        <pt x="1145" y="595" on="0"/>
        <pt x="1139" y="585" on="1"/>
        <pt x="1137" y="583" on="0"/>
        <pt x="1132" y="585" on="0"/>
        <pt x="1132" y="589" on="1"/>
        <pt x="1139" y="612" on="0"/>
        <pt x="1117" y="644" on="0"/>
        <pt x="1088" y="644" on="1"/>
        <pt x="1044" y="644" on="0"/>
        <pt x="964" y="605" on="0"/>
        <pt x="888" y="511" on="0"/>
        <pt x="816" y="355" on="0"/>
        <pt x="781" y="237" on="1"/>
        <pt x="794" y="233" on="0"/>
        <pt x="819" y="226" on="0"/>
        <pt x="831" y="223" on="1"/>
        <pt x="836" y="219" on="0"/>
        <pt x="807" y="205" on="0"/>
        <pt x="787" y="206" on="1"/>
        <pt x="783" y="207" on="0"/>
        <pt x="773" y="211" on="1"/>
        <pt x="770" y="199" on="0"/>
        <pt x="763" y="174" on="0"/>
        <pt x="759" y="161" on="1"/>
        <pt x="728" y="44" on="0"/>
        <pt x="772" y="44" on="1"/>
        <pt x="811" y="44" on="0"/>
        <pt x="848" y="100" on="1"/>
        <pt x="851" y="103" on="0"/>
        <pt x="857" y="99" on="0"/>
        <pt x="856" y="94" on="1"/>
        <pt x="845" y="77" on="0"/>
        <pt x="818" y="44" on="0"/>
        <pt x="788" y="17" on="0"/>
        <pt x="759" y="0" on="0"/>
        <pt x="747" y="0" on="1"/>
        <pt x="717" y="0" on="0"/>
        <pt x="694" y="61" on="0"/>
        <pt x="711" y="127" on="1"/>
        <pt x="723" y="178" on="0"/>
        <pt x="738" y="222" on="1"/>
        <pt x="679" y="240" on="0"/>
        <pt x="545" y="268" on="0"/>
        <pt x="473" y="274" on="1"/>
        <pt x="445" y="201" on="0"/>
        <pt x="375" y="97" on="0"/>
        <pt x="294" y="31" on="0"/>
        <pt x="203" y="0" on="0"/>
        <pt x="154" y="0" on="1"/>
        <pt x="102" y="0" on="0"/>
        <pt x="50" y="51" on="0"/>
        <pt x="50" y="92" on="1"/>
        <pt x="50" y="131" on="0"/>
        <pt x="97" y="203" on="0"/>
        <pt x="186" y="258" on="0"/>
        <pt x="315" y="291" on="0"/>
        <pt x="398" y="291" on="1"/>
        <pt x="409" y="291" on="0"/>
        <pt x="431" y="291" on="0"/>
        <pt x="442" y="290" on="1"/>
        <pt x="447" y="304" on="0"/>
        <pt x="455" y="333" on="0"/>
        <pt x="460" y="349" on="1"/>
        <pt x="476" y="408" on="0"/>
        <pt x="507" y="491" on="0"/>
        <pt x="538" y="548" on="0"/>
        <pt x="571" y="581" on="0"/>
        <pt x="590" y="591" on="1"/>
        <pt x="564" y="601" on="0"/>
        <pt x="493" y="615" on="0"/>
        <pt x="451" y="615" on="1"/>
        <pt x="404" y="615" on="0"/>
        <pt x="337" y="587" on="0"/>
        <pt x="298" y="539" on="0"/>
        <pt x="285" y="477" on="0"/>
        <pt x="292" y="443" on="1"/>
        <pt x="291" y="438" on="0"/>
        <pt x="285" y="436" on="0"/>
        <pt x="282" y="440" on="1"/>
        <pt x="273" y="482" on="0"/>
        <pt x="291" y="557" on="0"/>
        <pt x="343" y="613" on="0"/>
        <pt x="428" y="645" on="0"/>
        <pt x="487" y="645" on="1"/>
        <pt x="528" y="645" on="0"/>
        <pt x="606" y="626" on="0"/>
        <pt x="637" y="613" on="1"/>
        <pt x="641" y="607" on="0"/>
        <pt x="633" y="597" on="0"/>
        <pt x="618" y="591" on="1"/>
        <pt x="598" y="583" on="0"/>
        <pt x="569" y="555" on="0"/>
        <pt x="545" y="507" on="0"/>
        <pt x="523" y="437" on="0"/>
        <pt x="510" y="387" on="1"/>
        <pt x="502" y="361" on="0"/>
        <pt x="487" y="311" on="0"/>
        <pt x="479" y="288" on="1"/>
        <pt x="545" y="283" on="0"/>
        <pt x="683" y="261" on="0"/>
        <pt x="746" y="246" on="1"/>
        <pt x="780" y="349" on="0"/>
        <pt x="867" y="510" on="0"/>
        <pt x="962" y="622" on="0"/>
        <pt x="1061" y="681" on="0"/>
      </contour>
      <contour>
        <pt x="181" y="24" on="1"/>
        <pt x="225" y="24" on="0"/>
        <pt x="299" y="49" on="0"/>
        <pt x="361" y="108" on="0"/>
        <pt x="414" y="204" on="0"/>
        <pt x="438" y="276" on="1"/>
        <pt x="423" y="278" on="0"/>
        <pt x="394" y="278" on="0"/>
        <pt x="379" y="278" on="1"/>
        <pt x="308" y="278" on="0"/>
        <pt x="196" y="251" on="0"/>
        <pt x="120" y="205" on="0"/>
        <pt x="80" y="145" on="0"/>
        <pt x="80" y="112" on="1"/>
        <pt x="80" y="69" on="0"/>
        <pt x="133" y="24" on="0"/>
      </contour>
    </TTGlyph>
    <TTGlyph name="I" xMin="50" yMin="0" xMax="741" yMax="645">
      <contour>
        <pt x="738" y="645" on="1"/>
        <pt x="741" y="643" on="0"/>
        <pt x="739" y="635" on="0"/>
        <pt x="731" y="625" on="0"/>
        <pt x="721" y="615" on="0"/>
        <pt x="717" y="613" on="1"/>
        <pt x="697" y="607" on="0"/>
        <pt x="665" y="587" on="0"/>
        <pt x="635" y="545" on="0"/>
        <pt x="607" y="472" on="0"/>
        <pt x="592" y="414" on="1"/>
        <pt x="556" y="277" on="0"/>
        <pt x="494" y="182" on="1"/>
        <pt x="508" y="184" on="0"/>
        <pt x="533" y="194" on="0"/>
        <pt x="540" y="198" on="1"/>
        <pt x="543" y="199" on="0"/>
        <pt x="545" y="194" on="0"/>
        <pt x="543" y="191" on="1"/>
        <pt x="522" y="177" on="0"/>
        <pt x="488" y="172" on="1"/>
        <pt x="430" y="88" on="0"/>
        <pt x="276" y="0" on="0"/>
        <pt x="181" y="0" on="1"/>
        <pt x="121" y="0" on="0"/>
        <pt x="50" y="54" on="0"/>
        <pt x="50" y="93" on="1"/>
        <pt x="50" y="124" on="0"/>
        <pt x="102" y="186" on="0"/>
        <pt x="146" y="206" on="1"/>
        <pt x="151" y="205" on="0"/>
        <pt x="152" y="199" on="0"/>
        <pt x="150" y="197" on="1"/>
        <pt x="119" y="180" on="0"/>
        <pt x="89" y="136" on="0"/>
        <pt x="89" y="113" on="1"/>
        <pt x="89" y="79" on="0"/>
        <pt x="151" y="29" on="0"/>
        <pt x="214" y="29" on="1"/>
        <pt x="293" y="29" on="0"/>
        <pt x="416" y="94" on="0"/>
        <pt x="463" y="171" on="1"/>
        <pt x="412" y="174" on="0"/>
        <pt x="358" y="246" on="0"/>
        <pt x="358" y="303" on="1"/>
        <pt x="358" y="365" on="0"/>
        <pt x="418" y="487" on="0"/>
        <pt x="521" y="585" on="0"/>
        <pt x="660" y="645" on="0"/>
      </contour>
      <contour>
        <pt x="549" y="392" on="1"/>
        <pt x="560" y="434" on="0"/>
        <pt x="584" y="501" on="0"/>
        <pt x="614" y="553" on="0"/>
        <pt x="651" y="592" on="0"/>
        <pt x="674" y="606" on="1"/>
        <pt x="605" y="598" on="0"/>
        <pt x="493" y="537" on="0"/>
        <pt x="414" y="453" on="0"/>
        <pt x="371" y="354" on="0"/>
        <pt x="371" y="307" on="1"/>
        <pt x="371" y="247" on="0"/>
        <pt x="424" y="184" on="0"/>
        <pt x="469" y="181" on="1"/>
        <pt x="492" y="221" on="0"/>
        <pt x="532" y="326" on="0"/>
      </contour>
    </TTGlyph>
    <TTGlyph name="Iacute" xMin="10" yMin="0" xMax="701" yMax="737">
      <contour>
        <pt x="600" y="734" on="1"/>
        <pt x="605" y="737" on="0"/>
        <pt x="632" y="728" on="0"/>
        <pt x="641" y="724" on="1"/>
        <pt x="643" y="722" on="0"/>
        <pt x="645" y="717" on="0"/>
        <pt x="642" y="715" on="1"/>
        <pt x="632" y="708" on="0"/>
        <pt x="601" y="692" on="0"/>
        <pt x="566" y="677" on="0"/>
        <pt x="529" y="663" on="0"/>
        <pt x="514" y="658" on="1"/>
        <pt x="510" y="658" on="0"/>
        <pt x="510" y="666" on="0"/>
        <pt x="513" y="669" on="1"/>
        <pt x="533" y="681" on="0"/>
        <pt x="581" y="714" on="0"/>
      </contour>
      <contour>
        <pt x="698" y="645" on="1"/>
        <pt x="701" y="643" on="0"/>
        <pt x="699" y="635" on="0"/>
        <pt x="691" y="625" on="0"/>
        <pt x="681" y="615" on="0"/>
        <pt x="677" y="613" on="1"/>
        <pt x="657" y="607" on="0"/>
        <pt x="625" y="587" on="0"/>
        <pt x="595" y="545" on="0"/>
        <pt x="567" y="472" on="0"/>
        <pt x="552" y="414" on="1"/>
        <pt x="516" y="277" on="0"/>
        <pt x="454" y="182" on="1"/>
        <pt x="468" y="184" on="0"/>
        <pt x="493" y="194" on="0"/>
        <pt x="500" y="198" on="1"/>
        <pt x="503" y="199" on="0"/>
        <pt x="505" y="194" on="0"/>
        <pt x="503" y="191" on="1"/>
        <pt x="482" y="177" on="0"/>
        <pt x="448" y="172" on="1"/>
        <pt x="390" y="88" on="0"/>
        <pt x="236" y="0" on="0"/>
        <pt x="141" y="0" on="1"/>
        <pt x="81" y="0" on="0"/>
        <pt x="10" y="54" on="0"/>
        <pt x="10" y="93" on="1"/>
        <pt x="10" y="124" on="0"/>
        <pt x="62" y="186" on="0"/>
        <pt x="106" y="206" on="1"/>
        <pt x="111" y="205" on="0"/>
        <pt x="112" y="199" on="0"/>
        <pt x="110" y="197" on="1"/>
        <pt x="79" y="180" on="0"/>
        <pt x="49" y="136" on="0"/>
        <pt x="49" y="113" on="1"/>
        <pt x="49" y="79" on="0"/>
        <pt x="111" y="29" on="0"/>
        <pt x="174" y="29" on="1"/>
        <pt x="253" y="29" on="0"/>
        <pt x="376" y="94" on="0"/>
        <pt x="423" y="171" on="1"/>
        <pt x="372" y="174" on="0"/>
        <pt x="318" y="246" on="0"/>
        <pt x="318" y="303" on="1"/>
        <pt x="318" y="365" on="0"/>
        <pt x="378" y="487" on="0"/>
        <pt x="481" y="585" on="0"/>
        <pt x="620" y="645" on="0"/>
      </contour>
      <contour>
        <pt x="509" y="392" on="1"/>
        <pt x="520" y="434" on="0"/>
        <pt x="544" y="501" on="0"/>
        <pt x="574" y="553" on="0"/>
        <pt x="611" y="592" on="0"/>
        <pt x="634" y="606" on="1"/>
        <pt x="565" y="598" on="0"/>
        <pt x="453" y="537" on="0"/>
        <pt x="374" y="453" on="0"/>
        <pt x="331" y="354" on="0"/>
        <pt x="331" y="307" on="1"/>
        <pt x="331" y="247" on="0"/>
        <pt x="384" y="184" on="0"/>
        <pt x="429" y="181" on="1"/>
        <pt x="452" y="221" on="0"/>
        <pt x="492" y="326" on="0"/>
      </contour>
    </TTGlyph>
    <TTGlyph name="Icircumflex" xMin="10" yMin="0" xMax="701" yMax="751">
      <contour>
        <pt x="589" y="746" on="1"/>
        <pt x="594" y="751" on="0"/>
        <pt x="601" y="745" on="1"/>
        <pt x="614" y="728" on="0"/>
        <pt x="655" y="693" on="0"/>
        <pt x="675" y="684" on="1"/>
        <pt x="680" y="679" on="0"/>
        <pt x="661" y="669" on="0"/>
        <pt x="649" y="671" on="1"/>
        <pt x="630" y="679" on="0"/>
        <pt x="599" y="702" on="0"/>
        <pt x="583" y="715" on="1"/>
        <pt x="577" y="710" on="0"/>
        <pt x="557" y="698" on="0"/>
        <pt x="536" y="685" on="0"/>
        <pt x="515" y="673" on="0"/>
        <pt x="508" y="670" on="1"/>
        <pt x="498" y="670" on="0"/>
        <pt x="503" y="679" on="1"/>
        <pt x="520" y="689" on="0"/>
        <pt x="573" y="727" on="0"/>
      </contour>
      <contour>
        <pt x="698" y="645" on="1"/>
        <pt x="701" y="643" on="0"/>
        <pt x="699" y="635" on="0"/>
        <pt x="691" y="625" on="0"/>
        <pt x="681" y="615" on="0"/>
        <pt x="677" y="613" on="1"/>
        <pt x="657" y="607" on="0"/>
        <pt x="625" y="587" on="0"/>
        <pt x="595" y="545" on="0"/>
        <pt x="567" y="472" on="0"/>
        <pt x="552" y="414" on="1"/>
        <pt x="516" y="277" on="0"/>
        <pt x="454" y="182" on="1"/>
        <pt x="468" y="184" on="0"/>
        <pt x="493" y="194" on="0"/>
        <pt x="500" y="198" on="1"/>
        <pt x="503" y="199" on="0"/>
        <pt x="505" y="194" on="0"/>
        <pt x="503" y="191" on="1"/>
        <pt x="482" y="177" on="0"/>
        <pt x="448" y="172" on="1"/>
        <pt x="390" y="88" on="0"/>
        <pt x="236" y="0" on="0"/>
        <pt x="141" y="0" on="1"/>
        <pt x="81" y="0" on="0"/>
        <pt x="10" y="54" on="0"/>
        <pt x="10" y="93" on="1"/>
        <pt x="10" y="124" on="0"/>
        <pt x="62" y="186" on="0"/>
        <pt x="106" y="206" on="1"/>
        <pt x="111" y="205" on="0"/>
        <pt x="112" y="199" on="0"/>
        <pt x="110" y="197" on="1"/>
        <pt x="79" y="180" on="0"/>
        <pt x="49" y="136" on="0"/>
        <pt x="49" y="113" on="1"/>
        <pt x="49" y="79" on="0"/>
        <pt x="111" y="29" on="0"/>
        <pt x="174" y="29" on="1"/>
        <pt x="253" y="29" on="0"/>
        <pt x="376" y="94" on="0"/>
        <pt x="423" y="171" on="1"/>
        <pt x="372" y="174" on="0"/>
        <pt x="318" y="246" on="0"/>
        <pt x="318" y="303" on="1"/>
        <pt x="318" y="365" on="0"/>
        <pt x="378" y="487" on="0"/>
        <pt x="481" y="585" on="0"/>
        <pt x="620" y="645" on="0"/>
      </contour>
      <contour>
        <pt x="509" y="392" on="1"/>
        <pt x="520" y="434" on="0"/>
        <pt x="544" y="501" on="0"/>
        <pt x="574" y="553" on="0"/>
        <pt x="611" y="592" on="0"/>
        <pt x="634" y="606" on="1"/>
        <pt x="565" y="598" on="0"/>
        <pt x="453" y="537" on="0"/>
        <pt x="374" y="453" on="0"/>
        <pt x="331" y="354" on="0"/>
        <pt x="331" y="307" on="1"/>
        <pt x="331" y="247" on="0"/>
        <pt x="384" y="184" on="0"/>
        <pt x="429" y="181" on="1"/>
        <pt x="452" y="221" on="0"/>
        <pt x="492" y="326" on="0"/>
      </contour>
    </TTGlyph>
    <TTGlyph name="Idieresis" xMin="10" yMin="0" xMax="701" yMax="721">
      <contour>
        <pt x="545" y="667" on="1"/>
        <pt x="534" y="667" on="0"/>
        <pt x="534" y="684" on="1"/>
        <pt x="534" y="694" on="0"/>
        <pt x="554" y="721" on="0"/>
        <pt x="570" y="721" on="1"/>
        <pt x="579" y="721" on="0"/>
        <pt x="579" y="708" on="1"/>
        <pt x="579" y="694" on="0"/>
        <pt x="559" y="667" on="0"/>
      </contour>
      <contour>
        <pt x="622" y="667" on="1"/>
        <pt x="610" y="667" on="0"/>
        <pt x="610" y="684" on="1"/>
        <pt x="610" y="694" on="0"/>
        <pt x="630" y="721" on="0"/>
        <pt x="645" y="721" on="1"/>
        <pt x="654" y="721" on="0"/>
        <pt x="654" y="708" on="1"/>
        <pt x="654" y="694" on="0"/>
        <pt x="634" y="667" on="0"/>
      </contour>
      <contour>
        <pt x="698" y="645" on="1"/>
        <pt x="701" y="643" on="0"/>
        <pt x="699" y="635" on="0"/>
        <pt x="691" y="625" on="0"/>
        <pt x="681" y="615" on="0"/>
        <pt x="677" y="613" on="1"/>
        <pt x="657" y="607" on="0"/>
        <pt x="625" y="587" on="0"/>
        <pt x="595" y="545" on="0"/>
        <pt x="567" y="472" on="0"/>
        <pt x="552" y="414" on="1"/>
        <pt x="516" y="277" on="0"/>
        <pt x="454" y="182" on="1"/>
        <pt x="468" y="184" on="0"/>
        <pt x="493" y="194" on="0"/>
        <pt x="500" y="198" on="1"/>
        <pt x="503" y="199" on="0"/>
        <pt x="505" y="194" on="0"/>
        <pt x="503" y="191" on="1"/>
        <pt x="482" y="177" on="0"/>
        <pt x="448" y="172" on="1"/>
        <pt x="390" y="88" on="0"/>
        <pt x="236" y="0" on="0"/>
        <pt x="141" y="0" on="1"/>
        <pt x="81" y="0" on="0"/>
        <pt x="10" y="54" on="0"/>
        <pt x="10" y="93" on="1"/>
        <pt x="10" y="124" on="0"/>
        <pt x="62" y="186" on="0"/>
        <pt x="106" y="206" on="1"/>
        <pt x="111" y="205" on="0"/>
        <pt x="112" y="199" on="0"/>
        <pt x="110" y="197" on="1"/>
        <pt x="79" y="180" on="0"/>
        <pt x="49" y="136" on="0"/>
        <pt x="49" y="113" on="1"/>
        <pt x="49" y="79" on="0"/>
        <pt x="111" y="29" on="0"/>
        <pt x="174" y="29" on="1"/>
        <pt x="253" y="29" on="0"/>
        <pt x="376" y="94" on="0"/>
        <pt x="423" y="171" on="1"/>
        <pt x="372" y="174" on="0"/>
        <pt x="318" y="246" on="0"/>
        <pt x="318" y="303" on="1"/>
        <pt x="318" y="365" on="0"/>
        <pt x="378" y="487" on="0"/>
        <pt x="481" y="585" on="0"/>
        <pt x="620" y="645" on="0"/>
      </contour>
      <contour>
        <pt x="509" y="392" on="1"/>
        <pt x="520" y="434" on="0"/>
        <pt x="544" y="501" on="0"/>
        <pt x="574" y="553" on="0"/>
        <pt x="611" y="592" on="0"/>
        <pt x="634" y="606" on="1"/>
        <pt x="565" y="598" on="0"/>
        <pt x="453" y="537" on="0"/>
        <pt x="374" y="453" on="0"/>
        <pt x="331" y="354" on="0"/>
        <pt x="331" y="307" on="1"/>
        <pt x="331" y="247" on="0"/>
        <pt x="384" y="184" on="0"/>
        <pt x="429" y="181" on="1"/>
        <pt x="452" y="221" on="0"/>
        <pt x="492" y="326" on="0"/>
      </contour>
    </TTGlyph>
    <TTGlyph name="Igrave" xMin="10" yMin="0" xMax="701" yMax="733">
      <contour>
        <pt x="615" y="669" on="1"/>
        <pt x="617" y="667" on="0"/>
        <pt x="612" y="660" on="0"/>
        <pt x="607" y="660" on="1"/>
        <pt x="595" y="663" on="0"/>
        <pt x="561" y="675" on="0"/>
        <pt x="527" y="689" on="0"/>
        <pt x="495" y="703" on="0"/>
        <pt x="484" y="709" on="1"/>
        <pt x="482" y="710" on="0"/>
        <pt x="482" y="715" on="0"/>
        <pt x="484" y="717" on="1"/>
        <pt x="494" y="725" on="0"/>
        <pt x="522" y="733" on="0"/>
        <pt x="524" y="731" on="1"/>
        <pt x="541" y="717" on="0"/>
        <pt x="588" y="684" on="0"/>
      </contour>
      <contour>
        <pt x="698" y="645" on="1"/>
        <pt x="701" y="643" on="0"/>
        <pt x="699" y="635" on="0"/>
        <pt x="691" y="625" on="0"/>
        <pt x="681" y="615" on="0"/>
        <pt x="677" y="613" on="1"/>
        <pt x="657" y="607" on="0"/>
        <pt x="625" y="587" on="0"/>
        <pt x="595" y="545" on="0"/>
        <pt x="567" y="472" on="0"/>
        <pt x="552" y="414" on="1"/>
        <pt x="516" y="277" on="0"/>
        <pt x="454" y="182" on="1"/>
        <pt x="468" y="184" on="0"/>
        <pt x="493" y="194" on="0"/>
        <pt x="500" y="198" on="1"/>
        <pt x="503" y="199" on="0"/>
        <pt x="505" y="194" on="0"/>
        <pt x="503" y="191" on="1"/>
        <pt x="482" y="177" on="0"/>
        <pt x="448" y="172" on="1"/>
        <pt x="390" y="88" on="0"/>
        <pt x="236" y="0" on="0"/>
        <pt x="141" y="0" on="1"/>
        <pt x="81" y="0" on="0"/>
        <pt x="10" y="54" on="0"/>
        <pt x="10" y="93" on="1"/>
        <pt x="10" y="124" on="0"/>
        <pt x="62" y="186" on="0"/>
        <pt x="106" y="206" on="1"/>
        <pt x="111" y="205" on="0"/>
        <pt x="112" y="199" on="0"/>
        <pt x="110" y="197" on="1"/>
        <pt x="79" y="180" on="0"/>
        <pt x="49" y="136" on="0"/>
        <pt x="49" y="113" on="1"/>
        <pt x="49" y="79" on="0"/>
        <pt x="111" y="29" on="0"/>
        <pt x="174" y="29" on="1"/>
        <pt x="253" y="29" on="0"/>
        <pt x="376" y="94" on="0"/>
        <pt x="423" y="171" on="1"/>
        <pt x="372" y="174" on="0"/>
        <pt x="318" y="246" on="0"/>
        <pt x="318" y="303" on="1"/>
        <pt x="318" y="365" on="0"/>
        <pt x="378" y="487" on="0"/>
        <pt x="481" y="585" on="0"/>
        <pt x="620" y="645" on="0"/>
      </contour>
      <contour>
        <pt x="509" y="392" on="1"/>
        <pt x="520" y="434" on="0"/>
        <pt x="544" y="501" on="0"/>
        <pt x="574" y="553" on="0"/>
        <pt x="611" y="592" on="0"/>
        <pt x="634" y="606" on="1"/>
        <pt x="565" y="598" on="0"/>
        <pt x="453" y="537" on="0"/>
        <pt x="374" y="453" on="0"/>
        <pt x="331" y="354" on="0"/>
        <pt x="331" y="307" on="1"/>
        <pt x="331" y="247" on="0"/>
        <pt x="384" y="184" on="0"/>
        <pt x="429" y="181" on="1"/>
        <pt x="452" y="221" on="0"/>
        <pt x="492" y="326" on="0"/>
      </contour>
    </TTGlyph>
    <TTGlyph name="J" xMin="0" yMin="-185" xMax="825" yMax="644">
      <contour>
        <pt x="822" y="644" on="1"/>
        <pt x="825" y="642" on="0"/>
        <pt x="822" y="634" on="0"/>
        <pt x="815" y="624" on="0"/>
        <pt x="805" y="614" on="0"/>
        <pt x="801" y="612" on="1"/>
        <pt x="780" y="606" on="0"/>
        <pt x="745" y="582" on="0"/>
        <pt x="715" y="536" on="0"/>
        <pt x="688" y="465" on="0"/>
        <pt x="675" y="413" on="1"/>
        <pt x="658" y="347" on="0"/>
        <pt x="618" y="233" on="0"/>
        <pt x="595" y="182" on="1"/>
        <pt x="607" y="184" on="0"/>
        <pt x="629" y="193" on="0"/>
        <pt x="635" y="197" on="1"/>
        <pt x="642" y="197" on="0"/>
        <pt x="639" y="190" on="1"/>
        <pt x="621" y="177" on="0"/>
        <pt x="591" y="172" on="1"/>
        <pt x="548" y="80" on="0"/>
        <pt x="444" y="-54" on="0"/>
        <pt x="328" y="-142" on="0"/>
        <pt x="201" y="-185" on="0"/>
        <pt x="135" y="-185" on="1"/>
        <pt x="66" y="-185" on="0"/>
        <pt x="0" y="-120" on="0"/>
        <pt x="0" y="-72" on="1"/>
        <pt x="0" y="-34" on="0"/>
        <pt x="42" y="48" on="0"/>
        <pt x="115" y="120" on="0"/>
        <pt x="216" y="174" on="0"/>
        <pt x="276" y="185" on="1"/>
        <pt x="281" y="185" on="0"/>
        <pt x="281" y="177" on="0"/>
        <pt x="276" y="175" on="1"/>
        <pt x="223" y="165" on="0"/>
        <pt x="135" y="120" on="0"/>
        <pt x="71" y="60" on="0"/>
        <pt x="35" y="-10" on="0"/>
        <pt x="35" y="-46" on="1"/>
        <pt x="35" y="-96" on="0"/>
        <pt x="96" y="-157" on="0"/>
        <pt x="169" y="-157" on="1"/>
        <pt x="228" y="-157" on="0"/>
        <pt x="337" y="-121" on="0"/>
        <pt x="435" y="-43" on="0"/>
        <pt x="522" y="81" on="0"/>
        <pt x="560" y="169" on="1"/>
        <pt x="507" y="171" on="0"/>
        <pt x="442" y="242" on="0"/>
        <pt x="442" y="302" on="1"/>
        <pt x="442" y="364" on="0"/>
        <pt x="502" y="486" on="0"/>
        <pt x="605" y="584" on="0"/>
        <pt x="744" y="644" on="0"/>
      </contour>
      <contour>
        <pt x="633" y="391" on="1"/>
        <pt x="655" y="478" on="0"/>
        <pt x="717" y="582" on="0"/>
        <pt x="758" y="606" on="1"/>
        <pt x="689" y="597" on="0"/>
        <pt x="577" y="537" on="0"/>
        <pt x="498" y="452" on="0"/>
        <pt x="455" y="353" on="0"/>
        <pt x="455" y="306" on="1"/>
        <pt x="455" y="248" on="0"/>
        <pt x="513" y="182" on="0"/>
        <pt x="564" y="179" on="1"/>
        <pt x="601" y="270" on="0"/>
      </contour>
    </TTGlyph>
    <TTGlyph name="K" xMin="50" yMin="0" xMax="996" yMax="644">
      <contour>
        <pt x="551" y="347" on="1"/>
        <pt x="536" y="261" on="0"/>
        <pt x="470" y="131" on="0"/>
        <pt x="375" y="44" on="0"/>
        <pt x="255" y="0" on="0"/>
        <pt x="187" y="0" on="1"/>
        <pt x="116" y="0" on="0"/>
        <pt x="50" y="62" on="0"/>
        <pt x="50" y="108" on="1"/>
        <pt x="50" y="128" on="0"/>
        <pt x="62" y="169" on="0"/>
        <pt x="83" y="205" on="0"/>
        <pt x="114" y="233" on="0"/>
        <pt x="132" y="242" on="1"/>
        <pt x="138" y="242" on="0"/>
        <pt x="141" y="236" on="0"/>
        <pt x="139" y="232" on="1"/>
        <pt x="113" y="218" on="0"/>
        <pt x="85" y="167" on="0"/>
        <pt x="85" y="136" on="1"/>
        <pt x="85" y="88" on="0"/>
        <pt x="152" y="27" on="0"/>
        <pt x="213" y="27" on="1"/>
        <pt x="274" y="27" on="0"/>
        <pt x="369" y="58" on="0"/>
        <pt x="441" y="126" on="0"/>
        <pt x="490" y="235" on="0"/>
        <pt x="504" y="313" on="1"/>
        <pt x="517" y="385" on="0"/>
        <pt x="544" y="481" on="0"/>
        <pt x="574" y="544" on="0"/>
        <pt x="608" y="578" on="0"/>
        <pt x="628" y="589" on="1"/>
        <pt x="602" y="599" on="0"/>
        <pt x="532" y="612" on="0"/>
        <pt x="491" y="612" on="1"/>
        <pt x="429" y="612" on="0"/>
        <pt x="335" y="569" on="0"/>
        <pt x="276" y="495" on="0"/>
        <pt x="256" y="394" on="0"/>
        <pt x="268" y="336" on="1"/>
        <pt x="268" y="331" on="0"/>
        <pt x="260" y="327" on="0"/>
        <pt x="257" y="332" on="1"/>
        <pt x="243" y="394" on="0"/>
        <pt x="267" y="507" on="0"/>
        <pt x="336" y="593" on="0"/>
        <pt x="450" y="644" on="0"/>
        <pt x="527" y="644" on="1"/>
        <pt x="569" y="644" on="0"/>
        <pt x="647" y="626" on="0"/>
        <pt x="678" y="612" on="1"/>
        <pt x="682" y="606" on="0"/>
        <pt x="673" y="597" on="0"/>
        <pt x="658" y="590" on="1"/>
        <pt x="637" y="581" on="0"/>
        <pt x="606" y="549" on="0"/>
        <pt x="582" y="493" on="0"/>
        <pt x="561" y="408" on="0"/>
      </contour>
      <contour>
        <pt x="615" y="368" on="1"/>
        <pt x="637" y="290" on="0"/>
        <pt x="681" y="165" on="0"/>
        <pt x="733" y="78" on="0"/>
        <pt x="799" y="32" on="0"/>
        <pt x="842" y="32" on="1"/>
        <pt x="864" y="32" on="0"/>
        <pt x="901" y="55" on="0"/>
        <pt x="912" y="73" on="1"/>
        <pt x="915" y="76" on="0"/>
        <pt x="921" y="70" on="0"/>
        <pt x="920" y="65" on="1"/>
        <pt x="905" y="37" on="0"/>
        <pt x="852" y="0" on="0"/>
        <pt x="813" y="0" on="1"/>
        <pt x="767" y="0" on="0"/>
        <pt x="697" y="55" on="0"/>
        <pt x="643" y="149" on="0"/>
        <pt x="602" y="273" on="0"/>
        <pt x="585" y="341" on="1"/>
        <pt x="582" y="351" on="0"/>
        <pt x="589" y="361" on="1"/>
        <pt x="634" y="419" on="0"/>
        <pt x="731" y="523" on="0"/>
        <pt x="827" y="599" on="0"/>
        <pt x="917" y="644" on="0"/>
        <pt x="955" y="644" on="1"/>
        <pt x="972" y="644" on="0"/>
        <pt x="996" y="618" on="0"/>
        <pt x="996" y="597" on="1"/>
        <pt x="996" y="583" on="0"/>
        <pt x="991" y="560" on="0"/>
        <pt x="984" y="544" on="1"/>
        <pt x="981" y="541" on="0"/>
        <pt x="975" y="543" on="0"/>
        <pt x="974" y="547" on="1"/>
        <pt x="979" y="571" on="0"/>
        <pt x="956" y="606" on="0"/>
        <pt x="923" y="606" on="1"/>
        <pt x="895" y="606" on="0"/>
        <pt x="821" y="571" on="0"/>
        <pt x="739" y="508" on="0"/>
        <pt x="654" y="420" on="0"/>
      </contour>
    </TTGlyph>
    <TTGlyph name="L" xMin="30" yMin="0" xMax="725" yMax="644">
      <contour>
        <pt x="660" y="644" on="1"/>
        <pt x="692" y="644" on="0"/>
        <pt x="725" y="602" on="0"/>
        <pt x="725" y="571" on="1"/>
        <pt x="725" y="551" on="0"/>
        <pt x="711" y="507" on="0"/>
        <pt x="702" y="489" on="1"/>
        <pt x="698" y="486" on="0"/>
        <pt x="691" y="489" on="0"/>
        <pt x="692" y="494" on="1"/>
        <pt x="699" y="512" on="0"/>
        <pt x="699" y="550" on="0"/>
        <pt x="684" y="581" on="0"/>
        <pt x="651" y="601" on="0"/>
        <pt x="626" y="601" on="1"/>
        <pt x="590" y="601" on="0"/>
        <pt x="530" y="574" on="0"/>
        <pt x="479" y="506" on="0"/>
        <pt x="433" y="389" on="0"/>
        <pt x="410" y="299" on="1"/>
        <pt x="391" y="227" on="0"/>
        <pt x="341" y="119" on="0"/>
        <pt x="308" y="82" on="1"/>
        <pt x="351" y="65" on="0"/>
        <pt x="446" y="39" on="0"/>
        <pt x="505" y="39" on="1"/>
        <pt x="552" y="39" on="0"/>
        <pt x="613" y="72" on="0"/>
        <pt x="636" y="118" on="1"/>
        <pt x="640" y="120" on="0"/>
        <pt x="646" y="115" on="0"/>
        <pt x="644" y="110" on="1"/>
        <pt x="620" y="56" on="0"/>
        <pt x="540" y="0" on="0"/>
        <pt x="473" y="0" on="1"/>
        <pt x="414" y="0" on="0"/>
        <pt x="322" y="34" on="0"/>
        <pt x="279" y="54" on="1"/>
        <pt x="212" y="0" on="0"/>
        <pt x="107" y="0" on="1"/>
        <pt x="69" y="0" on="0"/>
        <pt x="30" y="31" on="0"/>
        <pt x="30" y="49" on="1"/>
        <pt x="30" y="62" on="0"/>
        <pt x="45" y="89" on="0"/>
        <pt x="74" y="110" on="0"/>
        <pt x="114" y="124" on="0"/>
        <pt x="139" y="124" on="1"/>
        <pt x="178" y="124" on="0"/>
        <pt x="251" y="102" on="0"/>
        <pt x="289" y="88" on="1"/>
        <pt x="334" y="146" on="0"/>
        <pt x="368" y="274" on="1"/>
        <pt x="390" y="356" on="0"/>
        <pt x="449" y="493" on="0"/>
        <pt x="522" y="590" on="0"/>
        <pt x="610" y="644" on="0"/>
      </contour>
      <contour>
        <pt x="139" y="21" on="1"/>
        <pt x="177" y="21" on="0"/>
        <pt x="237" y="39" on="0"/>
        <pt x="263" y="61" on="1"/>
        <pt x="228" y="78" on="0"/>
        <pt x="155" y="102" on="0"/>
        <pt x="111" y="102" on="1"/>
        <pt x="83" y="102" on="0"/>
        <pt x="59" y="84" on="0"/>
        <pt x="59" y="70" on="1"/>
        <pt x="59" y="50" on="0"/>
        <pt x="101" y="21" on="0"/>
      </contour>
    </TTGlyph>
    <TTGlyph name="Lslash" xMin="30" yMin="0" xMax="724" yMax="644">
      <contour>
        <pt x="660" y="644" on="1"/>
        <pt x="691" y="644" on="0"/>
        <pt x="724" y="603" on="0"/>
        <pt x="724" y="572" on="1"/>
        <pt x="724" y="552" on="0"/>
        <pt x="711" y="508" on="0"/>
        <pt x="702" y="490" on="1"/>
        <pt x="698" y="486" on="0"/>
        <pt x="691" y="489" on="0"/>
        <pt x="691" y="494" on="1"/>
        <pt x="698" y="512" on="0"/>
        <pt x="699" y="550" on="0"/>
        <pt x="684" y="581" on="0"/>
        <pt x="651" y="601" on="0"/>
        <pt x="626" y="601" on="1"/>
        <pt x="593" y="601" on="0"/>
        <pt x="537" y="579" on="0"/>
        <pt x="489" y="523" on="0"/>
        <pt x="446" y="428" on="0"/>
        <pt x="425" y="356" on="1"/>
        <pt x="457" y="363" on="0"/>
        <pt x="523" y="375" on="0"/>
        <pt x="556" y="380" on="1"/>
        <pt x="566" y="382" on="0"/>
        <pt x="562" y="370" on="0"/>
        <pt x="551" y="367" on="1"/>
        <pt x="520" y="362" on="0"/>
        <pt x="454" y="348" on="0"/>
        <pt x="420" y="340" on="1"/>
        <pt x="418" y="330" on="0"/>
        <pt x="412" y="310" on="0"/>
        <pt x="410" y="299" on="1"/>
        <pt x="391" y="227" on="0"/>
        <pt x="341" y="119" on="0"/>
        <pt x="307" y="82" on="1"/>
        <pt x="351" y="65" on="0"/>
        <pt x="446" y="39" on="0"/>
        <pt x="505" y="39" on="1"/>
        <pt x="553" y="39" on="0"/>
        <pt x="613" y="73" on="0"/>
        <pt x="636" y="119" on="1"/>
        <pt x="640" y="121" on="0"/>
        <pt x="646" y="116" on="0"/>
        <pt x="644" y="110" on="1"/>
        <pt x="620" y="56" on="0"/>
        <pt x="540" y="0" on="0"/>
        <pt x="473" y="0" on="1"/>
        <pt x="414" y="0" on="0"/>
        <pt x="322" y="35" on="0"/>
        <pt x="279" y="55" on="1"/>
        <pt x="211" y="0" on="0"/>
        <pt x="106" y="0" on="1"/>
        <pt x="68" y="0" on="0"/>
        <pt x="30" y="31" on="0"/>
        <pt x="30" y="49" on="1"/>
        <pt x="30" y="62" on="0"/>
        <pt x="45" y="90" on="0"/>
        <pt x="74" y="111" on="0"/>
        <pt x="114" y="125" on="0"/>
        <pt x="139" y="125" on="1"/>
        <pt x="178" y="125" on="0"/>
        <pt x="251" y="103" on="0"/>
        <pt x="289" y="89" on="1"/>
        <pt x="312" y="118" on="0"/>
        <pt x="351" y="209" on="0"/>
        <pt x="368" y="275" on="1"/>
        <pt x="372" y="289" on="0"/>
        <pt x="379" y="316" on="0"/>
        <pt x="384" y="330" on="1"/>
        <pt x="354" y="322" on="0"/>
        <pt x="296" y="302" on="0"/>
        <pt x="269" y="291" on="1"/>
        <pt x="261" y="291" on="0"/>
        <pt x="277" y="313" on="0"/>
        <pt x="297" y="321" on="1"/>
        <pt x="317" y="328" on="0"/>
        <pt x="364" y="341" on="0"/>
        <pt x="390" y="348" on="1"/>
        <pt x="412" y="415" on="0"/>
        <pt x="469" y="524" on="0"/>
        <pt x="537" y="602" on="0"/>
        <pt x="615" y="644" on="0"/>
      </contour>
      <contour>
        <pt x="139" y="22" on="1"/>
        <pt x="177" y="22" on="0"/>
        <pt x="237" y="40" on="0"/>
        <pt x="263" y="62" on="1"/>
        <pt x="228" y="78" on="0"/>
        <pt x="155" y="102" on="0"/>
        <pt x="111" y="102" on="1"/>
        <pt x="83" y="102" on="0"/>
        <pt x="58" y="84" on="0"/>
        <pt x="58" y="70" on="1"/>
        <pt x="58" y="50" on="0"/>
        <pt x="100" y="22" on="0"/>
      </contour>
    </TTGlyph>
    <TTGlyph name="M" xMin="51" yMin="0" xMax="1295" yMax="656">
      <contour>
        <pt x="1286" y="656" on="1"/>
        <pt x="1291" y="656" on="0"/>
        <pt x="1295" y="646" on="0"/>
        <pt x="1292" y="642" on="1"/>
        <pt x="1244" y="600" on="0"/>
        <pt x="1167" y="483" on="0"/>
        <pt x="1111" y="353" on="0"/>
        <pt x="1081" y="218" on="0"/>
        <pt x="1081" y="159" on="1"/>
        <pt x="1081" y="105" on="0"/>
        <pt x="1107" y="44" on="0"/>
        <pt x="1130" y="44" on="1"/>
        <pt x="1168" y="44" on="0"/>
        <pt x="1205" y="100" on="1"/>
        <pt x="1208" y="103" on="0"/>
        <pt x="1215" y="98" on="0"/>
        <pt x="1214" y="94" on="1"/>
        <pt x="1203" y="77" on="0"/>
        <pt x="1176" y="44" on="0"/>
        <pt x="1146" y="17" on="0"/>
        <pt x="1117" y="0" on="0"/>
        <pt x="1105" y="0" on="1"/>
        <pt x="1079" y="0" on="0"/>
        <pt x="1039" y="61" on="0"/>
        <pt x="1039" y="124" on="1"/>
        <pt x="1039" y="176" on="0"/>
        <pt x="1060" y="296" on="0"/>
        <pt x="1102" y="417" on="0"/>
        <pt x="1165" y="531" on="0"/>
        <pt x="1206" y="578" on="1"/>
        <pt x="1144" y="532" on="0"/>
        <pt x="1015" y="403" on="0"/>
        <pt x="896" y="256" on="0"/>
        <pt x="794" y="101" on="0"/>
        <pt x="760" y="29" on="1"/>
        <pt x="756" y="22" on="0"/>
        <pt x="734" y="0" on="0"/>
        <pt x="728" y="0" on="1"/>
        <pt x="721" y="0" on="0"/>
        <pt x="721" y="7" on="1"/>
        <pt x="740" y="162" on="0"/>
        <pt x="811" y="403" on="0"/>
        <pt x="860" y="505" on="1"/>
        <pt x="780" y="385" on="0"/>
        <pt x="626" y="197" on="0"/>
        <pt x="472" y="68" on="0"/>
        <pt x="312" y="0" on="0"/>
        <pt x="226" y="0" on="1"/>
        <pt x="185" y="0" on="0"/>
        <pt x="121" y="26" on="0"/>
        <pt x="75" y="72" on="0"/>
        <pt x="51" y="134" on="0"/>
        <pt x="51" y="171" on="1"/>
        <pt x="51" y="219" on="0"/>
        <pt x="96" y="299" on="0"/>
        <pt x="140" y="322" on="1"/>
        <pt x="144" y="324" on="0"/>
        <pt x="147" y="316" on="0"/>
        <pt x="145" y="312" on="1"/>
        <pt x="114" y="292" on="0"/>
        <pt x="89" y="240" on="0"/>
        <pt x="89" y="198" on="1"/>
        <pt x="89" y="165" on="0"/>
        <pt x="111" y="106" on="0"/>
        <pt x="154" y="62" on="0"/>
        <pt x="217" y="36" on="0"/>
        <pt x="259" y="36" on="1"/>
        <pt x="347" y="36" on="0"/>
        <pt x="508" y="117" on="0"/>
        <pt x="660" y="259" on="0"/>
        <pt x="806" y="449" on="0"/>
        <pt x="879" y="559" on="1"/>
        <pt x="809" y="583" on="0"/>
        <pt x="656" y="616" on="0"/>
        <pt x="586" y="616" on="1"/>
        <pt x="511" y="616" on="0"/>
        <pt x="411" y="529" on="0"/>
        <pt x="400" y="440" on="1"/>
        <pt x="398" y="435" on="0"/>
        <pt x="391" y="437" on="0"/>
        <pt x="390" y="442" on="1"/>
        <pt x="401" y="540" on="0"/>
        <pt x="523" y="644" on="0"/>
        <pt x="621" y="644" on="1"/>
        <pt x="662" y="644" on="0"/>
        <pt x="746" y="633" on="0"/>
        <pt x="826" y="616" on="0"/>
        <pt x="899" y="595" on="0"/>
        <pt x="929" y="585" on="1"/>
        <pt x="931" y="586" on="0"/>
        <pt x="936" y="586" on="0"/>
        <pt x="938" y="587" on="1"/>
        <pt x="942" y="587" on="0"/>
        <pt x="943" y="579" on="0"/>
        <pt x="941" y="576" on="1"/>
        <pt x="927" y="567" on="0"/>
        <pt x="909" y="541" on="0"/>
        <pt x="898" y="520" on="1"/>
        <pt x="848" y="420" on="0"/>
        <pt x="789" y="201" on="0"/>
        <pt x="769" y="89" on="1"/>
        <pt x="816" y="172" on="0"/>
        <pt x="938" y="338" on="0"/>
        <pt x="1074" y="488" on="0"/>
        <pt x="1218" y="613" on="0"/>
      </contour>
    </TTGlyph>
    <TTGlyph name="N" xMin="43" yMin="0" xMax="1277" yMax="644">
      <contour>
        <pt x="1216" y="644" on="1"/>
        <pt x="1244" y="644" on="0"/>
        <pt x="1277" y="601" on="0"/>
        <pt x="1277" y="548" on="1"/>
        <pt x="1276" y="542" on="0"/>
        <pt x="1267" y="541" on="0"/>
        <pt x="1265" y="547" on="1"/>
        <pt x="1263" y="565" on="0"/>
        <pt x="1241" y="591" on="0"/>
        <pt x="1209" y="602" on="0"/>
        <pt x="1170" y="597" on="0"/>
        <pt x="1151" y="583" on="1"/>
        <pt x="1102" y="548" on="0"/>
        <pt x="1020" y="420" on="0"/>
        <pt x="958" y="265" on="0"/>
        <pt x="922" y="95" on="0"/>
        <pt x="919" y="18" on="1"/>
        <pt x="919" y="7" on="0"/>
        <pt x="915" y="0" on="0"/>
        <pt x="910" y="0" on="1"/>
        <pt x="906" y="0" on="0"/>
        <pt x="901" y="9" on="0"/>
        <pt x="899" y="15" on="1"/>
        <pt x="854" y="186" on="0"/>
        <pt x="728" y="447" on="0"/>
        <pt x="647" y="522" on="1"/>
        <pt x="625" y="398" on="0"/>
        <pt x="543" y="204" on="0"/>
        <pt x="433" y="70" on="0"/>
        <pt x="303" y="0" on="0"/>
        <pt x="234" y="0" on="1"/>
        <pt x="163" y="0" on="0"/>
        <pt x="75" y="61" on="0"/>
        <pt x="43" y="150" on="0"/>
        <pt x="69" y="251" on="0"/>
        <pt x="112" y="290" on="1"/>
        <pt x="117" y="291" on="0"/>
        <pt x="122" y="284" on="0"/>
        <pt x="120" y="279" on="1"/>
        <pt x="91" y="250" on="0"/>
        <pt x="75" y="169" on="0"/>
        <pt x="107" y="95" on="0"/>
        <pt x="189" y="43" on="0"/>
        <pt x="259" y="43" on="1"/>
        <pt x="328" y="43" on="0"/>
        <pt x="448" y="110" on="0"/>
        <pt x="543" y="237" on="0"/>
        <pt x="610" y="422" on="0"/>
        <pt x="627" y="540" on="1"/>
        <pt x="585" y="575" on="0"/>
        <pt x="495" y="611" on="0"/>
        <pt x="446" y="611" on="1"/>
        <pt x="398" y="611" on="0"/>
        <pt x="335" y="567" on="0"/>
        <pt x="321" y="540" on="1"/>
        <pt x="318" y="538" on="0"/>
        <pt x="311" y="540" on="0"/>
        <pt x="310" y="545" on="1"/>
        <pt x="319" y="564" on="0"/>
        <pt x="350" y="600" on="0"/>
        <pt x="390" y="627" on="0"/>
        <pt x="442" y="644" on="0"/>
        <pt x="472" y="644" on="1"/>
        <pt x="514" y="644" on="0"/>
        <pt x="595" y="613" on="0"/>
        <pt x="633" y="584" on="1"/>
        <pt x="633" y="586" on="1"/>
        <pt x="634" y="592" on="0"/>
        <pt x="642" y="608" on="0"/>
        <pt x="651" y="621" on="0"/>
        <pt x="659" y="626" on="0"/>
        <pt x="660" y="621" on="1"/>
        <pt x="659" y="607" on="0"/>
        <pt x="656" y="580" on="0"/>
        <pt x="654" y="567" on="1"/>
        <pt x="697" y="529" on="0"/>
        <pt x="775" y="427" on="0"/>
        <pt x="841" y="307" on="0"/>
        <pt x="894" y="174" on="0"/>
        <pt x="914" y="106" on="1"/>
        <pt x="921" y="166" on="0"/>
        <pt x="953" y="293" on="0"/>
        <pt x="999" y="412" on="0"/>
        <pt x="1056" y="518" on="0"/>
        <pt x="1119" y="598" on="0"/>
        <pt x="1184" y="644" on="0"/>
      </contour>
    </TTGlyph>
    <TTGlyph name="Ntilde" xMin="-151" yMin="0" xMax="1083" yMax="730">
      <contour>
        <pt x="613" y="673" on="1"/>
        <pt x="624" y="689" on="0"/>
        <pt x="661" y="719" on="0"/>
        <pt x="678" y="719" on="1"/>
        <pt x="690" y="719" on="0"/>
        <pt x="709" y="708" on="0"/>
        <pt x="730" y="695" on="0"/>
        <pt x="755" y="684" on="0"/>
        <pt x="771" y="684" on="1"/>
        <pt x="789" y="684" on="0"/>
        <pt x="812" y="707" on="0"/>
        <pt x="822" y="728" on="1"/>
        <pt x="824" y="730" on="0"/>
        <pt x="831" y="727" on="0"/>
        <pt x="830" y="724" on="1"/>
        <pt x="818" y="697" on="0"/>
        <pt x="784" y="665" on="0"/>
        <pt x="754" y="665" on="1"/>
        <pt x="740" y="665" on="0"/>
        <pt x="717" y="675" on="0"/>
        <pt x="696" y="688" on="0"/>
        <pt x="676" y="698" on="0"/>
        <pt x="666" y="698" on="1"/>
        <pt x="653" y="698" on="0"/>
        <pt x="631" y="681" on="0"/>
        <pt x="620" y="667" on="1"/>
        <pt x="616" y="665" on="0"/>
        <pt x="611" y="670" on="0"/>
      </contour>
      <contour>
        <pt x="1022" y="644" on="1"/>
        <pt x="1050" y="644" on="0"/>
        <pt x="1083" y="601" on="0"/>
        <pt x="1083" y="548" on="1"/>
        <pt x="1082" y="542" on="0"/>
        <pt x="1073" y="541" on="0"/>
        <pt x="1071" y="547" on="1"/>
        <pt x="1069" y="565" on="0"/>
        <pt x="1047" y="591" on="0"/>
        <pt x="1015" y="602" on="0"/>
        <pt x="976" y="597" on="0"/>
        <pt x="957" y="583" on="1"/>
        <pt x="908" y="548" on="0"/>
        <pt x="826" y="420" on="0"/>
        <pt x="764" y="265" on="0"/>
        <pt x="728" y="95" on="0"/>
        <pt x="725" y="18" on="1"/>
        <pt x="725" y="7" on="0"/>
        <pt x="721" y="0" on="0"/>
        <pt x="716" y="0" on="1"/>
        <pt x="712" y="0" on="0"/>
        <pt x="707" y="9" on="0"/>
        <pt x="705" y="15" on="1"/>
        <pt x="660" y="186" on="0"/>
        <pt x="534" y="447" on="0"/>
        <pt x="453" y="522" on="1"/>
        <pt x="431" y="398" on="0"/>
        <pt x="349" y="204" on="0"/>
        <pt x="239" y="70" on="0"/>
        <pt x="109" y="0" on="0"/>
        <pt x="40" y="0" on="1"/>
        <pt x="-31" y="0" on="0"/>
        <pt x="-119" y="61" on="0"/>
        <pt x="-151" y="150" on="0"/>
        <pt x="-125" y="251" on="0"/>
        <pt x="-82" y="290" on="1"/>
        <pt x="-77" y="291" on="0"/>
        <pt x="-72" y="284" on="0"/>
        <pt x="-74" y="279" on="1"/>
        <pt x="-103" y="250" on="0"/>
        <pt x="-119" y="169" on="0"/>
        <pt x="-87" y="95" on="0"/>
        <pt x="-5" y="43" on="0"/>
        <pt x="65" y="43" on="1"/>
        <pt x="134" y="43" on="0"/>
        <pt x="254" y="110" on="0"/>
        <pt x="349" y="237" on="0"/>
        <pt x="416" y="422" on="0"/>
        <pt x="433" y="540" on="1"/>
        <pt x="391" y="575" on="0"/>
        <pt x="301" y="611" on="0"/>
        <pt x="252" y="611" on="1"/>
        <pt x="204" y="611" on="0"/>
        <pt x="141" y="567" on="0"/>
        <pt x="127" y="540" on="1"/>
        <pt x="124" y="538" on="0"/>
        <pt x="117" y="540" on="0"/>
        <pt x="116" y="545" on="1"/>
        <pt x="125" y="564" on="0"/>
        <pt x="156" y="600" on="0"/>
        <pt x="196" y="627" on="0"/>
        <pt x="248" y="644" on="0"/>
        <pt x="278" y="644" on="1"/>
        <pt x="320" y="644" on="0"/>
        <pt x="401" y="613" on="0"/>
        <pt x="439" y="584" on="1"/>
        <pt x="439" y="586" on="1"/>
        <pt x="440" y="592" on="0"/>
        <pt x="448" y="608" on="0"/>
        <pt x="457" y="621" on="0"/>
        <pt x="465" y="626" on="0"/>
        <pt x="466" y="621" on="1"/>
        <pt x="465" y="607" on="0"/>
        <pt x="462" y="580" on="0"/>
        <pt x="460" y="567" on="1"/>
        <pt x="503" y="529" on="0"/>
        <pt x="581" y="427" on="0"/>
        <pt x="647" y="307" on="0"/>
        <pt x="700" y="174" on="0"/>
        <pt x="720" y="106" on="1"/>
        <pt x="727" y="166" on="0"/>
        <pt x="759" y="293" on="0"/>
        <pt x="805" y="412" on="0"/>
        <pt x="862" y="518" on="0"/>
        <pt x="925" y="598" on="0"/>
        <pt x="990" y="644" on="0"/>
      </contour>
    </TTGlyph>
    <TTGlyph name="O" xMin="70" yMin="0" xMax="651" yMax="645">
      <contour>
        <pt x="446" y="645" on="1"/>
        <pt x="493" y="645" on="0"/>
        <pt x="569" y="609" on="0"/>
        <pt x="622" y="545" on="0"/>
        <pt x="651" y="458" on="0"/>
        <pt x="651" y="406" on="1"/>
        <pt x="651" y="324" on="0"/>
        <pt x="588" y="177" on="0"/>
        <pt x="486" y="66" on="0"/>
        <pt x="354" y="0" on="0"/>
        <pt x="285" y="0" on="1"/>
        <pt x="232" y="0" on="0"/>
        <pt x="152" y="38" on="0"/>
        <pt x="98" y="102" on="0"/>
        <pt x="70" y="186" on="0"/>
        <pt x="70" y="232" on="1"/>
        <pt x="70" y="308" on="0"/>
        <pt x="128" y="457" on="0"/>
        <pt x="230" y="573" on="0"/>
        <pt x="367" y="645" on="0"/>
      </contour>
      <contour>
        <pt x="328" y="31" on="1"/>
        <pt x="380" y="31" on="0"/>
        <pt x="481" y="81" on="0"/>
        <pt x="561" y="172" on="0"/>
        <pt x="611" y="299" on="0"/>
        <pt x="611" y="376" on="1"/>
        <pt x="611" y="486" on="0"/>
        <pt x="506" y="611" on="0"/>
        <pt x="414" y="611" on="1"/>
        <pt x="347" y="611" on="0"/>
        <pt x="236" y="557" on="0"/>
        <pt x="156" y="463" on="0"/>
        <pt x="112" y="337" on="0"/>
        <pt x="112" y="265" on="1"/>
        <pt x="112" y="213" on="0"/>
        <pt x="141" y="127" on="0"/>
        <pt x="196" y="65" on="0"/>
        <pt x="277" y="31" on="0"/>
      </contour>
    </TTGlyph>
    <TTGlyph name="OE" xMin="70" yMin="0" xMax="879" yMax="644">
      <contour>
        <pt x="753" y="644" on="1"/>
        <pt x="777" y="644" on="0"/>
        <pt x="822" y="635" on="0"/>
        <pt x="858" y="620" on="0"/>
        <pt x="879" y="601" on="0"/>
        <pt x="879" y="591" on="1"/>
        <pt x="879" y="583" on="0"/>
        <pt x="872" y="562" on="0"/>
        <pt x="863" y="540" on="0"/>
        <pt x="853" y="521" on="0"/>
        <pt x="850" y="517" on="1"/>
        <pt x="847" y="515" on="0"/>
        <pt x="841" y="518" on="0"/>
        <pt x="842" y="522" on="1"/>
        <pt x="848" y="533" on="0"/>
        <pt x="854" y="560" on="0"/>
        <pt x="846" y="573" on="1"/>
        <pt x="835" y="591" on="0"/>
        <pt x="773" y="627" on="0"/>
        <pt x="733" y="627" on="1"/>
        <pt x="700" y="627" on="0"/>
        <pt x="652" y="609" on="0"/>
        <pt x="619" y="579" on="0"/>
        <pt x="603" y="542" on="0"/>
        <pt x="603" y="523" on="1"/>
        <pt x="603" y="488" on="0"/>
        <pt x="650" y="439" on="0"/>
        <pt x="707" y="422" on="1"/>
        <pt x="710" y="420" on="0"/>
        <pt x="705" y="411" on="0"/>
        <pt x="695" y="401" on="0"/>
        <pt x="682" y="393" on="0"/>
        <pt x="678" y="392" on="1"/>
        <pt x="565" y="397" on="0"/>
        <pt x="442" y="290" on="0"/>
        <pt x="442" y="182" on="1"/>
        <pt x="442" y="147" on="0"/>
        <pt x="463" y="87" on="0"/>
        <pt x="502" y="43" on="0"/>
        <pt x="557" y="18" on="0"/>
        <pt x="592" y="18" on="1"/>
        <pt x="674" y="18" on="0"/>
        <pt x="778" y="95" on="0"/>
        <pt x="801" y="179" on="1"/>
        <pt x="804" y="184" on="0"/>
        <pt x="811" y="180" on="0"/>
        <pt x="812" y="174" on="1"/>
        <pt x="799" y="118" on="0"/>
        <pt x="767" y="44" on="0"/>
        <pt x="753" y="38" on="1"/>
        <pt x="718" y="22" on="0"/>
        <pt x="619" y="0" on="0"/>
        <pt x="568" y="0" on="1"/>
        <pt x="527" y="0" on="0"/>
        <pt x="464" y="25" on="0"/>
        <pt x="442" y="45" on="1"/>
        <pt x="405" y="23" on="0"/>
        <pt x="326" y="0" on="0"/>
        <pt x="285" y="0" on="1"/>
        <pt x="232" y="0" on="0"/>
        <pt x="151" y="38" on="0"/>
        <pt x="97" y="102" on="0"/>
        <pt x="70" y="186" on="0"/>
        <pt x="70" y="232" on="1"/>
        <pt x="70" y="308" on="0"/>
        <pt x="128" y="456" on="0"/>
        <pt x="230" y="573" on="0"/>
        <pt x="367" y="644" on="0"/>
        <pt x="446" y="644" on="1"/>
        <pt x="492" y="644" on="0"/>
        <pt x="567" y="610" on="0"/>
        <pt x="593" y="579" on="1"/>
        <pt x="619" y="608" on="0"/>
        <pt x="701" y="644" on="0"/>
      </contour>
      <contour>
        <pt x="631" y="412" on="1"/>
        <pt x="599" y="429" on="0"/>
        <pt x="563" y="475" on="0"/>
        <pt x="563" y="502" on="1"/>
        <pt x="563" y="517" on="0"/>
        <pt x="568" y="534" on="1"/>
        <pt x="542" y="571" on="0"/>
        <pt x="464" y="610" on="0"/>
        <pt x="413" y="610" on="1"/>
        <pt x="346" y="610" on="0"/>
        <pt x="235" y="556" on="0"/>
        <pt x="156" y="462" on="0"/>
        <pt x="112" y="337" on="0"/>
        <pt x="112" y="265" on="1"/>
        <pt x="112" y="213" on="0"/>
        <pt x="141" y="126" on="0"/>
        <pt x="196" y="64" on="0"/>
        <pt x="276" y="30" on="0"/>
        <pt x="327" y="30" on="1"/>
        <pt x="381" y="30" on="0"/>
        <pt x="431" y="56" on="1"/>
        <pt x="413" y="77" on="0"/>
        <pt x="394" y="130" on="0"/>
        <pt x="394" y="158" on="1"/>
        <pt x="394" y="206" on="0"/>
        <pt x="429" y="291" on="0"/>
        <pt x="492" y="357" on="0"/>
        <pt x="579" y="403" on="0"/>
      </contour>
    </TTGlyph>
    <TTGlyph name="Oacute" xMin="72" yMin="0" xMax="653" yMax="737">
      <contour>
        <pt x="468" y="734" on="1"/>
        <pt x="473" y="737" on="0"/>
        <pt x="500" y="728" on="0"/>
        <pt x="509" y="724" on="1"/>
        <pt x="511" y="722" on="0"/>
        <pt x="513" y="717" on="0"/>
        <pt x="510" y="715" on="1"/>
        <pt x="500" y="708" on="0"/>
        <pt x="469" y="692" on="0"/>
        <pt x="434" y="677" on="0"/>
        <pt x="397" y="663" on="0"/>
        <pt x="382" y="658" on="1"/>
        <pt x="378" y="658" on="0"/>
        <pt x="378" y="666" on="0"/>
        <pt x="381" y="669" on="1"/>
        <pt x="401" y="681" on="0"/>
        <pt x="449" y="714" on="0"/>
      </contour>
      <contour>
        <pt x="448" y="645" on="1"/>
        <pt x="495" y="645" on="0"/>
        <pt x="571" y="609" on="0"/>
        <pt x="624" y="545" on="0"/>
        <pt x="653" y="458" on="0"/>
        <pt x="653" y="406" on="1"/>
        <pt x="653" y="324" on="0"/>
        <pt x="590" y="177" on="0"/>
        <pt x="488" y="66" on="0"/>
        <pt x="356" y="0" on="0"/>
        <pt x="287" y="0" on="1"/>
        <pt x="234" y="0" on="0"/>
        <pt x="154" y="38" on="0"/>
        <pt x="100" y="102" on="0"/>
        <pt x="72" y="186" on="0"/>
        <pt x="72" y="232" on="1"/>
        <pt x="72" y="308" on="0"/>
        <pt x="130" y="457" on="0"/>
        <pt x="232" y="573" on="0"/>
        <pt x="369" y="645" on="0"/>
      </contour>
      <contour>
        <pt x="330" y="31" on="1"/>
        <pt x="382" y="31" on="0"/>
        <pt x="483" y="81" on="0"/>
        <pt x="563" y="172" on="0"/>
        <pt x="613" y="299" on="0"/>
        <pt x="613" y="376" on="1"/>
        <pt x="613" y="486" on="0"/>
        <pt x="508" y="611" on="0"/>
        <pt x="416" y="611" on="1"/>
        <pt x="349" y="611" on="0"/>
        <pt x="238" y="557" on="0"/>
        <pt x="158" y="463" on="0"/>
        <pt x="114" y="337" on="0"/>
        <pt x="114" y="265" on="1"/>
        <pt x="114" y="213" on="0"/>
        <pt x="143" y="127" on="0"/>
        <pt x="198" y="65" on="0"/>
        <pt x="279" y="31" on="0"/>
      </contour>
    </TTGlyph>
    <TTGlyph name="Ocircumflex" xMin="72" yMin="0" xMax="653" yMax="751">
      <contour>
        <pt x="450" y="746" on="1"/>
        <pt x="455" y="751" on="0"/>
        <pt x="462" y="745" on="1"/>
        <pt x="475" y="728" on="0"/>
        <pt x="516" y="693" on="0"/>
        <pt x="536" y="684" on="1"/>
        <pt x="541" y="679" on="0"/>
        <pt x="522" y="669" on="0"/>
        <pt x="510" y="671" on="1"/>
        <pt x="491" y="679" on="0"/>
        <pt x="460" y="702" on="0"/>
        <pt x="444" y="715" on="1"/>
        <pt x="438" y="710" on="0"/>
        <pt x="418" y="698" on="0"/>
        <pt x="397" y="685" on="0"/>
        <pt x="376" y="673" on="0"/>
        <pt x="369" y="670" on="1"/>
        <pt x="359" y="670" on="0"/>
        <pt x="364" y="679" on="1"/>
        <pt x="381" y="689" on="0"/>
        <pt x="434" y="727" on="0"/>
      </contour>
      <contour>
        <pt x="448" y="645" on="1"/>
        <pt x="495" y="645" on="0"/>
        <pt x="571" y="609" on="0"/>
        <pt x="624" y="545" on="0"/>
        <pt x="653" y="458" on="0"/>
        <pt x="653" y="406" on="1"/>
        <pt x="653" y="324" on="0"/>
        <pt x="590" y="177" on="0"/>
        <pt x="488" y="66" on="0"/>
        <pt x="356" y="0" on="0"/>
        <pt x="287" y="0" on="1"/>
        <pt x="234" y="0" on="0"/>
        <pt x="154" y="38" on="0"/>
        <pt x="100" y="102" on="0"/>
        <pt x="72" y="186" on="0"/>
        <pt x="72" y="232" on="1"/>
        <pt x="72" y="308" on="0"/>
        <pt x="130" y="457" on="0"/>
        <pt x="232" y="573" on="0"/>
        <pt x="369" y="645" on="0"/>
      </contour>
      <contour>
        <pt x="330" y="31" on="1"/>
        <pt x="382" y="31" on="0"/>
        <pt x="483" y="81" on="0"/>
        <pt x="563" y="172" on="0"/>
        <pt x="613" y="299" on="0"/>
        <pt x="613" y="376" on="1"/>
        <pt x="613" y="486" on="0"/>
        <pt x="508" y="611" on="0"/>
        <pt x="416" y="611" on="1"/>
        <pt x="349" y="611" on="0"/>
        <pt x="238" y="557" on="0"/>
        <pt x="158" y="463" on="0"/>
        <pt x="114" y="337" on="0"/>
        <pt x="114" y="265" on="1"/>
        <pt x="114" y="213" on="0"/>
        <pt x="143" y="127" on="0"/>
        <pt x="198" y="65" on="0"/>
        <pt x="279" y="31" on="0"/>
      </contour>
    </TTGlyph>
    <TTGlyph name="Odieresis" xMin="72" yMin="0" xMax="653" yMax="721">
      <contour>
        <pt x="406" y="667" on="1"/>
        <pt x="395" y="667" on="0"/>
        <pt x="395" y="684" on="1"/>
        <pt x="395" y="694" on="0"/>
        <pt x="415" y="721" on="0"/>
        <pt x="431" y="721" on="1"/>
        <pt x="440" y="721" on="0"/>
        <pt x="440" y="708" on="1"/>
        <pt x="440" y="694" on="0"/>
        <pt x="420" y="667" on="0"/>
      </contour>
      <contour>
        <pt x="483" y="667" on="1"/>
        <pt x="471" y="667" on="0"/>
        <pt x="471" y="684" on="1"/>
        <pt x="471" y="694" on="0"/>
        <pt x="491" y="721" on="0"/>
        <pt x="506" y="721" on="1"/>
        <pt x="515" y="721" on="0"/>
        <pt x="515" y="708" on="1"/>
        <pt x="515" y="694" on="0"/>
        <pt x="495" y="667" on="0"/>
      </contour>
      <contour>
        <pt x="448" y="645" on="1"/>
        <pt x="495" y="645" on="0"/>
        <pt x="571" y="609" on="0"/>
        <pt x="624" y="545" on="0"/>
        <pt x="653" y="458" on="0"/>
        <pt x="653" y="406" on="1"/>
        <pt x="653" y="324" on="0"/>
        <pt x="590" y="177" on="0"/>
        <pt x="488" y="66" on="0"/>
        <pt x="356" y="0" on="0"/>
        <pt x="287" y="0" on="1"/>
        <pt x="234" y="0" on="0"/>
        <pt x="154" y="38" on="0"/>
        <pt x="100" y="102" on="0"/>
        <pt x="72" y="186" on="0"/>
        <pt x="72" y="232" on="1"/>
        <pt x="72" y="308" on="0"/>
        <pt x="130" y="457" on="0"/>
        <pt x="232" y="573" on="0"/>
        <pt x="369" y="645" on="0"/>
      </contour>
      <contour>
        <pt x="330" y="31" on="1"/>
        <pt x="382" y="31" on="0"/>
        <pt x="483" y="81" on="0"/>
        <pt x="563" y="172" on="0"/>
        <pt x="613" y="299" on="0"/>
        <pt x="613" y="376" on="1"/>
        <pt x="613" y="486" on="0"/>
        <pt x="508" y="611" on="0"/>
        <pt x="416" y="611" on="1"/>
        <pt x="349" y="611" on="0"/>
        <pt x="238" y="557" on="0"/>
        <pt x="158" y="463" on="0"/>
        <pt x="114" y="337" on="0"/>
        <pt x="114" y="265" on="1"/>
        <pt x="114" y="213" on="0"/>
        <pt x="143" y="127" on="0"/>
        <pt x="198" y="65" on="0"/>
        <pt x="279" y="31" on="0"/>
      </contour>
    </TTGlyph>
    <TTGlyph name="Ograve" xMin="72" yMin="0" xMax="653" yMax="733">
      <contour>
        <pt x="494" y="669" on="1"/>
        <pt x="496" y="667" on="0"/>
        <pt x="491" y="660" on="0"/>
        <pt x="486" y="660" on="1"/>
        <pt x="474" y="663" on="0"/>
        <pt x="440" y="675" on="0"/>
        <pt x="406" y="689" on="0"/>
        <pt x="374" y="703" on="0"/>
        <pt x="363" y="709" on="1"/>
        <pt x="361" y="710" on="0"/>
        <pt x="361" y="715" on="0"/>
        <pt x="363" y="717" on="1"/>
        <pt x="373" y="725" on="0"/>
        <pt x="401" y="733" on="0"/>
        <pt x="403" y="731" on="1"/>
        <pt x="420" y="717" on="0"/>
        <pt x="467" y="684" on="0"/>
      </contour>
      <contour>
        <pt x="448" y="645" on="1"/>
        <pt x="495" y="645" on="0"/>
        <pt x="571" y="609" on="0"/>
        <pt x="624" y="545" on="0"/>
        <pt x="653" y="458" on="0"/>
        <pt x="653" y="406" on="1"/>
        <pt x="653" y="324" on="0"/>
        <pt x="590" y="177" on="0"/>
        <pt x="488" y="66" on="0"/>
        <pt x="356" y="0" on="0"/>
        <pt x="287" y="0" on="1"/>
        <pt x="234" y="0" on="0"/>
        <pt x="154" y="38" on="0"/>
        <pt x="100" y="102" on="0"/>
        <pt x="72" y="186" on="0"/>
        <pt x="72" y="232" on="1"/>
        <pt x="72" y="308" on="0"/>
        <pt x="130" y="457" on="0"/>
        <pt x="232" y="573" on="0"/>
        <pt x="369" y="645" on="0"/>
      </contour>
      <contour>
        <pt x="330" y="31" on="1"/>
        <pt x="382" y="31" on="0"/>
        <pt x="483" y="81" on="0"/>
        <pt x="563" y="172" on="0"/>
        <pt x="613" y="299" on="0"/>
        <pt x="613" y="376" on="1"/>
        <pt x="613" y="486" on="0"/>
        <pt x="508" y="611" on="0"/>
        <pt x="416" y="611" on="1"/>
        <pt x="349" y="611" on="0"/>
        <pt x="238" y="557" on="0"/>
        <pt x="158" y="463" on="0"/>
        <pt x="114" y="337" on="0"/>
        <pt x="114" y="265" on="1"/>
        <pt x="114" y="213" on="0"/>
        <pt x="143" y="127" on="0"/>
        <pt x="198" y="65" on="0"/>
        <pt x="279" y="31" on="0"/>
      </contour>
    </TTGlyph>
    <TTGlyph name="Oslash" xMin="70" yMin="-21" xMax="650" yMax="662">
      <contour>
        <pt x="559" y="610" on="1"/>
        <pt x="603" y="580" on="0"/>
        <pt x="650" y="474" on="0"/>
        <pt x="650" y="406" on="1"/>
        <pt x="650" y="324" on="0"/>
        <pt x="588" y="177" on="0"/>
        <pt x="485" y="66" on="0"/>
        <pt x="354" y="0" on="0"/>
        <pt x="285" y="0" on="1"/>
        <pt x="242" y="0" on="0"/>
        <pt x="174" y="25" on="0"/>
        <pt x="148" y="47" on="1"/>
        <pt x="134" y="28" on="0"/>
        <pt x="112" y="-3" on="0"/>
        <pt x="104" y="-15" on="1"/>
        <pt x="99" y="-21" on="0"/>
        <pt x="84" y="-18" on="0"/>
        <pt x="86" y="-12" on="1"/>
        <pt x="96" y="2" on="0"/>
        <pt x="121" y="37" on="0"/>
        <pt x="136" y="57" on="1"/>
        <pt x="103" y="90" on="0"/>
        <pt x="70" y="181" on="0"/>
        <pt x="70" y="232" on="1"/>
        <pt x="70" y="283" on="0"/>
        <pt x="97" y="384" on="0"/>
        <pt x="145" y="475" on="0"/>
        <pt x="213" y="554" on="0"/>
        <pt x="297" y="611" on="0"/>
        <pt x="393" y="644" on="0"/>
        <pt x="446" y="644" on="1"/>
        <pt x="500" y="644" on="0"/>
        <pt x="544" y="619" on="1"/>
        <pt x="552" y="630" on="0"/>
        <pt x="566" y="649" on="0"/>
        <pt x="573" y="657" on="1"/>
        <pt x="579" y="662" on="0"/>
        <pt x="593" y="659" on="0"/>
        <pt x="591" y="652" on="1"/>
        <pt x="584" y="644" on="0"/>
        <pt x="568" y="623" on="0"/>
      </contour>
      <contour>
        <pt x="112" y="265" on="1"/>
        <pt x="112" y="161" on="0"/>
        <pt x="165" y="99" on="1"/>
        <pt x="204" y="152" on="0"/>
        <pt x="296" y="279" on="0"/>
        <pt x="390" y="409" on="0"/>
        <pt x="480" y="533" on="0"/>
        <pt x="517" y="583" on="1"/>
        <pt x="473" y="610" on="0"/>
        <pt x="413" y="610" on="1"/>
        <pt x="346" y="610" on="0"/>
        <pt x="235" y="556" on="0"/>
        <pt x="156" y="462" on="0"/>
        <pt x="112" y="336" on="0"/>
      </contour>
      <contour>
        <pt x="327" y="30" on="1"/>
        <pt x="379" y="30" on="0"/>
        <pt x="481" y="80" on="0"/>
        <pt x="561" y="171" on="0"/>
        <pt x="610" y="299" on="0"/>
        <pt x="610" y="376" on="1"/>
        <pt x="610" y="444" on="0"/>
        <pt x="569" y="544" on="0"/>
        <pt x="531" y="573" on="1"/>
        <pt x="494" y="524" on="0"/>
        <pt x="402" y="399" on="0"/>
        <pt x="306" y="268" on="0"/>
        <pt x="213" y="139" on="0"/>
        <pt x="176" y="87" on="1"/>
        <pt x="204" y="60" on="0"/>
        <pt x="279" y="30" on="0"/>
      </contour>
    </TTGlyph>
    <TTGlyph name="Otilde" xMin="72" yMin="0" xMax="653" yMax="730">
      <contour>
        <pt x="345" y="673" on="1"/>
        <pt x="356" y="689" on="0"/>
        <pt x="393" y="719" on="0"/>
        <pt x="410" y="719" on="1"/>
        <pt x="422" y="719" on="0"/>
        <pt x="441" y="708" on="0"/>
        <pt x="462" y="695" on="0"/>
        <pt x="487" y="684" on="0"/>
        <pt x="503" y="684" on="1"/>
        <pt x="521" y="684" on="0"/>
        <pt x="544" y="707" on="0"/>
        <pt x="554" y="728" on="1"/>
        <pt x="556" y="730" on="0"/>
        <pt x="563" y="727" on="0"/>
        <pt x="562" y="724" on="1"/>
        <pt x="550" y="697" on="0"/>
        <pt x="516" y="665" on="0"/>
        <pt x="486" y="665" on="1"/>
        <pt x="472" y="665" on="0"/>
        <pt x="449" y="675" on="0"/>
        <pt x="428" y="688" on="0"/>
        <pt x="408" y="698" on="0"/>
        <pt x="398" y="698" on="1"/>
        <pt x="385" y="698" on="0"/>
        <pt x="363" y="681" on="0"/>
        <pt x="352" y="667" on="1"/>
        <pt x="348" y="665" on="0"/>
        <pt x="343" y="670" on="0"/>
      </contour>
      <contour>
        <pt x="448" y="645" on="1"/>
        <pt x="495" y="645" on="0"/>
        <pt x="571" y="609" on="0"/>
        <pt x="624" y="545" on="0"/>
        <pt x="653" y="458" on="0"/>
        <pt x="653" y="406" on="1"/>
        <pt x="653" y="324" on="0"/>
        <pt x="590" y="177" on="0"/>
        <pt x="488" y="66" on="0"/>
        <pt x="356" y="0" on="0"/>
        <pt x="287" y="0" on="1"/>
        <pt x="234" y="0" on="0"/>
        <pt x="154" y="38" on="0"/>
        <pt x="100" y="102" on="0"/>
        <pt x="72" y="186" on="0"/>
        <pt x="72" y="232" on="1"/>
        <pt x="72" y="308" on="0"/>
        <pt x="130" y="457" on="0"/>
        <pt x="232" y="573" on="0"/>
        <pt x="369" y="645" on="0"/>
      </contour>
      <contour>
        <pt x="330" y="31" on="1"/>
        <pt x="382" y="31" on="0"/>
        <pt x="483" y="81" on="0"/>
        <pt x="563" y="172" on="0"/>
        <pt x="613" y="299" on="0"/>
        <pt x="613" y="376" on="1"/>
        <pt x="613" y="486" on="0"/>
        <pt x="508" y="611" on="0"/>
        <pt x="416" y="611" on="1"/>
        <pt x="349" y="611" on="0"/>
        <pt x="238" y="557" on="0"/>
        <pt x="158" y="463" on="0"/>
        <pt x="114" y="337" on="0"/>
        <pt x="114" y="265" on="1"/>
        <pt x="114" y="213" on="0"/>
        <pt x="143" y="127" on="0"/>
        <pt x="198" y="65" on="0"/>
        <pt x="279" y="31" on="0"/>
      </contour>
    </TTGlyph>
    <TTGlyph name="P" xMin="50" yMin="0" xMax="873" yMax="680">
      <contour>
        <pt x="691" y="641" on="1"/>
        <pt x="735" y="635" on="0"/>
        <pt x="803" y="598" on="0"/>
        <pt x="849" y="544" on="0"/>
        <pt x="873" y="479" on="0"/>
        <pt x="873" y="444" on="1"/>
        <pt x="873" y="398" on="0"/>
        <pt x="840" y="319" on="0"/>
        <pt x="779" y="260" on="0"/>
        <pt x="690" y="226" on="0"/>
        <pt x="633" y="226" on="1"/>
        <pt x="566" y="226" on="0"/>
        <pt x="526" y="259" on="1"/>
        <pt x="466" y="124" on="0"/>
        <pt x="301" y="0" on="0"/>
        <pt x="203" y="0" on="1"/>
        <pt x="165" y="0" on="0"/>
        <pt x="108" y="25" on="0"/>
        <pt x="69" y="65" on="0"/>
        <pt x="50" y="118" on="0"/>
        <pt x="50" y="146" on="1"/>
        <pt x="50" y="165" on="0"/>
        <pt x="61" y="204" on="0"/>
        <pt x="80" y="239" on="0"/>
        <pt x="108" y="268" on="0"/>
        <pt x="125" y="276" on="1"/>
        <pt x="135" y="278" on="0"/>
        <pt x="131" y="269" on="1"/>
        <pt x="102" y="253" on="0"/>
        <pt x="73" y="199" on="0"/>
        <pt x="73" y="168" on="1"/>
        <pt x="73" y="139" on="0"/>
        <pt x="94" y="89" on="0"/>
        <pt x="134" y="51" on="0"/>
        <pt x="192" y="30" on="0"/>
        <pt x="230" y="30" on="1"/>
        <pt x="276" y="30" on="0"/>
        <pt x="353" y="54" on="0"/>
        <pt x="418" y="113" on="0"/>
        <pt x="474" y="212" on="0"/>
        <pt x="500" y="287" on="1"/>
        <pt x="489" y="303" on="0"/>
        <pt x="473" y="341" on="0"/>
        <pt x="468" y="364" on="1"/>
        <pt x="469" y="368" on="0"/>
        <pt x="475" y="371" on="0"/>
        <pt x="477" y="368" on="1"/>
        <pt x="486" y="329" on="0"/>
        <pt x="505" y="303" on="1"/>
        <pt x="515" y="334" on="0"/>
        <pt x="526" y="372" on="1"/>
        <pt x="549" y="457" on="0"/>
        <pt x="604" y="580" on="0"/>
        <pt x="642" y="619" on="1"/>
        <pt x="636" y="620" on="0"/>
        <pt x="623" y="620" on="0"/>
        <pt x="616" y="620" on="1"/>
        <pt x="510" y="620" on="0"/>
        <pt x="363" y="518" on="0"/>
        <pt x="334" y="418" on="1"/>
        <pt x="331" y="415" on="0"/>
        <pt x="325" y="420" on="0"/>
        <pt x="325" y="428" on="1"/>
        <pt x="359" y="528" on="0"/>
        <pt x="517" y="644" on="0"/>
        <pt x="647" y="644" on="1"/>
        <pt x="653" y="644" on="0"/>
        <pt x="664" y="644" on="0"/>
        <pt x="669" y="643" on="1"/>
        <pt x="703" y="669" on="0"/>
        <pt x="748" y="680" on="1"/>
        <pt x="753" y="680" on="0"/>
        <pt x="754" y="674" on="0"/>
        <pt x="749" y="672" on="1"/>
        <pt x="732" y="667" on="0"/>
        <pt x="704" y="652" on="0"/>
      </contour>
      <contour>
        <pt x="643" y="246" on="1"/>
        <pt x="685" y="246" on="0"/>
        <pt x="754" y="274" on="0"/>
        <pt x="803" y="323" on="0"/>
        <pt x="829" y="389" on="0"/>
        <pt x="829" y="427" on="1"/>
        <pt x="829" y="462" on="0"/>
        <pt x="808" y="525" on="0"/>
        <pt x="767" y="574" on="0"/>
        <pt x="706" y="609" on="0"/>
        <pt x="667" y="616" on="1"/>
        <pt x="640" y="583" on="0"/>
        <pt x="598" y="485" on="0"/>
        <pt x="581" y="420" on="1"/>
        <pt x="560" y="340" on="0"/>
        <pt x="533" y="275" on="1"/>
        <pt x="573" y="246" on="0"/>
      </contour>
    </TTGlyph>
    <TTGlyph name="Q" xMin="59" yMin="-167" xMax="760" yMax="644">
      <contour>
        <pt x="407" y="644" on="1"/>
        <pt x="456" y="644" on="0"/>
        <pt x="532" y="613" on="0"/>
        <pt x="584" y="556" on="0"/>
        <pt x="611" y="478" on="0"/>
        <pt x="611" y="430" on="1"/>
        <pt x="611" y="352" on="0"/>
        <pt x="544" y="212" on="0"/>
        <pt x="432" y="103" on="0"/>
        <pt x="285" y="31" on="0"/>
        <pt x="204" y="21" on="1"/>
        <pt x="230" y="12" on="0"/>
        <pt x="292" y="-17" on="0"/>
        <pt x="359" y="-50" on="0"/>
        <pt x="432" y="-84" on="0"/>
        <pt x="468" y="-98" on="1"/>
        <pt x="506" y="-113" on="0"/>
        <pt x="569" y="-127" on="0"/>
        <pt x="607" y="-127" on="1"/>
        <pt x="658" y="-127" on="0"/>
        <pt x="725" y="-100" on="0"/>
        <pt x="749" y="-74" on="1"/>
        <pt x="752" y="-72" on="0"/>
        <pt x="760" y="-75" on="0"/>
        <pt x="758" y="-80" on="1"/>
        <pt x="731" y="-118" on="0"/>
        <pt x="646" y="-167" on="0"/>
        <pt x="586" y="-167" on="1"/>
        <pt x="565" y="-167" on="0"/>
        <pt x="530" y="-163" on="0"/>
        <pt x="495" y="-154" on="0"/>
        <pt x="459" y="-141" on="0"/>
        <pt x="438" y="-131" on="1"/>
        <pt x="388" y="-109" on="0"/>
        <pt x="284" y="-55" on="0"/>
        <pt x="187" y="-8" on="0"/>
        <pt x="99" y="23" on="0"/>
        <pt x="66" y="22" on="1"/>
        <pt x="61" y="24" on="0"/>
        <pt x="59" y="35" on="0"/>
        <pt x="70" y="41" on="1"/>
        <pt x="89" y="52" on="0"/>
        <pt x="107" y="52" on="1"/>
        <pt x="119" y="52" on="0"/>
        <pt x="155" y="36" on="0"/>
        <pt x="169" y="36" on="1"/>
        <pt x="246" y="36" on="0"/>
        <pt x="389" y="90" on="0"/>
        <pt x="498" y="189" on="0"/>
        <pt x="564" y="326" on="0"/>
        <pt x="564" y="409" on="1"/>
        <pt x="564" y="455" on="0"/>
        <pt x="542" y="534" on="0"/>
        <pt x="498" y="591" on="0"/>
        <pt x="435" y="623" on="0"/>
        <pt x="393" y="623" on="1"/>
        <pt x="337" y="623" on="0"/>
        <pt x="244" y="576" on="0"/>
        <pt x="176" y="492" on="0"/>
        <pt x="139" y="375" on="0"/>
        <pt x="139" y="304" on="1"/>
        <pt x="139" y="250" on="0"/>
        <pt x="186" y="172" on="0"/>
        <pt x="233" y="164" on="1"/>
        <pt x="268" y="158" on="0"/>
        <pt x="282" y="172" on="1"/>
        <pt x="286" y="173" on="0"/>
        <pt x="290" y="167" on="0"/>
        <pt x="289" y="163" on="1"/>
        <pt x="280" y="152" on="0"/>
        <pt x="242" y="137" on="0"/>
        <pt x="219" y="137" on="1"/>
        <pt x="192" y="137" on="0"/>
        <pt x="150" y="161" on="0"/>
        <pt x="120" y="202" on="0"/>
        <pt x="104" y="257" on="0"/>
        <pt x="104" y="289" on="1"/>
        <pt x="104" y="357" on="0"/>
        <pt x="151" y="485" on="0"/>
        <pt x="232" y="584" on="0"/>
        <pt x="343" y="644" on="0"/>
      </contour>
    </TTGlyph>
    <TTGlyph name="R" xMin="49" yMin="0" xMax="864" yMax="680">
      <contour>
        <pt x="853" y="75" on="1"/>
        <pt x="855" y="78" on="0"/>
        <pt x="864" y="77" on="0"/>
        <pt x="863" y="72" on="1"/>
        <pt x="841" y="39" on="0"/>
        <pt x="785" y="0" on="0"/>
        <pt x="753" y="0" on="1"/>
        <pt x="709" y="0" on="0"/>
        <pt x="647" y="50" on="0"/>
        <pt x="602" y="135" on="0"/>
        <pt x="572" y="247" on="0"/>
        <pt x="559" y="308" on="1"/>
        <pt x="559" y="314" on="0"/>
        <pt x="563" y="317" on="1"/>
        <pt x="568" y="319" on="0"/>
        <pt x="580" y="324" on="0"/>
        <pt x="591" y="329" on="1"/>
        <pt x="594" y="330" on="0"/>
        <pt x="605" y="327" on="0"/>
        <pt x="623" y="324" on="0"/>
        <pt x="648" y="324" on="0"/>
        <pt x="665" y="328" on="1"/>
        <pt x="717" y="340" on="0"/>
        <pt x="775" y="412" on="0"/>
        <pt x="775" y="466" on="1"/>
        <pt x="775" y="530" on="0"/>
        <pt x="699" y="614" on="0"/>
        <pt x="632" y="619" on="1"/>
        <pt x="604" y="587" on="0"/>
        <pt x="561" y="486" on="0"/>
        <pt x="543" y="419" on="1"/>
        <pt x="514" y="309" on="0"/>
        <pt x="435" y="150" on="0"/>
        <pt x="339" y="48" on="0"/>
        <pt x="227" y="0" on="0"/>
        <pt x="165" y="0" on="1"/>
        <pt x="135" y="0" on="0"/>
        <pt x="92" y="18" on="0"/>
        <pt x="63" y="50" on="0"/>
        <pt x="49" y="91" on="0"/>
        <pt x="49" y="114" on="1"/>
        <pt x="49" y="152" on="0"/>
        <pt x="90" y="227" on="0"/>
        <pt x="124" y="244" on="1"/>
        <pt x="133" y="246" on="0"/>
        <pt x="131" y="236" on="1"/>
        <pt x="101" y="221" on="0"/>
        <pt x="72" y="166" on="0"/>
        <pt x="72" y="136" on="1"/>
        <pt x="72" y="84" on="0"/>
        <pt x="134" y="30" on="0"/>
        <pt x="192" y="30" on="1"/>
        <pt x="244" y="30" on="0"/>
        <pt x="329" y="61" on="0"/>
        <pt x="399" y="138" on="0"/>
        <pt x="459" y="270" on="0"/>
        <pt x="487" y="371" on="1"/>
        <pt x="511" y="457" on="0"/>
        <pt x="567" y="580" on="0"/>
        <pt x="605" y="620" on="1"/>
        <pt x="417" y="616" on="0"/>
        <pt x="319" y="477" on="1"/>
        <pt x="316" y="475" on="0"/>
        <pt x="309" y="479" on="0"/>
        <pt x="311" y="484" on="1"/>
        <pt x="359" y="554" on="0"/>
        <pt x="519" y="639" on="0"/>
        <pt x="632" y="643" on="1"/>
        <pt x="649" y="656" on="0"/>
        <pt x="687" y="675" on="0"/>
        <pt x="710" y="680" on="1"/>
        <pt x="715" y="680" on="0"/>
        <pt x="715" y="673" on="0"/>
        <pt x="710" y="671" on="1"/>
        <pt x="681" y="663" on="0"/>
        <pt x="657" y="644" on="1"/>
        <pt x="692" y="644" on="0"/>
        <pt x="750" y="617" on="0"/>
        <pt x="792" y="573" on="0"/>
        <pt x="815" y="518" on="0"/>
        <pt x="815" y="488" on="1"/>
        <pt x="815" y="448" on="0"/>
        <pt x="779" y="380" on="0"/>
        <pt x="720" y="332" on="0"/>
        <pt x="643" y="307" on="0"/>
        <pt x="602" y="309" on="1"/>
        <pt x="618" y="223" on="0"/>
        <pt x="656" y="115" on="0"/>
        <pt x="702" y="54" on="0"/>
        <pt x="755" y="32" on="0"/>
        <pt x="785" y="32" on="1"/>
        <pt x="806" y="32" on="0"/>
        <pt x="837" y="53" on="0"/>
      </contour>
    </TTGlyph>
    <TTGlyph name="S" xMin="50" yMin="0" xMax="525" yMax="644">
      <contour>
        <pt x="50" y="121" on="1"/>
        <pt x="50" y="155" on="0"/>
        <pt x="85" y="212" on="0"/>
        <pt x="118" y="229" on="1"/>
        <pt x="122" y="231" on="0"/>
        <pt x="125" y="222" on="0"/>
        <pt x="123" y="219" on="1"/>
        <pt x="87" y="199" on="0"/>
        <pt x="87" y="147" on="1"/>
        <pt x="87" y="121" on="0"/>
        <pt x="109" y="76" on="0"/>
        <pt x="150" y="43" on="0"/>
        <pt x="209" y="23" on="0"/>
        <pt x="247" y="23" on="1"/>
        <pt x="338" y="23" on="0"/>
        <pt x="425" y="101" on="0"/>
        <pt x="425" y="158" on="1"/>
        <pt x="425" y="196" on="0"/>
        <pt x="403" y="258" on="0"/>
        <pt x="370" y="313" on="0"/>
        <pt x="332" y="363" on="0"/>
        <pt x="299" y="413" on="0"/>
        <pt x="277" y="467" on="0"/>
        <pt x="277" y="499" on="1"/>
        <pt x="277" y="529" on="0"/>
        <pt x="301" y="582" on="0"/>
        <pt x="341" y="621" on="0"/>
        <pt x="396" y="644" on="0"/>
        <pt x="428" y="644" on="1"/>
        <pt x="473" y="644" on="0"/>
        <pt x="525" y="598" on="0"/>
        <pt x="525" y="569" on="1"/>
        <pt x="525" y="552" on="0"/>
        <pt x="503" y="512" on="0"/>
        <pt x="492" y="497" on="1"/>
        <pt x="488" y="495" on="0"/>
        <pt x="483" y="500" on="0"/>
        <pt x="483" y="505" on="1"/>
        <pt x="496" y="521" on="0"/>
        <pt x="496" y="549" on="1"/>
        <pt x="496" y="578" on="0"/>
        <pt x="445" y="619" on="0"/>
        <pt x="403" y="619" on="1"/>
        <pt x="360" y="619" on="0"/>
        <pt x="307" y="570" on="0"/>
        <pt x="307" y="533" on="1"/>
        <pt x="307" y="503" on="0"/>
        <pt x="330" y="450" on="0"/>
        <pt x="364" y="397" on="0"/>
        <pt x="403" y="344" on="0"/>
        <pt x="437" y="287" on="0"/>
        <pt x="460" y="224" on="0"/>
        <pt x="460" y="187" on="1"/>
        <pt x="460" y="146" on="0"/>
        <pt x="424" y="77" on="0"/>
        <pt x="362" y="27" on="0"/>
        <pt x="278" y="0" on="0"/>
        <pt x="231" y="0" on="1"/>
        <pt x="143" y="0" on="0"/>
        <pt x="50" y="68" on="0"/>
      </contour>
    </TTGlyph>
    <TTGlyph name="Scaron" xMin="50" yMin="0" xMax="531" yMax="748">
      <contour>
        <pt x="443" y="671" on="1"/>
        <pt x="437" y="667" on="0"/>
        <pt x="431" y="672" on="1"/>
        <pt x="418" y="689" on="0"/>
        <pt x="377" y="725" on="0"/>
        <pt x="358" y="733" on="1"/>
        <pt x="353" y="738" on="0"/>
        <pt x="371" y="748" on="0"/>
        <pt x="384" y="746" on="1"/>
        <pt x="402" y="738" on="0"/>
        <pt x="434" y="715" on="0"/>
        <pt x="449" y="702" on="1"/>
        <pt x="455" y="707" on="0"/>
        <pt x="475" y="720" on="0"/>
        <pt x="496" y="733" on="0"/>
        <pt x="517" y="744" on="0"/>
        <pt x="524" y="748" on="1"/>
        <pt x="529" y="748" on="0"/>
        <pt x="531" y="742" on="0"/>
        <pt x="529" y="738" on="1"/>
        <pt x="512" y="728" on="0"/>
        <pt x="459" y="691" on="0"/>
      </contour>
      <contour>
        <pt x="50" y="121" on="1"/>
        <pt x="50" y="155" on="0"/>
        <pt x="85" y="212" on="0"/>
        <pt x="118" y="229" on="1"/>
        <pt x="122" y="231" on="0"/>
        <pt x="125" y="222" on="0"/>
        <pt x="123" y="219" on="1"/>
        <pt x="87" y="199" on="0"/>
        <pt x="87" y="147" on="1"/>
        <pt x="87" y="121" on="0"/>
        <pt x="109" y="76" on="0"/>
        <pt x="150" y="43" on="0"/>
        <pt x="209" y="23" on="0"/>
        <pt x="247" y="23" on="1"/>
        <pt x="338" y="23" on="0"/>
        <pt x="425" y="101" on="0"/>
        <pt x="425" y="158" on="1"/>
        <pt x="425" y="196" on="0"/>
        <pt x="403" y="258" on="0"/>
        <pt x="370" y="313" on="0"/>
        <pt x="332" y="363" on="0"/>
        <pt x="299" y="413" on="0"/>
        <pt x="277" y="467" on="0"/>
        <pt x="277" y="499" on="1"/>
        <pt x="277" y="529" on="0"/>
        <pt x="301" y="582" on="0"/>
        <pt x="341" y="621" on="0"/>
        <pt x="396" y="644" on="0"/>
        <pt x="428" y="644" on="1"/>
        <pt x="473" y="644" on="0"/>
        <pt x="525" y="598" on="0"/>
        <pt x="525" y="569" on="1"/>
        <pt x="525" y="552" on="0"/>
        <pt x="503" y="512" on="0"/>
        <pt x="492" y="497" on="1"/>
        <pt x="488" y="495" on="0"/>
        <pt x="483" y="500" on="0"/>
        <pt x="483" y="505" on="1"/>
        <pt x="496" y="521" on="0"/>
        <pt x="496" y="549" on="1"/>
        <pt x="496" y="578" on="0"/>
        <pt x="445" y="619" on="0"/>
        <pt x="403" y="619" on="1"/>
        <pt x="360" y="619" on="0"/>
        <pt x="307" y="570" on="0"/>
        <pt x="307" y="533" on="1"/>
        <pt x="307" y="503" on="0"/>
        <pt x="330" y="450" on="0"/>
        <pt x="364" y="397" on="0"/>
        <pt x="403" y="344" on="0"/>
        <pt x="437" y="287" on="0"/>
        <pt x="460" y="224" on="0"/>
        <pt x="460" y="187" on="1"/>
        <pt x="460" y="146" on="0"/>
        <pt x="424" y="77" on="0"/>
        <pt x="362" y="27" on="0"/>
        <pt x="278" y="0" on="0"/>
        <pt x="231" y="0" on="1"/>
        <pt x="143" y="0" on="0"/>
        <pt x="50" y="68" on="0"/>
      </contour>
    </TTGlyph>
    <TTGlyph name="T" xMin="50" yMin="1" xMax="815" yMax="644">
      <contour>
        <pt x="809" y="587" on="1"/>
        <pt x="815" y="581" on="0"/>
        <pt x="808" y="572" on="1"/>
        <pt x="792" y="549" on="0"/>
        <pt x="784" y="552" on="1"/>
        <pt x="772" y="556" on="0"/>
        <pt x="748" y="563" on="0"/>
        <pt x="735" y="566" on="1"/>
        <pt x="679" y="561" on="0"/>
        <pt x="591" y="454" on="0"/>
        <pt x="556" y="339" on="1"/>
        <pt x="504" y="170" on="0"/>
        <pt x="319" y="1" on="0"/>
        <pt x="188" y="1" on="1"/>
        <pt x="152" y="1" on="0"/>
        <pt x="100" y="20" on="0"/>
        <pt x="66" y="51" on="0"/>
        <pt x="50" y="92" on="0"/>
        <pt x="50" y="113" on="1"/>
        <pt x="50" y="173" on="0"/>
        <pt x="109" y="213" on="1"/>
        <pt x="113" y="213" on="0"/>
        <pt x="115" y="205" on="0"/>
        <pt x="113" y="202" on="1"/>
        <pt x="99" y="191" on="0"/>
        <pt x="86" y="166" on="0"/>
        <pt x="86" y="143" on="1"/>
        <pt x="86" y="92" on="0"/>
        <pt x="157" y="33" on="0"/>
        <pt x="227" y="33" on="1"/>
        <pt x="275" y="33" on="0"/>
        <pt x="355" y="59" on="0"/>
        <pt x="422" y="122" on="0"/>
        <pt x="479" y="228" on="0"/>
        <pt x="505" y="308" on="1"/>
        <pt x="541" y="420" on="0"/>
        <pt x="641" y="557" on="0"/>
        <pt x="704" y="574" on="1"/>
        <pt x="637" y="591" on="0"/>
        <pt x="493" y="611" on="0"/>
        <pt x="422" y="611" on="1"/>
        <pt x="366" y="611" on="0"/>
        <pt x="279" y="574" on="0"/>
        <pt x="221" y="512" on="0"/>
        <pt x="195" y="429" on="0"/>
        <pt x="201" y="384" on="1"/>
        <pt x="195" y="375" on="0"/>
        <pt x="190" y="383" on="1"/>
        <pt x="184" y="432" on="0"/>
        <pt x="211" y="526" on="0"/>
        <pt x="277" y="600" on="0"/>
        <pt x="383" y="644" on="0"/>
        <pt x="455" y="644" on="1"/>
        <pt x="562" y="644" on="0"/>
        <pt x="737" y="609" on="0"/>
      </contour>
    </TTGlyph>
    <TTGlyph name="Thorn" xMin="50" yMin="0" xMax="785" yMax="681">
      <contour>
        <pt x="616" y="527" on="1"/>
        <pt x="655" y="525" on="0"/>
        <pt x="717" y="498" on="0"/>
        <pt x="761" y="454" on="0"/>
        <pt x="785" y="398" on="0"/>
        <pt x="785" y="367" on="1"/>
        <pt x="785" y="322" on="0"/>
        <pt x="754" y="249" on="0"/>
        <pt x="692" y="196" on="0"/>
        <pt x="602" y="167" on="0"/>
        <pt x="543" y="167" on="1"/>
        <pt x="511" y="167" on="0"/>
        <pt x="484" y="178" on="1"/>
        <pt x="427" y="85" on="0"/>
        <pt x="285" y="0" on="0"/>
        <pt x="203" y="0" on="1"/>
        <pt x="165" y="0" on="0"/>
        <pt x="108" y="25" on="0"/>
        <pt x="69" y="65" on="0"/>
        <pt x="50" y="118" on="0"/>
        <pt x="50" y="146" on="1"/>
        <pt x="50" y="165" on="0"/>
        <pt x="61" y="205" on="0"/>
        <pt x="80" y="240" on="0"/>
        <pt x="108" y="268" on="0"/>
        <pt x="125" y="276" on="1"/>
        <pt x="135" y="280" on="0"/>
        <pt x="131" y="269" on="1"/>
        <pt x="102" y="253" on="0"/>
        <pt x="73" y="199" on="0"/>
        <pt x="73" y="168" on="1"/>
        <pt x="73" y="139" on="0"/>
        <pt x="94" y="89" on="0"/>
        <pt x="134" y="52" on="0"/>
        <pt x="192" y="31" on="0"/>
        <pt x="230" y="31" on="1"/>
        <pt x="267" y="31" on="0"/>
        <pt x="332" y="46" on="0"/>
        <pt x="389" y="83" on="0"/>
        <pt x="438" y="144" on="0"/>
        <pt x="460" y="190" on="1"/>
        <pt x="443" y="202" on="0"/>
        <pt x="434" y="215" on="1"/>
        <pt x="432" y="218" on="0"/>
        <pt x="437" y="224" on="0"/>
        <pt x="440" y="222" on="1"/>
        <pt x="446" y="216" on="0"/>
        <pt x="459" y="207" on="0"/>
        <pt x="466" y="202" on="1"/>
        <pt x="482" y="237" on="0"/>
        <pt x="511" y="320" on="0"/>
        <pt x="526" y="372" on="1"/>
        <pt x="536" y="410" on="0"/>
        <pt x="558" y="474" on="0"/>
        <pt x="570" y="503" on="1"/>
        <pt x="493" y="502" on="0"/>
        <pt x="406" y="434" on="0"/>
        <pt x="389" y="377" on="1"/>
        <pt x="386" y="374" on="0"/>
        <pt x="379" y="379" on="0"/>
        <pt x="379" y="387" on="1"/>
        <pt x="388" y="413" on="0"/>
        <pt x="420" y="461" on="0"/>
        <pt x="469" y="499" on="0"/>
        <pt x="536" y="523" on="0"/>
        <pt x="580" y="526" on="1"/>
        <pt x="611" y="590" on="0"/>
        <pt x="691" y="667" on="0"/>
        <pt x="748" y="681" on="1"/>
        <pt x="753" y="681" on="0"/>
        <pt x="753" y="673" on="0"/>
        <pt x="748" y="671" on="1"/>
        <pt x="704" y="658" on="0"/>
        <pt x="641" y="587" on="0"/>
      </contour>
      <contour>
        <pt x="552" y="182" on="1"/>
        <pt x="598" y="182" on="0"/>
        <pt x="669" y="209" on="0"/>
        <pt x="717" y="255" on="0"/>
        <pt x="741" y="316" on="0"/>
        <pt x="741" y="351" on="1"/>
        <pt x="741" y="413" on="0"/>
        <pt x="672" y="493" on="0"/>
        <pt x="606" y="501" on="1"/>
        <pt x="599" y="483" on="0"/>
        <pt x="587" y="443" on="0"/>
        <pt x="581" y="420" on="1"/>
        <pt x="563" y="350" on="0"/>
        <pt x="517" y="237" on="0"/>
        <pt x="491" y="191" on="1"/>
        <pt x="516" y="182" on="0"/>
      </contour>
    </TTGlyph>
    <TTGlyph name="U" xMin="64" yMin="0" xMax="846" yMax="644">
      <contour>
        <pt x="441" y="586" on="1"/>
        <pt x="415" y="596" on="0"/>
        <pt x="337" y="612" on="0"/>
        <pt x="296" y="612" on="1"/>
        <pt x="235" y="612" on="0"/>
        <pt x="147" y="559" on="0"/>
        <pt x="95" y="474" on="0"/>
        <pt x="78" y="368" on="0"/>
        <pt x="89" y="316" on="1"/>
        <pt x="88" y="312" on="0"/>
        <pt x="80" y="308" on="0"/>
        <pt x="78" y="312" on="1"/>
        <pt x="64" y="375" on="0"/>
        <pt x="88" y="494" on="0"/>
        <pt x="154" y="587" on="0"/>
        <pt x="261" y="644" on="0"/>
        <pt x="332" y="644" on="1"/>
        <pt x="374" y="644" on="0"/>
        <pt x="452" y="626" on="0"/>
        <pt x="483" y="612" on="1"/>
        <pt x="489" y="607" on="0"/>
        <pt x="480" y="600" on="1"/>
        <pt x="427" y="558" on="0"/>
        <pt x="346" y="453" on="0"/>
        <pt x="289" y="336" on="0"/>
        <pt x="260" y="213" on="0"/>
        <pt x="260" y="153" on="1"/>
        <pt x="260" y="87" on="0"/>
        <pt x="306" y="35" on="0"/>
        <pt x="344" y="35" on="1"/>
        <pt x="396" y="35" on="0"/>
        <pt x="496" y="105" on="0"/>
        <pt x="601" y="250" on="0"/>
        <pt x="718" y="471" on="0"/>
        <pt x="786" y="622" on="1"/>
        <pt x="790" y="630" on="0"/>
        <pt x="816" y="644" on="0"/>
        <pt x="830" y="644" on="1"/>
        <pt x="846" y="644" on="0"/>
        <pt x="846" y="637" on="1"/>
        <pt x="828" y="616" on="0"/>
        <pt x="784" y="539" on="0"/>
        <pt x="741" y="442" on="0"/>
        <pt x="700" y="332" on="0"/>
        <pt x="668" y="227" on="0"/>
        <pt x="649" y="134" on="0"/>
        <pt x="649" y="101" on="1"/>
        <pt x="649" y="44" on="0"/>
        <pt x="686" y="44" on="1"/>
        <pt x="724" y="44" on="0"/>
        <pt x="760" y="100" on="1"/>
        <pt x="763" y="103" on="0"/>
        <pt x="771" y="98" on="0"/>
        <pt x="770" y="94" on="1"/>
        <pt x="759" y="77" on="0"/>
        <pt x="732" y="44" on="0"/>
        <pt x="702" y="17" on="0"/>
        <pt x="673" y="0" on="0"/>
        <pt x="661" y="0" on="1"/>
        <pt x="633" y="0" on="0"/>
        <pt x="608" y="46" on="0"/>
        <pt x="608" y="78" on="1"/>
        <pt x="608" y="128" on="0"/>
        <pt x="638" y="266" on="0"/>
        <pt x="670" y="346" on="1"/>
        <pt x="579" y="175" on="0"/>
        <pt x="401" y="0" on="0"/>
        <pt x="313" y="0" on="1"/>
        <pt x="265" y="0" on="0"/>
        <pt x="216" y="65" on="0"/>
        <pt x="216" y="125" on="1"/>
        <pt x="216" y="186" on="0"/>
        <pt x="247" y="310" on="0"/>
        <pt x="305" y="429" on="0"/>
        <pt x="388" y="539" on="0"/>
      </contour>
    </TTGlyph>
    <TTGlyph name="Uacute" xMin="30" yMin="0" xMax="812" yMax="737">
      <contour>
        <pt x="647" y="734" on="1"/>
        <pt x="652" y="737" on="0"/>
        <pt x="679" y="728" on="0"/>
        <pt x="688" y="724" on="1"/>
        <pt x="690" y="722" on="0"/>
        <pt x="692" y="717" on="0"/>
        <pt x="689" y="715" on="1"/>
        <pt x="679" y="708" on="0"/>
        <pt x="648" y="692" on="0"/>
        <pt x="613" y="677" on="0"/>
        <pt x="576" y="663" on="0"/>
        <pt x="561" y="658" on="1"/>
        <pt x="557" y="658" on="0"/>
        <pt x="557" y="666" on="0"/>
        <pt x="560" y="669" on="1"/>
        <pt x="580" y="681" on="0"/>
        <pt x="628" y="714" on="0"/>
      </contour>
      <contour>
        <pt x="407" y="586" on="1"/>
        <pt x="381" y="596" on="0"/>
        <pt x="303" y="612" on="0"/>
        <pt x="262" y="612" on="1"/>
        <pt x="201" y="612" on="0"/>
        <pt x="113" y="559" on="0"/>
        <pt x="61" y="474" on="0"/>
        <pt x="44" y="368" on="0"/>
        <pt x="55" y="316" on="1"/>
        <pt x="54" y="312" on="0"/>
        <pt x="46" y="308" on="0"/>
        <pt x="44" y="312" on="1"/>
        <pt x="30" y="375" on="0"/>
        <pt x="54" y="494" on="0"/>
        <pt x="120" y="587" on="0"/>
        <pt x="227" y="644" on="0"/>
        <pt x="298" y="644" on="1"/>
        <pt x="340" y="644" on="0"/>
        <pt x="418" y="626" on="0"/>
        <pt x="449" y="612" on="1"/>
        <pt x="455" y="607" on="0"/>
        <pt x="446" y="600" on="1"/>
        <pt x="393" y="558" on="0"/>
        <pt x="312" y="453" on="0"/>
        <pt x="255" y="336" on="0"/>
        <pt x="226" y="213" on="0"/>
        <pt x="226" y="153" on="1"/>
        <pt x="226" y="87" on="0"/>
        <pt x="272" y="35" on="0"/>
        <pt x="310" y="35" on="1"/>
        <pt x="362" y="35" on="0"/>
        <pt x="462" y="105" on="0"/>
        <pt x="567" y="250" on="0"/>
        <pt x="684" y="471" on="0"/>
        <pt x="752" y="622" on="1"/>
        <pt x="756" y="630" on="0"/>
        <pt x="782" y="644" on="0"/>
        <pt x="796" y="644" on="1"/>
        <pt x="812" y="644" on="0"/>
        <pt x="812" y="637" on="1"/>
        <pt x="794" y="616" on="0"/>
        <pt x="750" y="539" on="0"/>
        <pt x="707" y="442" on="0"/>
        <pt x="666" y="332" on="0"/>
        <pt x="634" y="227" on="0"/>
        <pt x="615" y="134" on="0"/>
        <pt x="615" y="101" on="1"/>
        <pt x="615" y="44" on="0"/>
        <pt x="652" y="44" on="1"/>
        <pt x="690" y="44" on="0"/>
        <pt x="726" y="100" on="1"/>
        <pt x="729" y="103" on="0"/>
        <pt x="737" y="98" on="0"/>
        <pt x="736" y="94" on="1"/>
        <pt x="725" y="77" on="0"/>
        <pt x="698" y="44" on="0"/>
        <pt x="668" y="17" on="0"/>
        <pt x="639" y="0" on="0"/>
        <pt x="627" y="0" on="1"/>
        <pt x="599" y="0" on="0"/>
        <pt x="574" y="46" on="0"/>
        <pt x="574" y="78" on="1"/>
        <pt x="574" y="128" on="0"/>
        <pt x="604" y="266" on="0"/>
        <pt x="636" y="346" on="1"/>
        <pt x="545" y="175" on="0"/>
        <pt x="367" y="0" on="0"/>
        <pt x="279" y="0" on="1"/>
        <pt x="231" y="0" on="0"/>
        <pt x="182" y="65" on="0"/>
        <pt x="182" y="125" on="1"/>
        <pt x="182" y="186" on="0"/>
        <pt x="213" y="310" on="0"/>
        <pt x="271" y="429" on="0"/>
        <pt x="354" y="539" on="0"/>
      </contour>
    </TTGlyph>
    <TTGlyph name="Ucircumflex" xMin="30" yMin="0" xMax="812" yMax="751">
      <contour>
        <pt x="603" y="746" on="1"/>
        <pt x="608" y="751" on="0"/>
        <pt x="615" y="745" on="1"/>
        <pt x="628" y="728" on="0"/>
        <pt x="669" y="693" on="0"/>
        <pt x="689" y="684" on="1"/>
        <pt x="694" y="679" on="0"/>
        <pt x="675" y="669" on="0"/>
        <pt x="663" y="671" on="1"/>
        <pt x="644" y="679" on="0"/>
        <pt x="613" y="702" on="0"/>
        <pt x="597" y="715" on="1"/>
        <pt x="591" y="710" on="0"/>
        <pt x="571" y="698" on="0"/>
        <pt x="550" y="685" on="0"/>
        <pt x="529" y="673" on="0"/>
        <pt x="522" y="670" on="1"/>
        <pt x="512" y="670" on="0"/>
        <pt x="517" y="679" on="1"/>
        <pt x="534" y="689" on="0"/>
        <pt x="587" y="727" on="0"/>
      </contour>
      <contour>
        <pt x="407" y="586" on="1"/>
        <pt x="381" y="596" on="0"/>
        <pt x="303" y="612" on="0"/>
        <pt x="262" y="612" on="1"/>
        <pt x="201" y="612" on="0"/>
        <pt x="113" y="559" on="0"/>
        <pt x="61" y="474" on="0"/>
        <pt x="44" y="368" on="0"/>
        <pt x="55" y="316" on="1"/>
        <pt x="54" y="312" on="0"/>
        <pt x="46" y="308" on="0"/>
        <pt x="44" y="312" on="1"/>
        <pt x="30" y="375" on="0"/>
        <pt x="54" y="494" on="0"/>
        <pt x="120" y="587" on="0"/>
        <pt x="227" y="644" on="0"/>
        <pt x="298" y="644" on="1"/>
        <pt x="340" y="644" on="0"/>
        <pt x="418" y="626" on="0"/>
        <pt x="449" y="612" on="1"/>
        <pt x="455" y="607" on="0"/>
        <pt x="446" y="600" on="1"/>
        <pt x="393" y="558" on="0"/>
        <pt x="312" y="453" on="0"/>
        <pt x="255" y="336" on="0"/>
        <pt x="226" y="213" on="0"/>
        <pt x="226" y="153" on="1"/>
        <pt x="226" y="87" on="0"/>
        <pt x="272" y="35" on="0"/>
        <pt x="310" y="35" on="1"/>
        <pt x="362" y="35" on="0"/>
        <pt x="462" y="105" on="0"/>
        <pt x="567" y="250" on="0"/>
        <pt x="684" y="471" on="0"/>
        <pt x="752" y="622" on="1"/>
        <pt x="756" y="630" on="0"/>
        <pt x="782" y="644" on="0"/>
        <pt x="796" y="644" on="1"/>
        <pt x="812" y="644" on="0"/>
        <pt x="812" y="637" on="1"/>
        <pt x="794" y="616" on="0"/>
        <pt x="750" y="539" on="0"/>
        <pt x="707" y="442" on="0"/>
        <pt x="666" y="332" on="0"/>
        <pt x="634" y="227" on="0"/>
        <pt x="615" y="134" on="0"/>
        <pt x="615" y="101" on="1"/>
        <pt x="615" y="44" on="0"/>
        <pt x="652" y="44" on="1"/>
        <pt x="690" y="44" on="0"/>
        <pt x="726" y="100" on="1"/>
        <pt x="729" y="103" on="0"/>
        <pt x="737" y="98" on="0"/>
        <pt x="736" y="94" on="1"/>
        <pt x="725" y="77" on="0"/>
        <pt x="698" y="44" on="0"/>
        <pt x="668" y="17" on="0"/>
        <pt x="639" y="0" on="0"/>
        <pt x="627" y="0" on="1"/>
        <pt x="599" y="0" on="0"/>
        <pt x="574" y="46" on="0"/>
        <pt x="574" y="78" on="1"/>
        <pt x="574" y="128" on="0"/>
        <pt x="604" y="266" on="0"/>
        <pt x="636" y="346" on="1"/>
        <pt x="545" y="175" on="0"/>
        <pt x="367" y="0" on="0"/>
        <pt x="279" y="0" on="1"/>
        <pt x="231" y="0" on="0"/>
        <pt x="182" y="65" on="0"/>
        <pt x="182" y="125" on="1"/>
        <pt x="182" y="186" on="0"/>
        <pt x="213" y="310" on="0"/>
        <pt x="271" y="429" on="0"/>
        <pt x="354" y="539" on="0"/>
      </contour>
    </TTGlyph>
    <TTGlyph name="Udieresis" xMin="30" yMin="0" xMax="812" yMax="721">
      <contour>
        <pt x="553" y="667" on="1"/>
        <pt x="542" y="667" on="0"/>
        <pt x="542" y="684" on="1"/>
        <pt x="542" y="694" on="0"/>
        <pt x="562" y="721" on="0"/>
        <pt x="578" y="721" on="1"/>
        <pt x="587" y="721" on="0"/>
        <pt x="587" y="708" on="1"/>
        <pt x="587" y="694" on="0"/>
        <pt x="567" y="667" on="0"/>
      </contour>
      <contour>
        <pt x="630" y="667" on="1"/>
        <pt x="618" y="667" on="0"/>
        <pt x="618" y="684" on="1"/>
        <pt x="618" y="694" on="0"/>
        <pt x="638" y="721" on="0"/>
        <pt x="653" y="721" on="1"/>
        <pt x="662" y="721" on="0"/>
        <pt x="662" y="708" on="1"/>
        <pt x="662" y="694" on="0"/>
        <pt x="642" y="667" on="0"/>
      </contour>
      <contour>
        <pt x="407" y="586" on="1"/>
        <pt x="381" y="596" on="0"/>
        <pt x="303" y="612" on="0"/>
        <pt x="262" y="612" on="1"/>
        <pt x="201" y="612" on="0"/>
        <pt x="113" y="559" on="0"/>
        <pt x="61" y="474" on="0"/>
        <pt x="44" y="368" on="0"/>
        <pt x="55" y="316" on="1"/>
        <pt x="54" y="312" on="0"/>
        <pt x="46" y="308" on="0"/>
        <pt x="44" y="312" on="1"/>
        <pt x="30" y="375" on="0"/>
        <pt x="54" y="494" on="0"/>
        <pt x="120" y="587" on="0"/>
        <pt x="227" y="644" on="0"/>
        <pt x="298" y="644" on="1"/>
        <pt x="340" y="644" on="0"/>
        <pt x="418" y="626" on="0"/>
        <pt x="449" y="612" on="1"/>
        <pt x="455" y="607" on="0"/>
        <pt x="446" y="600" on="1"/>
        <pt x="393" y="558" on="0"/>
        <pt x="312" y="453" on="0"/>
        <pt x="255" y="336" on="0"/>
        <pt x="226" y="213" on="0"/>
        <pt x="226" y="153" on="1"/>
        <pt x="226" y="87" on="0"/>
        <pt x="272" y="35" on="0"/>
        <pt x="310" y="35" on="1"/>
        <pt x="362" y="35" on="0"/>
        <pt x="462" y="105" on="0"/>
        <pt x="567" y="250" on="0"/>
        <pt x="684" y="471" on="0"/>
        <pt x="752" y="622" on="1"/>
        <pt x="756" y="630" on="0"/>
        <pt x="782" y="644" on="0"/>
        <pt x="796" y="644" on="1"/>
        <pt x="812" y="644" on="0"/>
        <pt x="812" y="637" on="1"/>
        <pt x="794" y="616" on="0"/>
        <pt x="750" y="539" on="0"/>
        <pt x="707" y="442" on="0"/>
        <pt x="666" y="332" on="0"/>
        <pt x="634" y="227" on="0"/>
        <pt x="615" y="134" on="0"/>
        <pt x="615" y="101" on="1"/>
        <pt x="615" y="44" on="0"/>
        <pt x="652" y="44" on="1"/>
        <pt x="690" y="44" on="0"/>
        <pt x="726" y="100" on="1"/>
        <pt x="729" y="103" on="0"/>
        <pt x="737" y="98" on="0"/>
        <pt x="736" y="94" on="1"/>
        <pt x="725" y="77" on="0"/>
        <pt x="698" y="44" on="0"/>
        <pt x="668" y="17" on="0"/>
        <pt x="639" y="0" on="0"/>
        <pt x="627" y="0" on="1"/>
        <pt x="599" y="0" on="0"/>
        <pt x="574" y="46" on="0"/>
        <pt x="574" y="78" on="1"/>
        <pt x="574" y="128" on="0"/>
        <pt x="604" y="266" on="0"/>
        <pt x="636" y="346" on="1"/>
        <pt x="545" y="175" on="0"/>
        <pt x="367" y="0" on="0"/>
        <pt x="279" y="0" on="1"/>
        <pt x="231" y="0" on="0"/>
        <pt x="182" y="65" on="0"/>
        <pt x="182" y="125" on="1"/>
        <pt x="182" y="186" on="0"/>
        <pt x="213" y="310" on="0"/>
        <pt x="271" y="429" on="0"/>
        <pt x="354" y="539" on="0"/>
      </contour>
    </TTGlyph>
    <TTGlyph name="Ugrave" xMin="30" yMin="0" xMax="812" yMax="733">
      <contour>
        <pt x="648" y="669" on="1"/>
        <pt x="650" y="667" on="0"/>
        <pt x="645" y="660" on="0"/>
        <pt x="640" y="660" on="1"/>
        <pt x="628" y="663" on="0"/>
        <pt x="594" y="675" on="0"/>
        <pt x="560" y="689" on="0"/>
        <pt x="528" y="703" on="0"/>
        <pt x="517" y="709" on="1"/>
        <pt x="515" y="710" on="0"/>
        <pt x="515" y="715" on="0"/>
        <pt x="517" y="717" on="1"/>
        <pt x="527" y="725" on="0"/>
        <pt x="555" y="733" on="0"/>
        <pt x="557" y="731" on="1"/>
        <pt x="574" y="717" on="0"/>
        <pt x="621" y="684" on="0"/>
      </contour>
      <contour>
        <pt x="407" y="586" on="1"/>
        <pt x="381" y="596" on="0"/>
        <pt x="303" y="612" on="0"/>
        <pt x="262" y="612" on="1"/>
        <pt x="201" y="612" on="0"/>
        <pt x="113" y="559" on="0"/>
        <pt x="61" y="474" on="0"/>
        <pt x="44" y="368" on="0"/>
        <pt x="55" y="316" on="1"/>
        <pt x="54" y="312" on="0"/>
        <pt x="46" y="308" on="0"/>
        <pt x="44" y="312" on="1"/>
        <pt x="30" y="375" on="0"/>
        <pt x="54" y="494" on="0"/>
        <pt x="120" y="587" on="0"/>
        <pt x="227" y="644" on="0"/>
        <pt x="298" y="644" on="1"/>
        <pt x="340" y="644" on="0"/>
        <pt x="418" y="626" on="0"/>
        <pt x="449" y="612" on="1"/>
        <pt x="455" y="607" on="0"/>
        <pt x="446" y="600" on="1"/>
        <pt x="393" y="558" on="0"/>
        <pt x="312" y="453" on="0"/>
        <pt x="255" y="336" on="0"/>
        <pt x="226" y="213" on="0"/>
        <pt x="226" y="153" on="1"/>
        <pt x="226" y="87" on="0"/>
        <pt x="272" y="35" on="0"/>
        <pt x="310" y="35" on="1"/>
        <pt x="362" y="35" on="0"/>
        <pt x="462" y="105" on="0"/>
        <pt x="567" y="250" on="0"/>
        <pt x="684" y="471" on="0"/>
        <pt x="752" y="622" on="1"/>
        <pt x="756" y="630" on="0"/>
        <pt x="782" y="644" on="0"/>
        <pt x="796" y="644" on="1"/>
        <pt x="812" y="644" on="0"/>
        <pt x="812" y="637" on="1"/>
        <pt x="794" y="616" on="0"/>
        <pt x="750" y="539" on="0"/>
        <pt x="707" y="442" on="0"/>
        <pt x="666" y="332" on="0"/>
        <pt x="634" y="227" on="0"/>
        <pt x="615" y="134" on="0"/>
        <pt x="615" y="101" on="1"/>
        <pt x="615" y="44" on="0"/>
        <pt x="652" y="44" on="1"/>
        <pt x="690" y="44" on="0"/>
        <pt x="726" y="100" on="1"/>
        <pt x="729" y="103" on="0"/>
        <pt x="737" y="98" on="0"/>
        <pt x="736" y="94" on="1"/>
        <pt x="725" y="77" on="0"/>
        <pt x="698" y="44" on="0"/>
        <pt x="668" y="17" on="0"/>
        <pt x="639" y="0" on="0"/>
        <pt x="627" y="0" on="1"/>
        <pt x="599" y="0" on="0"/>
        <pt x="574" y="46" on="0"/>
        <pt x="574" y="78" on="1"/>
        <pt x="574" y="128" on="0"/>
        <pt x="604" y="266" on="0"/>
        <pt x="636" y="346" on="1"/>
        <pt x="545" y="175" on="0"/>
        <pt x="367" y="0" on="0"/>
        <pt x="279" y="0" on="1"/>
        <pt x="231" y="0" on="0"/>
        <pt x="182" y="65" on="0"/>
        <pt x="182" y="125" on="1"/>
        <pt x="182" y="186" on="0"/>
        <pt x="213" y="310" on="0"/>
        <pt x="271" y="429" on="0"/>
        <pt x="354" y="539" on="0"/>
      </contour>
    </TTGlyph>
    <TTGlyph name="V" xMin="70" yMin="-1" xMax="751" yMax="644">
      <contour>
        <pt x="751" y="526" on="1"/>
        <pt x="751" y="449" on="0"/>
        <pt x="685" y="318" on="0"/>
        <pt x="577" y="195" on="0"/>
        <pt x="439" y="70" on="0"/>
        <pt x="367" y="-1" on="1"/>
        <pt x="360" y="-1" on="0"/>
        <pt x="357" y="6" on="0"/>
        <pt x="360" y="18" on="0"/>
        <pt x="366" y="32" on="0"/>
        <pt x="369" y="39" on="1"/>
        <pt x="391" y="92" on="0"/>
        <pt x="419" y="219" on="0"/>
        <pt x="426" y="346" on="0"/>
        <pt x="413" y="465" on="0"/>
        <pt x="374" y="557" on="0"/>
        <pt x="310" y="612" on="0"/>
        <pt x="263" y="612" on="1"/>
        <pt x="195" y="612" on="0"/>
        <pt x="109" y="497" on="0"/>
        <pt x="80" y="387" on="1"/>
        <pt x="78" y="383" on="0"/>
        <pt x="70" y="385" on="0"/>
        <pt x="70" y="389" on="1"/>
        <pt x="99" y="514" on="0"/>
        <pt x="205" y="644" on="0"/>
        <pt x="280" y="644" on="1"/>
        <pt x="326" y="644" on="0"/>
        <pt x="392" y="598" on="0"/>
        <pt x="436" y="518" on="0"/>
        <pt x="456" y="409" on="0"/>
        <pt x="456" y="282" on="0"/>
        <pt x="435" y="143" on="0"/>
        <pt x="416" y="73" on="1"/>
        <pt x="486" y="131" on="0"/>
        <pt x="598" y="233" on="0"/>
        <pt x="674" y="332" on="0"/>
        <pt x="715" y="434" on="0"/>
        <pt x="715" y="492" on="1"/>
        <pt x="715" y="542" on="0"/>
        <pt x="669" y="600" on="0"/>
        <pt x="634" y="602" on="1"/>
        <pt x="606" y="603" on="0"/>
        <pt x="586" y="562" on="1"/>
        <pt x="583" y="560" on="0"/>
        <pt x="577" y="564" on="0"/>
        <pt x="577" y="569" on="1"/>
        <pt x="582" y="583" on="0"/>
        <pt x="601" y="610" on="0"/>
        <pt x="622" y="631" on="0"/>
        <pt x="644" y="644" on="0"/>
        <pt x="652" y="644" on="1"/>
        <pt x="673" y="644" on="0"/>
        <pt x="709" y="626" on="0"/>
        <pt x="736" y="594" on="0"/>
        <pt x="751" y="551" on="0"/>
      </contour>
    </TTGlyph>
    <TTGlyph name="W" xMin="70" yMin="0" xMax="932" yMax="649">
      <contour>
        <pt x="577" y="35" on="1"/>
        <pt x="581" y="93" on="0"/>
        <pt x="570" y="224" on="0"/>
        <pt x="560" y="347" on="0"/>
        <pt x="560" y="448" on="0"/>
        <pt x="576" y="477" on="1"/>
        <pt x="539" y="424" on="0"/>
        <pt x="479" y="332" on="0"/>
        <pt x="425" y="237" on="0"/>
        <pt x="374" y="132" on="0"/>
        <pt x="346" y="68" on="1"/>
        <pt x="331" y="33" on="0"/>
        <pt x="322" y="0" on="0"/>
        <pt x="313" y="0" on="1"/>
        <pt x="305" y="0" on="0"/>
        <pt x="301" y="15" on="0"/>
        <pt x="308" y="35" on="1"/>
        <pt x="359" y="169" on="0"/>
        <pt x="392" y="383" on="0"/>
        <pt x="369" y="533" on="0"/>
        <pt x="296" y="613" on="0"/>
        <pt x="242" y="613" on="1"/>
        <pt x="205" y="613" on="0"/>
        <pt x="146" y="583" on="0"/>
        <pt x="105" y="529" on="0"/>
        <pt x="83" y="455" on="0"/>
        <pt x="83" y="412" on="1"/>
        <pt x="81" y="406" on="0"/>
        <pt x="72" y="404" on="0"/>
        <pt x="72" y="409" on="1"/>
        <pt x="70" y="457" on="0"/>
        <pt x="98" y="544" on="0"/>
        <pt x="151" y="610" on="0"/>
        <pt x="227" y="649" on="0"/>
        <pt x="275" y="649" on="1"/>
        <pt x="316" y="649" on="0"/>
        <pt x="372" y="607" on="0"/>
        <pt x="404" y="532" on="0"/>
        <pt x="414" y="431" on="0"/>
        <pt x="404" y="313" on="0"/>
        <pt x="375" y="183" on="0"/>
        <pt x="353" y="118" on="1"/>
        <pt x="380" y="180" on="0"/>
        <pt x="453" y="317" on="0"/>
        <pt x="536" y="447" on="0"/>
        <pt x="623" y="559" on="0"/>
        <pt x="665" y="597" on="1"/>
        <pt x="668" y="598" on="0"/>
        <pt x="673" y="592" on="0"/>
        <pt x="675" y="582" on="0"/>
        <pt x="674" y="572" on="0"/>
        <pt x="671" y="568" on="1"/>
        <pt x="657" y="559" on="0"/>
        <pt x="638" y="542" on="0"/>
        <pt x="627" y="528" on="1"/>
        <pt x="610" y="506" on="0"/>
        <pt x="597" y="438" on="0"/>
        <pt x="596" y="358" on="0"/>
        <pt x="605" y="268" on="0"/>
        <pt x="613" y="179" on="0"/>
        <pt x="617" y="95" on="0"/>
        <pt x="613" y="60" on="1"/>
        <pt x="651" y="117" on="0"/>
        <pt x="749" y="222" on="0"/>
        <pt x="837" y="332" on="0"/>
        <pt x="897" y="454" on="0"/>
        <pt x="897" y="529" on="1"/>
        <pt x="897" y="561" on="0"/>
        <pt x="879" y="603" on="0"/>
        <pt x="862" y="605" on="1"/>
        <pt x="850" y="606" on="0"/>
        <pt x="832" y="581" on="0"/>
        <pt x="825" y="566" on="1"/>
        <pt x="815" y="562" on="0"/>
        <pt x="815" y="573" on="1"/>
        <pt x="826" y="601" on="0"/>
        <pt x="862" y="644" on="0"/>
        <pt x="879" y="644" on="1"/>
        <pt x="903" y="644" on="0"/>
        <pt x="932" y="596" on="0"/>
        <pt x="932" y="562" on="1"/>
        <pt x="932" y="502" on="0"/>
        <pt x="900" y="403" on="0"/>
        <pt x="847" y="316" on="0"/>
        <pt x="779" y="236" on="0"/>
        <pt x="708" y="157" on="0"/>
        <pt x="639" y="74" on="0"/>
        <pt x="611" y="27" on="1"/>
        <pt x="603" y="15" on="0"/>
        <pt x="590" y="0" on="0"/>
        <pt x="582" y="0" on="1"/>
        <pt x="577" y="0" on="0"/>
        <pt x="574" y="6" on="0"/>
        <pt x="574" y="16" on="0"/>
        <pt x="577" y="29" on="0"/>
      </contour>
    </TTGlyph>
    <TTGlyph name="X" xMin="50" yMin="1" xMax="846" yMax="645">
      <contour>
        <pt x="814" y="645" on="1"/>
        <pt x="828" y="645" on="0"/>
        <pt x="846" y="618" on="0"/>
        <pt x="846" y="590" on="1"/>
        <pt x="846" y="567" on="0"/>
        <pt x="830" y="510" on="0"/>
        <pt x="819" y="491" on="1"/>
        <pt x="815" y="489" on="0"/>
        <pt x="807" y="493" on="0"/>
        <pt x="808" y="498" on="1"/>
        <pt x="818" y="522" on="0"/>
        <pt x="818" y="544" on="1"/>
        <pt x="818" y="570" on="0"/>
        <pt x="796" y="597" on="0"/>
        <pt x="768" y="597" on="1"/>
        <pt x="733" y="597" on="0"/>
        <pt x="660" y="558" on="0"/>
        <pt x="589" y="489" on="0"/>
        <pt x="525" y="395" on="0"/>
        <pt x="499" y="340" on="1"/>
        <pt x="529" y="202" on="0"/>
        <pt x="640" y="43" on="0"/>
        <pt x="715" y="43" on="1"/>
        <pt x="741" y="43" on="0"/>
        <pt x="784" y="76" on="0"/>
        <pt x="800" y="115" on="1"/>
        <pt x="803" y="119" on="0"/>
        <pt x="810" y="114" on="0"/>
        <pt x="810" y="107" on="1"/>
        <pt x="784" y="47" on="0"/>
        <pt x="730" y="1" on="0"/>
        <pt x="695" y="1" on="1"/>
        <pt x="651" y="1" on="0"/>
        <pt x="580" y="50" on="0"/>
        <pt x="524" y="133" on="0"/>
        <pt x="484" y="242" on="0"/>
        <pt x="471" y="301" on="1"/>
        <pt x="471" y="302" on="1"/>
        <pt x="393" y="152" on="0"/>
        <pt x="222" y="1" on="0"/>
        <pt x="141" y="1" on="1"/>
        <pt x="99" y="1" on="0"/>
        <pt x="50" y="35" on="0"/>
        <pt x="50" y="58" on="1"/>
        <pt x="50" y="66" on="0"/>
        <pt x="58" y="95" on="0"/>
        <pt x="73" y="130" on="0"/>
        <pt x="94" y="168" on="0"/>
        <pt x="106" y="186" on="1"/>
        <pt x="109" y="189" on="0"/>
        <pt x="119" y="184" on="0"/>
        <pt x="117" y="178" on="1"/>
        <pt x="101" y="155" on="0"/>
        <pt x="90" y="113" on="0"/>
        <pt x="93" y="92" on="1"/>
        <pt x="96" y="69" on="0"/>
        <pt x="133" y="43" on="0"/>
        <pt x="168" y="43" on="1"/>
        <pt x="212" y="43" on="0"/>
        <pt x="292" y="84" on="0"/>
        <pt x="367" y="158" on="0"/>
        <pt x="435" y="261" on="0"/>
        <pt x="467" y="323" on="1"/>
        <pt x="454" y="386" on="0"/>
        <pt x="439" y="488" on="0"/>
        <pt x="425" y="559" on="0"/>
        <pt x="406" y="597" on="0"/>
        <pt x="389" y="597" on="1"/>
        <pt x="369" y="597" on="0"/>
        <pt x="330" y="550" on="0"/>
        <pt x="311" y="514" on="1"/>
        <pt x="306" y="509" on="0"/>
        <pt x="297" y="514" on="0"/>
        <pt x="299" y="520" on="1"/>
        <pt x="310" y="544" on="0"/>
        <pt x="340" y="589" on="0"/>
        <pt x="371" y="624" on="0"/>
        <pt x="402" y="645" on="0"/>
        <pt x="413" y="645" on="1"/>
        <pt x="435" y="645" on="0"/>
        <pt x="459" y="595" on="0"/>
        <pt x="473" y="515" on="0"/>
        <pt x="484" y="414" on="0"/>
        <pt x="494" y="364" on="1"/>
        <pt x="522" y="425" on="0"/>
        <pt x="595" y="529" on="0"/>
        <pt x="679" y="603" on="0"/>
        <pt x="769" y="645" on="0"/>
      </contour>
    </TTGlyph>
    <TTGlyph name="Y" xMin="7" yMin="-128" xMax="874" yMax="644">
      <contour>
        <pt x="427" y="644" on="1"/>
        <pt x="445" y="644" on="0"/>
        <pt x="466" y="626" on="0"/>
        <pt x="472" y="584" on="0"/>
        <pt x="460" y="517" on="0"/>
        <pt x="444" y="468" on="1"/>
        <pt x="424" y="407" on="0"/>
        <pt x="392" y="308" on="0"/>
        <pt x="384" y="258" on="1"/>
        <pt x="378" y="215" on="0"/>
        <pt x="402" y="171" on="0"/>
        <pt x="441" y="171" on="1"/>
        <pt x="528" y="171" on="0"/>
        <pt x="716" y="401" on="0"/>
        <pt x="829" y="628" on="1"/>
        <pt x="848" y="644" on="0"/>
        <pt x="863" y="644" on="1"/>
        <pt x="874" y="644" on="0"/>
        <pt x="871" y="630" on="1"/>
        <pt x="768" y="411" on="0"/>
        <pt x="594" y="119" on="0"/>
        <pt x="432" y="-56" on="0"/>
        <pt x="272" y="-128" on="0"/>
        <pt x="183" y="-128" on="1"/>
        <pt x="141" y="-128" on="0"/>
        <pt x="75" y="-100" on="0"/>
        <pt x="30" y="-52" on="0"/>
        <pt x="7" y="11" on="0"/>
        <pt x="7" y="46" on="1"/>
        <pt x="7" y="84" on="0"/>
        <pt x="34" y="156" on="0"/>
        <pt x="87" y="213" on="0"/>
        <pt x="166" y="253" on="0"/>
        <pt x="219" y="259" on="1"/>
        <pt x="224" y="258" on="0"/>
        <pt x="223" y="250" on="0"/>
        <pt x="218" y="245" on="1"/>
        <pt x="172" y="239" on="0"/>
        <pt x="107" y="208" on="0"/>
        <pt x="65" y="162" on="0"/>
        <pt x="46" y="104" on="0"/>
        <pt x="46" y="71" on="1"/>
        <pt x="46" y="-5" on="0"/>
        <pt x="134" y="-94" on="0"/>
        <pt x="221" y="-94" on="1"/>
        <pt x="285" y="-94" on="0"/>
        <pt x="401" y="-50" on="0"/>
        <pt x="513" y="54" on="0"/>
        <pt x="626" y="225" on="0"/>
        <pt x="688" y="351" on="1"/>
        <pt x="660" y="305" on="0"/>
        <pt x="591" y="226" on="0"/>
        <pt x="519" y="167" on="0"/>
        <pt x="448" y="134" on="0"/>
        <pt x="418" y="134" on="1"/>
        <pt x="373" y="134" on="0"/>
        <pt x="336" y="186" on="0"/>
        <pt x="343" y="232" on="1"/>
        <pt x="351" y="287" on="0"/>
        <pt x="384" y="397" on="0"/>
        <pt x="400" y="448" on="1"/>
        <pt x="416" y="498" on="0"/>
        <pt x="430" y="562" on="0"/>
        <pt x="428" y="600" on="0"/>
        <pt x="414" y="614" on="0"/>
        <pt x="401" y="614" on="1"/>
        <pt x="389" y="614" on="0"/>
        <pt x="363" y="602" on="0"/>
        <pt x="339" y="584" on="0"/>
        <pt x="318" y="562" on="0"/>
        <pt x="312" y="551" on="1"/>
        <pt x="308" y="547" on="0"/>
        <pt x="301" y="554" on="0"/>
        <pt x="302" y="559" on="1"/>
        <pt x="309" y="570" on="0"/>
        <pt x="335" y="600" on="0"/>
        <pt x="370" y="626" on="0"/>
        <pt x="408" y="644" on="0"/>
      </contour>
    </TTGlyph>
    <TTGlyph name="Yacute" xMin="7" yMin="-128" xMax="874" yMax="737">
      <contour>
        <pt x="688" y="734" on="1"/>
        <pt x="693" y="737" on="0"/>
        <pt x="720" y="728" on="0"/>
        <pt x="729" y="724" on="1"/>
        <pt x="731" y="722" on="0"/>
        <pt x="733" y="717" on="0"/>
        <pt x="730" y="715" on="1"/>
        <pt x="720" y="708" on="0"/>
        <pt x="689" y="692" on="0"/>
        <pt x="654" y="677" on="0"/>
        <pt x="617" y="663" on="0"/>
        <pt x="602" y="658" on="1"/>
        <pt x="598" y="658" on="0"/>
        <pt x="598" y="666" on="0"/>
        <pt x="601" y="669" on="1"/>
        <pt x="621" y="681" on="0"/>
        <pt x="669" y="714" on="0"/>
      </contour>
      <contour>
        <pt x="427" y="644" on="1"/>
        <pt x="445" y="644" on="0"/>
        <pt x="466" y="626" on="0"/>
        <pt x="472" y="584" on="0"/>
        <pt x="460" y="517" on="0"/>
        <pt x="444" y="468" on="1"/>
        <pt x="424" y="407" on="0"/>
        <pt x="392" y="308" on="0"/>
        <pt x="384" y="258" on="1"/>
        <pt x="378" y="215" on="0"/>
        <pt x="402" y="171" on="0"/>
        <pt x="441" y="171" on="1"/>
        <pt x="528" y="171" on="0"/>
        <pt x="716" y="401" on="0"/>
        <pt x="829" y="628" on="1"/>
        <pt x="848" y="644" on="0"/>
        <pt x="863" y="644" on="1"/>
        <pt x="874" y="644" on="0"/>
        <pt x="871" y="630" on="1"/>
        <pt x="768" y="411" on="0"/>
        <pt x="594" y="119" on="0"/>
        <pt x="432" y="-56" on="0"/>
        <pt x="272" y="-128" on="0"/>
        <pt x="183" y="-128" on="1"/>
        <pt x="141" y="-128" on="0"/>
        <pt x="75" y="-100" on="0"/>
        <pt x="30" y="-52" on="0"/>
        <pt x="7" y="11" on="0"/>
        <pt x="7" y="46" on="1"/>
        <pt x="7" y="84" on="0"/>
        <pt x="34" y="156" on="0"/>
        <pt x="87" y="213" on="0"/>
        <pt x="166" y="253" on="0"/>
        <pt x="219" y="259" on="1"/>
        <pt x="224" y="258" on="0"/>
        <pt x="223" y="250" on="0"/>
        <pt x="218" y="245" on="1"/>
        <pt x="172" y="239" on="0"/>
        <pt x="107" y="208" on="0"/>
        <pt x="65" y="162" on="0"/>
        <pt x="46" y="104" on="0"/>
        <pt x="46" y="71" on="1"/>
        <pt x="46" y="-5" on="0"/>
        <pt x="134" y="-94" on="0"/>
        <pt x="221" y="-94" on="1"/>
        <pt x="285" y="-94" on="0"/>
        <pt x="401" y="-50" on="0"/>
        <pt x="513" y="54" on="0"/>
        <pt x="626" y="225" on="0"/>
        <pt x="688" y="351" on="1"/>
        <pt x="660" y="305" on="0"/>
        <pt x="591" y="226" on="0"/>
        <pt x="519" y="167" on="0"/>
        <pt x="448" y="134" on="0"/>
        <pt x="418" y="134" on="1"/>
        <pt x="373" y="134" on="0"/>
        <pt x="336" y="186" on="0"/>
        <pt x="343" y="232" on="1"/>
        <pt x="351" y="287" on="0"/>
        <pt x="384" y="397" on="0"/>
        <pt x="400" y="448" on="1"/>
        <pt x="416" y="498" on="0"/>
        <pt x="430" y="562" on="0"/>
        <pt x="428" y="600" on="0"/>
        <pt x="414" y="614" on="0"/>
        <pt x="401" y="614" on="1"/>
        <pt x="389" y="614" on="0"/>
        <pt x="363" y="602" on="0"/>
        <pt x="339" y="584" on="0"/>
        <pt x="318" y="562" on="0"/>
        <pt x="312" y="551" on="1"/>
        <pt x="308" y="547" on="0"/>
        <pt x="301" y="554" on="0"/>
        <pt x="302" y="559" on="1"/>
        <pt x="309" y="570" on="0"/>
        <pt x="335" y="600" on="0"/>
        <pt x="370" y="626" on="0"/>
        <pt x="408" y="644" on="0"/>
      </contour>
    </TTGlyph>
    <TTGlyph name="Ydieresis" xMin="7" yMin="-128" xMax="874" yMax="721">
      <contour>
        <pt x="591" y="667" on="1"/>
        <pt x="580" y="667" on="0"/>
        <pt x="580" y="684" on="1"/>
        <pt x="580" y="694" on="0"/>
        <pt x="600" y="721" on="0"/>
        <pt x="616" y="721" on="1"/>
        <pt x="625" y="721" on="0"/>
        <pt x="625" y="708" on="1"/>
        <pt x="625" y="694" on="0"/>
        <pt x="605" y="667" on="0"/>
      </contour>
      <contour>
        <pt x="668" y="667" on="1"/>
        <pt x="656" y="667" on="0"/>
        <pt x="656" y="684" on="1"/>
        <pt x="656" y="694" on="0"/>
        <pt x="676" y="721" on="0"/>
        <pt x="691" y="721" on="1"/>
        <pt x="700" y="721" on="0"/>
        <pt x="700" y="708" on="1"/>
        <pt x="700" y="694" on="0"/>
        <pt x="680" y="667" on="0"/>
      </contour>
      <contour>
        <pt x="427" y="644" on="1"/>
        <pt x="445" y="644" on="0"/>
        <pt x="466" y="626" on="0"/>
        <pt x="472" y="584" on="0"/>
        <pt x="460" y="517" on="0"/>
        <pt x="444" y="468" on="1"/>
        <pt x="424" y="407" on="0"/>
        <pt x="392" y="308" on="0"/>
        <pt x="384" y="258" on="1"/>
        <pt x="378" y="215" on="0"/>
        <pt x="402" y="171" on="0"/>
        <pt x="441" y="171" on="1"/>
        <pt x="528" y="171" on="0"/>
        <pt x="716" y="401" on="0"/>
        <pt x="829" y="628" on="1"/>
        <pt x="848" y="644" on="0"/>
        <pt x="863" y="644" on="1"/>
        <pt x="874" y="644" on="0"/>
        <pt x="871" y="630" on="1"/>
        <pt x="768" y="411" on="0"/>
        <pt x="594" y="119" on="0"/>
        <pt x="432" y="-56" on="0"/>
        <pt x="272" y="-128" on="0"/>
        <pt x="183" y="-128" on="1"/>
        <pt x="141" y="-128" on="0"/>
        <pt x="75" y="-100" on="0"/>
        <pt x="30" y="-52" on="0"/>
        <pt x="7" y="11" on="0"/>
        <pt x="7" y="46" on="1"/>
        <pt x="7" y="84" on="0"/>
        <pt x="34" y="156" on="0"/>
        <pt x="87" y="213" on="0"/>
        <pt x="166" y="253" on="0"/>
        <pt x="219" y="259" on="1"/>
        <pt x="224" y="258" on="0"/>
        <pt x="223" y="250" on="0"/>
        <pt x="218" y="245" on="1"/>
        <pt x="172" y="239" on="0"/>
        <pt x="107" y="208" on="0"/>
        <pt x="65" y="162" on="0"/>
        <pt x="46" y="104" on="0"/>
        <pt x="46" y="71" on="1"/>
        <pt x="46" y="-5" on="0"/>
        <pt x="134" y="-94" on="0"/>
        <pt x="221" y="-94" on="1"/>
        <pt x="285" y="-94" on="0"/>
        <pt x="401" y="-50" on="0"/>
        <pt x="513" y="54" on="0"/>
        <pt x="626" y="225" on="0"/>
        <pt x="688" y="351" on="1"/>
        <pt x="660" y="305" on="0"/>
        <pt x="591" y="226" on="0"/>
        <pt x="519" y="167" on="0"/>
        <pt x="448" y="134" on="0"/>
        <pt x="418" y="134" on="1"/>
        <pt x="373" y="134" on="0"/>
        <pt x="336" y="186" on="0"/>
        <pt x="343" y="232" on="1"/>
        <pt x="351" y="287" on="0"/>
        <pt x="384" y="397" on="0"/>
        <pt x="400" y="448" on="1"/>
        <pt x="416" y="498" on="0"/>
        <pt x="430" y="562" on="0"/>
        <pt x="428" y="600" on="0"/>
        <pt x="414" y="614" on="0"/>
        <pt x="401" y="614" on="1"/>
        <pt x="389" y="614" on="0"/>
        <pt x="363" y="602" on="0"/>
        <pt x="339" y="584" on="0"/>
        <pt x="318" y="562" on="0"/>
        <pt x="312" y="551" on="1"/>
        <pt x="308" y="547" on="0"/>
        <pt x="301" y="554" on="0"/>
        <pt x="302" y="559" on="1"/>
        <pt x="309" y="570" on="0"/>
        <pt x="335" y="600" on="0"/>
        <pt x="370" y="626" on="0"/>
        <pt x="408" y="644" on="0"/>
      </contour>
    </TTGlyph>
</ttFont>
